<svg height="512" viewBox="0 0 512 512" width="512" xmlns="http://www.w3.org/2000/svg"><g id="flat"><path d="m160 449.688v-105.688h96l.004 83.331z" fill="#5b3719"/><path d="m24 40h464v240h-464z" fill="#62ae88"/><path d="m400 72a56 56 0 0 0 -39.6 95.6l39.6-39.6z" fill="#ee9d0d"/><path d="m24 280h464v32h-464z" fill="#a3612d"/><path d="m24 264h464v16h-464z" fill="#5aa07d"/><path d="m184 128v64h32v-16h2a14 14 0 0 0 14-14v-34z" fill="#fdc9a6"/><path d="m175.748 112.5a29.855 29.855 0 0 1 26.7-16.5h29.552a16 16 0 0 1 16 16 16 16 0 0 1 -16 16h-32l-16 24-6.389-9.584a29.855 29.855 0 0 1 -1.863-29.916z" fill="#7a4922"/><path d="m352 144a8 8 0 0 1 -5.657-13.657l24-24a8 8 0 0 1 11.314 11.314l-24 24a7.974 7.974 0 0 1 -5.657 2.343z" fill="#7a4922"/><path d="m80 408-36.6 15.688a32 32 0 0 0 -19.4 29.412v34.9h144v-34.9a32 32 0 0 0 -19.4-29.413l-36.6-15.687z" fill="#91a666"/><rect fill="#7a4922" height="72" rx="32" width="64" x="64" y="344"/><path d="m368 408-36.6 15.688a32 32 0 0 0 -19.4 29.412v34.9h144v-34.9a32 32 0 0 0 -19.395-29.413l-36.605-15.687z" fill="#ea2b2d"/><rect fill="#7a4922" height="72" rx="32" width="64" x="352" y="344"/><path d="m400 72v56l-39.6 39.6a56 56 0 1 0 39.6-95.6z" fill="#a86e09"/><g fill="#dcdbd6"><path d="m376 224h-8a8 8 0 0 1 0-16h8a8 8 0 0 1 0 16z"/><path d="m448 224h-40a8 8 0 0 1 0-16h40a8 8 0 0 1 0 16z"/><path d="m432 256h-64a8 8 0 0 1 0-16h64a8 8 0 0 1 0 16z"/></g><path d="m272 180.364 72-52.364 24 24-67.911 58.21z" fill="#fdc9a6"/><path d="m272 180.364-16 11.636h-102a34 34 0 0 0 -34 34v18.458h40v99.542h96v-96l44.089-37.79z" fill="#92d1f7"/><path d="m192 224h80v64h-80z" fill="#0a71cd"/><path d="m120 244.458v41.542a26 26 0 0 0 26 26h62v-40h-48v-27.542z" fill="#fdc9a6"/><path d="m224 408-36.6 15.688a32 32 0 0 0 -19.4 29.412v34.9h144v-34.9a32 32 0 0 0 -19.395-29.413l-36.605-15.687z" fill="#cbcbcb"/><rect fill="#ee9d0d" height="72" rx="32" width="64" x="208" y="344"/><path d="m64 456a8 8 0 0 0 -16 0v32h16z" fill="#768753"/><path d="m144 456a8 8 0 0 0 -16 0v32h16z" fill="#768753"/><path d="m352 456a8 8 0 0 0 -16 0v32h16z" fill="#cb2527"/><path d="m432 456a8 8 0 0 0 -16 0v32h16z" fill="#cb2527"/><path d="m208 456a8 8 0 0 0 -16 0v32h16z" fill="#b9b9b9"/><path d="m288 456a8 8 0 0 0 -16 0v32h16z" fill="#b9b9b9"/><path d="m160 244.458h8v27.542h-8z" fill="#5ebef7"/><path d="m160 312h48.002v8h-48.002z" fill="#5ebef7"/><path d="m208 288h48.002v8h-48.002z" fill="#5ebef7"/><path d="m224 224h16v64h-16z" fill="#529fff"/></g></svg>