<svg xmlns="http://www.w3.org/2000/svg" viewBox="0 0 155.91 24.03"><title>1Asset 1</title><g id="Layer_2" data-name="Layer 2"><g id="Logo"><g id="Text"><path id="n" d="M147.4,11a4.9,4.9,0,0,1,3.54-1.47c4,0,5,2.7,5,6.15v8a.34.34,0,0,1-.35.36h-2.5a.37.37,0,0,1-.38-.36V16c0-2.07-.26-3.48-2.49-3.48-2.81,0-2.81,2.7-2.81,5v6.11A.37.37,0,0,1,147,24h-2.5a.36.36,0,0,1-.37-.36V10.29a.38.38,0,0,1,.37-.33H147a.39.39,0,0,1,.38.33Z"/><path id="o" d="M142.35,16.55a7.28,7.28,0,1,1-14.56,0,7.28,7.28,0,1,1,14.56,0m-11.31,0a4.07,4.07,0,1,0,8.12,0,4.07,4.07,0,1,0-8.12,0"/><path id="t" d="M119.83,13h-2.32c-.2,0-.38-.09-.38-.3V10.29a.39.39,0,0,1,.38-.33H118c1.8,0,1.8-1.35,1.8-2.07V6.36a.35.35,0,0,1,.38-.33h2.49a.32.32,0,0,1,.35.33V10h3a.39.39,0,0,1,.38.33v2.43c0,.21-.18.3-.38.3h-3v4.49c0,1.14-.09,3,1.21,3.33a2.8,2.8,0,0,0,1.6-.27.88.88,0,0,1,.23-.06.37.37,0,0,1,.38.33v2.55a.39.39,0,0,1-.26.3h0a5.43,5.43,0,0,1-2.06.33c-3.49,0-4.36-2.52-4.36-5.6V13Z"/><path id="e" d="M106.4,17.69a3.41,3.41,0,0,0,3.51,3.36c1.74,0,2.53-1,3.43-2.46a.31.31,0,0,1,.46-.09l2.12,1.23c.14.12.26.27.17.45v0A6.84,6.84,0,0,1,109.88,24c-4.15,0-6.7-3.24-6.7-7.38s2.26-7.55,6.65-7.55,6.47,3.69,6.47,7.85v.43a.34.34,0,0,1-.38.32ZM113,14.88A3.44,3.44,0,0,0,109.83,12a3.66,3.66,0,0,0-3.2,2.85Z"/><path id="l" d="M101.1,23.66a.36.36,0,0,1-.35.36h-2.5a.36.36,0,0,1-.37-.36V.78a.38.38,0,0,1,.37-.33h2.5a.38.38,0,0,1,.35.33Z"/><path id="b" d="M82.07.33A.39.39,0,0,1,82.45,0H85a.38.38,0,0,1,.37.33V11A5.45,5.45,0,0,1,89.5,9.09c4,0,6.44,3.48,6.44,7.38S93.62,24,89.39,24a5.76,5.76,0,0,1-4.07-1.89v1.08a.36.36,0,0,1-.37.36h-2.5a.37.37,0,0,1-.38-.36V.33Zm10.68,16.2c0-2.4-1.39-4.44-3.86-4.44s-3.71,2.16-3.71,4.44,1.33,4.52,3.71,4.52,3.86-2.07,3.86-4.52"/><path id="A" d="M65.27,18.51,63,23.78a.67.67,0,0,1-.35.24H59.76a.36.36,0,0,1-.35-.51L69.54.69a.39.39,0,0,1,.69,0c3.28,7.41,6.85,15.42,10.13,22.83A.36.36,0,0,1,80,24H77.17a.58.58,0,0,1-.35-.24c-.73-1.72-1.57-3.54-2.32-5.28ZM69.88,7.74l-3.27,7.58h6.55Z"/></g><path id="Icon" d="M3.25,23.66A.36.36,0,0,1,2.9,24H.38A.37.37,0,0,1,0,23.66V.71A.39.39,0,0,1,.38.38H2.9a.38.38,0,0,1,.35.33v23Zm6.58,0a.36.36,0,0,1-.35.36H7a.37.37,0,0,1-.38-.36V.71A.39.39,0,0,1,7,.38H9.48a.37.37,0,0,1,.35.33v23Zm6.58,0a.36.36,0,0,1-.35.36H13.55a.36.36,0,0,1-.38-.36V.71a.38.38,0,0,1,.38-.33h2.51a.37.37,0,0,1,.35.33Zm6.62,0a.36.36,0,0,1-.35.36H20.16a.36.36,0,0,1-.38-.36V.71a.38.38,0,0,1,.38-.33h2.52A.38.38,0,0,1,23,.71ZM48.92.35a.36.36,0,0,1,.35.36V3.3a.37.37,0,0,1-.35.39H26.6a.39.39,0,0,1-.33-.39V.71A.39.39,0,0,1,26.6.35Zm0,6.8a.36.36,0,0,1,.35.36v2.58a.37.37,0,0,1-.35.39H26.6a.39.39,0,0,1-.33-.39V7.51a.39.39,0,0,1,.33-.36Zm0,6.76a.37.37,0,0,1,.35.37v2.58a.38.38,0,0,1-.35.4H26.6a.4.4,0,0,1-.33-.4V14.28a.39.39,0,0,1,.33-.37Zm0,6.77a.36.36,0,0,1,.35.36v2.59a.37.37,0,0,1-.35.39H26.6a.39.39,0,0,1-.33-.39V21a.39.39,0,0,1,.33-.36Z"/></g></g></svg>