<svg xmlns="http://www.w3.org/2000/svg" viewBox="0 0 455.6 527.5"><defs><style>.cls-1{fill:#d1d1d1;}.cls-2{fill:#767676;}</style></defs><title>1Asset 1</title><g id="Layer_2" data-name="Layer 2"><g id="layer"><path class="cls-1" d="M20,240a9.56,9.56,0,0,0-9.5,9.5v83.1a9.54,9.54,0,0,0,9.4,9.5,9.63,9.63,0,0,0,9.5-9.5V249.5A9.47,9.47,0,0,0,20,240m0-137.9a9.56,9.56,0,0,0,9.5-9.5V9.5A9.43,9.43,0,0,0,20,0a9.56,9.56,0,0,0-9.5,9.5V92.6a9.37,9.37,0,0,0,9.5,9.5M97.8,249.5a9.5,9.5,0,0,0-19,0v83.1a9.5,9.5,0,0,0,19,0V249.5Z"/><path class="cls-2" d="M232.3,102.1a9.56,9.56,0,0,0,9.5-9.5V9.5A9.43,9.43,0,0,0,232.3,0a9.56,9.56,0,0,0-9.5,9.5V92.6a9.49,9.49,0,0,0,9.5,9.5"/><path class="cls-1" d="M437.7,102.1a9.56,9.56,0,0,0,9.5-9.5V9.5A9.43,9.43,0,0,0,437.7,0a9.56,9.56,0,0,0-9.5,9.5V92.6a9.43,9.43,0,0,0,9.5,9.5M336.1,0a51.1,51.1,0,1,0,50.8,51.1A50.94,50.94,0,0,0,336.1,0m0,85.6a34.45,34.45,0,1,1,34.2-34.5,34.25,34.25,0,0,1-34.2,34.5M58.8,121.2a51.1,51.1,0,1,0,50.8,51.1,50.94,50.94,0,0,0-50.8-51.1m0,85.5A34.45,34.45,0,1,1,93,172.2a34.38,34.38,0,0,1-34.2,34.5m230.1-76v83.1a9.45,9.45,0,1,0,18.9,0V130.7a9.43,9.43,0,0,0-9.5-9.5,9.54,9.54,0,0,0-9.4,9.5m-118-79.6a50.8,50.8,0,1,0-50.8,51.1,50.94,50.94,0,0,0,50.8-51.1M120.2,85.6a34.45,34.45,0,1,1,34.2-34.5,34.25,34.25,0,0,1-34.2,34.5M335.1,240a51.1,51.1,0,1,0,50.8,51.1c-.2-28.2-22.9-51.1-50.8-51.1m0,85.5A34.45,34.45,0,1,1,369.3,291a34.38,34.38,0,0,1-34.2,34.5"/><path class="cls-2" d="M232.3,121.2a9.56,9.56,0,0,0-9.5,9.5v83.1a9.5,9.5,0,0,0,19,0V130.7a9.56,9.56,0,0,0-9.5-9.5"/><path class="cls-1" d="M437.7,240a9.56,9.56,0,0,0-9.5,9.5v83.1a9.5,9.5,0,0,0,19,0V249.5a9.5,9.5,0,0,0-9.5-9.5"/><path class="cls-2" d="M188.7,240a51.1,51.1,0,1,0,50.8,51.1A50.94,50.94,0,0,0,188.7,240m0,85.5A34.45,34.45,0,1,1,222.9,291a34.38,34.38,0,0,1-34.2,34.5"/><path class="cls-1" d="M168.6,130.7a9.5,9.5,0,0,0-19,0v83.1a9.5,9.5,0,0,0,19,0V130.7Zm230.1-9.5a51.1,51.1,0,1,0,50.8,51.1,50.94,50.94,0,0,0-50.8-51.1m0,85.5a34.45,34.45,0,1,1,34.2-34.5,34.38,34.38,0,0,1-34.2,34.5"/><path class="cls-2" d="M17.3,458.4c0,3.1-1.7,4.9-4.4,4.9s-4.6-1.8-4.6-4.9V415.3H4.6c-3.1,0-4.6-1.4-4.6-3.8s1.5-4,4.6-4H8.3v-13c0-8,5.5-12,12.1-12h2.8c2.3,0,5.2,1.5,5.2,4s-1.5,4-4.9,4H21.2c-2.8,0-3.7,1.4-3.7,3.7v13.3h5.7c2.9,0,4.6,1.4,4.6,4s-1.5,3.8-4.6,3.8H17.5v43.1Zm77,.5a4.3,4.3,0,1,1-8.6,0v-3.8h-.3c-3.8,5.7-9,8.3-14.9,8.3-15.5,0-24.2-13.7-24.2-28.2,0-14.7,8.7-28.2,24.2-28.2,6.3,0,10.7,2.6,14.9,7.4h.3v-2.9a4.1,4.1,0,0,1,4.3-4.4,4.26,4.26,0,0,1,4.3,4.4v47.4Zm-23.7-3.5c11.2,0,15-11,15-20.4s-3.8-20.4-15-20.4-15,11-15,20.4S59.6,455.4,70.6,455.4Zm49.6-68c0-3.1,1.7-4.9,4.6-4.9s4.6,1.8,4.6,4.9v26.8h.2a18,18,0,0,1,14.7-7.5c14.9,0,23.5,13.7,23.5,28.2,0,14.7-8.6,28.2-23.5,28.2-7.2,0-12.1-2.6-14.7-7.5h-.2v2.8c0,3.1-1.7,4.9-4.6,4.9s-4.6-1.8-4.6-4.9v-71Zm23.3,68c11.2,0,15-11,15-20.4s-4-20.4-15-20.4-15,11-15,20.4S132.3,455.4,143.5,455.4Zm60.3,3c0,3.1-1.7,4.9-4.6,4.9s-4.6-1.8-4.6-4.9V415.3h-3.7c-2.9,0-4.6-1.4-4.6-3.8s1.5-4,4.6-4h3.7v-13c0-8,5.5-12,12.1-12h2.8c2.3,0,5.1,1.5,5.1,4s-1.5,4-4.9,4h-2.3c-2.8,0-3.7,1.4-3.7,3.7v13.3h5.7c2.9,0,4.6,1.4,4.6,4s-1.5,3.8-4.6,3.8h-5.7v43.1Zm40-70.4a5.6,5.6,0,1,1-5.5,5.7,5.59,5.59,0,0,1,5.5-5.7Zm4.6,70.4c0,3.1-1.7,4.9-4.6,4.9s-4.4-1.8-4.4-4.9V411.6c0-3.1,1.7-4.9,4.4-4.9s4.6,1.8,4.6,4.9v46.8Zm38.8,0c0,3.1-1.7,4.9-4.6,4.9s-4.6-1.8-4.6-4.9v-71c0-3.1,1.7-4.9,4.6-4.9s4.6,1.8,4.6,4.9v71Zm32.2-62.8c0-3.1,1.7-4.9,4.6-4.9s4.6,1.8,4.6,4.9v12h3.7c2.9,0,4.6,1.4,4.6,4s-1.5,3.8-4.6,3.8h-3.7v43.1c0,3.1-1.7,4.9-4.6,4.9s-4.6-1.8-4.6-4.9V415.4h-3.7c-3.1,0-4.6-1.4-4.6-3.8s1.5-4,4.6-4h3.7Zm46.5,43c0,9.5,6,16.9,16.3,16.9,12.1,0,15.2-7.5,18.6-7.5,1.7,0,3.2,1.4,3.2,4,0,4.4-11.2,11.3-21.9,11.3-17.5,0-25.2-13.7-25.2-28.2,0-14.9,9.4-28.2,24.7-28.2,15,0,23.6,13.7,23.6,26.8,0,3.2-1.1,4.9-5.1,4.9Zm30.2-6.9c0-7.8-4.6-17-14.6-17-11.2-.5-15.3,8.6-15.6,17Zm32.7-20c0-3.1,1.7-4.9,4.6-4.9s4.4,1.8,4.4,4.9v4.8h.3c2-4.3,7.1-9.5,12.4-9.5,3.2,0,5.1,2,5.1,4.6s-1.8,4.3-5.7,4.9c-5.4.9-12,5.1-12,15.6v26.2c0,3.1-1.7,4.9-4.4,4.9s-4.6-1.8-4.6-4.9l-.1-46.6ZM14.7,506.6c2.8,0,6.7,1.5,6.7,3.5a1.34,1.34,0,0,1-1.5,1.4c-1.4,0-2-2-5.2-2-1.8,0-3.5.9-3.5,2.6,0,3.5,10.7,3.2,10.7,9,0,4.3-3.7,6.3-7.4,6.3-4.3,0-7.5-2.1-7.5-3.8a1.39,1.39,0,0,1,1.4-1.5c1.5,0,2.8,2.5,6.3,2.5,2.5,0,3.8-1.4,3.8-2.8,0-4-10.7-3.8-10.7-9.4,0-3.8,3.5-5.8,6.9-5.8m24,0c5.7,0,8.9,5.1,8.9,10.4s-3.2,10.4-8.9,10.4-8.9-5.1-8.9-10.4,3.3-10.4,8.9-10.4m0,17.8c4.1,0,5.5-4,5.5-7.5s-1.5-7.5-5.5-7.5-5.5,4-5.5,7.5,1.6,7.5,5.5,7.5m22.6,1.2a1.61,1.61,0,0,1-1.7,1.8c-1.1,0-1.7-.6-1.7-1.8V509.8H56.5c-1.1,0-1.7-.5-1.7-1.5s.6-1.4,1.7-1.4h1.4v-4.8a4.14,4.14,0,0,1,4.4-4.4h1.1c.9,0,1.8.5,1.8,1.4s-.6,1.5-1.8,1.5h-.8c-1.1,0-1.4.5-1.4,1.4v4.9h2.1c1.1,0,1.7.5,1.7,1.4s-.6,1.5-1.7,1.5H61.2v15.8Zm12.1-23.1a1.61,1.61,0,0,1,1.7-1.8,1.77,1.77,0,0,1,1.7,1.8v4.4h1.4c1.1,0,1.7.5,1.7,1.4s-.6,1.5-1.7,1.5H76.8v15.8a1.61,1.61,0,0,1-1.7,1.8c-1.1,0-1.7-.6-1.7-1.8V509.8H72c-1.1,0-1.7-.5-1.7-1.5s.6-1.4,1.7-1.4h1.4v-4.4Zm12.7,6.9a3.53,3.53,0,0,1-.3-1.4,1.58,1.58,0,0,1,1.7-1.5c.8,0,1.4.3,1.8,1.7L93.6,522h.2l4.1-13.3c.5-1.5.8-2.3,2-2.3s1.5.8,2,2.3l4.3,13.3h.2l4.3-13.8c.5-1.4,1.1-1.7,1.8-1.7a1.65,1.65,0,0,1,1.7,1.5,8.87,8.87,0,0,1-.3,1.4l-5.5,16.3c-.5,1.4-1.1,1.7-2,1.7s-1.5-.5-1.8-1.8l-4.3-13.7h-.2l-4.3,13.7c-.5,1.4-1.1,1.7-1.8,1.7-.9,0-1.5-.5-2-1.8l-5.9-16.1Zm52.3,16.4a1.58,1.58,0,0,1-1.5,1.7c-.8,0-1.5-.5-1.5-1.7v-1.4h-.2a6.75,6.75,0,0,1-5.5,3.1c-5.7,0-8.9-5.1-8.9-10.4s3.2-10.4,8.9-10.4a6.56,6.56,0,0,1,5.5,2.8h.2v-1.1a1.51,1.51,0,1,1,3,0v17.4Zm-8.7-1.4c4.1,0,5.5-4,5.5-7.5s-1.4-7.5-5.5-7.5-5.5,4-5.5,7.5S125.7,524.4,129.7,524.4Zm18.9-16a1.61,1.61,0,0,1,1.7-1.8,1.65,1.65,0,0,1,1.7,1.8v1.7h.2c.8-1.5,2.6-3.5,4.6-3.5a1.65,1.65,0,0,1,1.8,1.7c0,.9-.6,1.5-2.1,1.8-2,.3-4.4,1.8-4.4,5.7v9.7a1.61,1.61,0,0,1-1.7,1.8,1.65,1.65,0,0,1-1.7-1.8l-.1-17.1Zm19.6,9.9a5.75,5.75,0,0,0,6,6.1c4.4,0,5.5-2.8,6.7-2.8.6,0,1.2.5,1.2,1.5,0,1.7-4.1,4.1-8.1,4.1-6.4,0-9.2-5.1-9.2-10.3,0-5.5,3.4-10.4,9-10.4s8.7,5.1,8.7,9.8c0,1.2-.5,1.8-1.8,1.8l-12.5.2Zm11.2-2.5c0-2.9-1.7-6.3-5.4-6.3-4.1-.2-5.7,3.2-5.7,6.3Zm31-16.1a2,2,0,0,1,2,2,2.09,2.09,0,0,1-2,2.1,2,2,0,0,1-2-2.1A1.84,1.84,0,0,1,210.4,499.7Zm1.5,25.9a1.61,1.61,0,0,1-1.7,1.8c-1.1,0-1.7-.6-1.7-1.8V508.4a1.61,1.61,0,0,1,1.7-1.8,1.65,1.65,0,0,1,1.7,1.8v17.2ZM222,508.4a1.61,1.61,0,0,1,1.7-1.8,1.65,1.65,0,0,1,1.7,1.8v.8h.2a7,7,0,0,1,5.5-2.6c3.1,0,7.1,2,7.1,7.7v11.2a1.61,1.61,0,0,1-1.7,1.8,1.65,1.65,0,0,1-1.7-1.8v-11a4.72,4.72,0,1,0-9.4,0v11a1.61,1.61,0,0,1-1.7,1.8,1.65,1.65,0,0,1-1.7-1.8V508.4Zm32.5-1.8c2.8,0,6.7,1.5,6.7,3.5a1.34,1.34,0,0,1-1.5,1.4c-1.4,0-2-2-5.2-2-1.8,0-3.5.9-3.5,2.6,0,3.5,10.7,3.2,10.7,9,0,4.3-3.7,6.3-7.4,6.3-4.3,0-7.7-2.1-7.7-3.8a1.39,1.39,0,0,1,1.4-1.5c1.5,0,2.8,2.5,6.3,2.5,2.5,0,3.8-1.4,3.8-2.8,0-4-10.7-3.8-10.7-9.4.2-3.8,3.8-5.8,7.1-5.8m17.2-4.1a1.61,1.61,0,0,1,1.7-1.8,1.65,1.65,0,0,1,1.7,1.8v4.4h1.4c1.1,0,1.7.5,1.7,1.4s-.6,1.5-1.7,1.5h-1.4v15.8a1.61,1.61,0,0,1-1.7,1.8,1.65,1.65,0,0,1-1.7-1.8V509.8h-1.4c-1.1,0-1.7-.5-1.7-1.5s.6-1.4,1.7-1.4h1.4v-4.4Zm14.6,5.9a1.61,1.61,0,0,1,1.7-1.8,1.65,1.65,0,0,1,1.7,1.8v1.7h0c.8-1.5,2.6-3.5,4.6-3.5a1.65,1.65,0,0,1,1.8,1.7c0,.9-.6,1.5-2.1,1.8-2,.3-4.3,1.8-4.3,5.7v9.7a1.61,1.61,0,0,1-1.7,1.8,1.65,1.65,0,0,1-1.7-1.8V508.4Zm17.6,0a1.61,1.61,0,0,1,1.7-1.8,1.65,1.65,0,0,1,1.7,1.8v10.7c0,3.5,1.5,5.4,4.8,5.4,3.1,0,4.6-1.8,4.6-5.4V508.4a1.61,1.61,0,0,1,1.7-1.8,1.65,1.65,0,0,1,1.7,1.8v10.9c0,6-4,8.1-8,8.1s-8-2.1-8-8.1l-.2-10.9Zm38.1,5.7c0-2.9-1.5-4.6-4.3-4.6s-4.3,1.8-4.3,4.6v11.3a1.61,1.61,0,0,1-1.7,1.8c-1.1,0-1.7-.6-1.7-1.8V508.2a1.61,1.61,0,0,1,1.7-1.8,1.65,1.65,0,0,1,1.7,1.8v.6h.2a5.55,5.55,0,0,1,5.1-2.5,6.23,6.23,0,0,1,5.5,3.4c1.5-2.1,3.2-3.4,6.1-3.4,3.1,0,7.1,2,7.1,7.7v11.2a1.53,1.53,0,0,1-1.7,1.7c-1.1,0-1.7-.6-1.7-1.8V513.8c0-2.9-1.5-4.8-4.3-4.8-2.6,0-4.3,1.8-4.3,4.6v11.3a1.61,1.61,0,0,1-1.7,1.8c-1.1,0-1.7-.6-1.7-1.8V514.1Zm27.4,4.2c0,3.5,2.1,6.1,6,6.1,4.4,0,5.5-2.8,6.7-2.8.6,0,1.2.5,1.2,1.5,0,1.7-4.1,4.1-8.1,4.1-6.4,0-9.2-5.1-9.2-10.3,0-5.5,3.4-10.4,9-10.4s8.7,5.1,8.7,9.8c0,1.2-.5,1.8-1.8,1.8l-12.5.2Zm11.1-2.5c0-2.9-1.7-6.3-5.4-6.3-4.1-.2-5.5,3.2-5.7,6.3Zm12.2-7.4a1.61,1.61,0,0,1,1.7-1.8,1.65,1.65,0,0,1,1.7,1.8v.8h.2a7,7,0,0,1,5.5-2.6c3.1,0,7.1,2,7.1,7.7v11.2a1.61,1.61,0,0,1-1.7,1.8c-1.1,0-1.7-.6-1.7-1.8v-11a4.71,4.71,0,0,0-4.6-5.1c-2.3,0-4.8,1.4-4.8,5.1v11a1.61,1.61,0,0,1-1.7,1.8c-1.1,0-1.7-.6-1.7-1.8V508.4Zm27-5.9a1.61,1.61,0,0,1,1.7-1.8,1.65,1.65,0,0,1,1.7,1.8v4.4h1.4c1.1,0,1.7.5,1.7,1.4s-.6,1.5-1.7,1.5h-1.4v15.8a1.61,1.61,0,0,1-1.7,1.8,1.65,1.65,0,0,1-1.7-1.8V509.8h-1.4c-1.1,0-1.7-.5-1.7-1.5s.6-1.4,1.7-1.4h1.4v-4.4Zm21,4.1c2.8,0,6.7,1.5,6.7,3.5a1.34,1.34,0,0,1-1.5,1.4c-1.4,0-2-2-5.2-2-1.8,0-3.5.9-3.5,2.6,0,3.5,10.7,3.2,10.7,9,0,4.3-3.7,6.3-7.4,6.3-4.3,0-7.5-2.1-7.5-3.8a1.39,1.39,0,0,1,1.4-1.5c1.5,0,2.8,2.5,6.3,2.5,2.5,0,3.8-1.4,3.8-2.8,0-4-10.7-3.8-10.7-9.4,0-3.8,3.4-5.8,6.9-5.8"/></g></g></svg>