<svg xmlns="http://www.w3.org/2000/svg" viewBox="0 0 920.03 343"><defs><style>.cls-1{fill:#767676;}</style></defs><title>1Asset 1</title><g id="Layer_2" data-name="Layer 2"><g id="layer"><path class="cls-1" d="M390.53,137.8h12.1v10.9h-12.1Zm0,20h12.1V206h-12.1Z"/><path class="cls-1" d="M549.43,136.6a34.49,34.49,0,0,1,35.3,33.6v1.2a35.27,35.27,0,0,1-70.5,2.5v-2.5a34.46,34.46,0,0,1,34-34.8Zm0,59.2a23,23,0,0,0,22.5-23.6v-.6a22.52,22.52,0,0,0-45-2v2a23.14,23.14,0,0,0,21.8,24.4C548.83,195.8,549.13,195.8,549.43,195.8Z"/><path class="cls-1" d="M632.93,148.4h-22.4V137.8h57.1v10.6h-22.4v57.5h-12.4V148.4Z"/><path class="cls-1" d="M728.73,136.6A34.49,34.49,0,0,1,764,170.2v1.2a35.27,35.27,0,0,1-70.5,2.5v-2.5a34.51,34.51,0,0,1,34.2-34.8Zm0,59.2a23,23,0,0,0,22.5-23.6v-.6a22.52,22.52,0,0,0-45-2v2A23.14,23.14,0,0,0,728,196,1.23,1.23,0,0,1,728.73,195.8Z"/><path class="cls-1" d="M797.43,137.8h26.4a21,21,0,0,1,21.8,19.9v2.1a21.27,21.27,0,0,1-20.1,22.4H810v23.5h-12.4V137.8Zm24.1,34.1a10.76,10.76,0,0,0,11.5-10v-1.7a10.64,10.64,0,0,0-9.7-11.5h-13.5v23.2Z"/><path class="cls-1" d="M877.73,137.8h40.8v10.6h-28.2v17.8h22.9v10.6h-22.9v18.4H920v10.6h-42.3Z"/><path class="cls-1" d="M450.83,195.3a40.93,40.93,0,0,0,4.9-6.1l35.6-51.4h-54.4v10.6h33.7a40.93,40.93,0,0,0-4.9,6.1L430,205.9h56.7V195.3Z"/><path class="cls-1" d="M178.73,21.1a15.83,15.83,0,0,0,.5-3.8,17.3,17.3,0,1,0-17.4,17.3,16.27,16.27,0,0,0,8.6-2.5c3.8,8,7.8,16,11.8,23.9,5.7,11.7,11.3,23.3,17,35.1,11,23.5,21.6,47.2,30.8,71.3,1.5,4,2.8,8,4.3,11.8-15.6-1.1-32.1-3.1-47.5-5.5a24.74,24.74,0,0,0-27-22.4,23.75,23.75,0,0,0-11,3.8,213.23,213.23,0,0,0-27.9-27.5,131.46,131.46,0,0,0-17-11.7,58.38,58.38,0,0,0-9.8-4.6,26.1,26.1,0,0,0-12.4-1.5,14.44,14.44,0,0,0-11.5,9.4,26.33,26.33,0,0,0-1.4,11.8,97.4,97.4,0,0,0,3.8,20.2c.8,2.6,1.7,4.9,2.5,7.5-34-1.1-66.6,3.1-74.1,21-12.6,30.5,93.3,110.9,144,147.2a15.83,15.83,0,0,0-.5,3.8,17.37,17.37,0,0,0,17.3,17.3A17,17,0,0,0,179,326a17.28,17.28,0,0,0-17.2-17.3,16.27,16.27,0,0,0-8.6,2.5c-3.8-8-7.8-16-11.8-23.9-5.7-11.7-11.3-23.3-17-35.1-11-23.5-21.3-47.2-30.7-71.3-1.5-4-2.8-8-4.3-12,15.6,1.1,31.9,3.1,47.5,5.5a24.9,24.9,0,0,0,38,18.5,213.23,213.23,0,0,0,27.9,27.5,118,118,0,0,0,16.9,11.7,58.38,58.38,0,0,0,9.8,4.6,26.1,26.1,0,0,0,12.4,1.5,14.44,14.44,0,0,0,11.5-9.4,31.39,31.39,0,0,0,1.4-11.8,94,94,0,0,0-3.7-20.4c-.8-2.6-1.7-4.9-2.5-7.5h9.7c30.5,0,57.5-4.9,64.4-21.3C335.53,137.8,229.53,57.4,178.73,21.1Zm-92.6,163c10.3,24.1,21.8,47.4,33.7,70.6,6,11.5,12.1,23,18.4,34.4,3.7,6.7,7.4,13.3,11.3,20.1C61.53,246,8.53,192.8,13.63,181c4.8-11.2,32.7-14,66.3-12.4C82,173.7,83.93,178.9,86.13,184.1Zm-4-39.5a93.31,93.31,0,0,1-2.8-18.1,20.9,20.9,0,0,1,.9-7.4,2.83,2.83,0,0,1,1.1-1.5,4.26,4.26,0,0,1,1.8-.6,27.79,27.79,0,0,1,14.6,5.2,106,106,0,0,1,14.9,11,179.46,179.46,0,0,1,25.9,27.1h0c0,.3.5.3.8.6h0c-15.2-2-34.7-4.6-54.3-5.8C84.13,151.5,82.93,147.9,82.13,144.6Zm159.4,54.6a93.31,93.31,0,0,1,2.8,18.1,17.35,17.35,0,0,1-1.1,7.4,2.83,2.83,0,0,1-1.1,1.5,2.61,2.61,0,0,1-1.8.6,27.13,27.13,0,0,1-14.4-5.2,119.07,119.07,0,0,1-14.9-11,179.46,179.46,0,0,1-25.9-27.1h0c-.3-.2-.5-.5-.8-.6h0c15,2,34.5,4.6,54,5.8C239.53,192.3,240.73,195.8,241.53,199.2ZM310,162.8c-4.8,11.2-32.7,14-66.3,12.3-2-5.2-4-10.4-6.3-15.5-10.3-24.1-21.8-47.4-33.7-70.6-6-11.5-12.1-23-18.4-34.4-3.7-6.7-7.4-13.3-11.2-19.9C247.43,87.5,316,148.4,310,162.8Z"/></g></g></svg>