<svg xmlns="http://www.w3.org/2000/svg" viewBox="0 0 757.5 267.97"><defs><style>.cls-1{fill:#010202;}.cls-2{fill:#6e6e6e;}.cls-3{fill:#333433;}.cls-4{fill:#010201;}.cls-5{fill:#010101;}.cls-6{fill:#040404;}.cls-7{fill:#030303;}.cls-8{fill:#020202;}.cls-9{fill:#050505;}.cls-10{fill:#a2a1a1;}.cls-11{fill:#a6a5a6;}.cls-12{fill:#a4a3a4;}.cls-13{fill:#9a999a;}.cls-14{fill:#5d5d5d;}.cls-15{fill:#5b5b5b;}.cls-16{fill:#949494;}.cls-17{fill:#fff;}.cls-18{fill:#8e8d8d;}.cls-19{fill:#e2e1e0;}.cls-20{fill:#f2f2f1;}.cls-21{fill:#545454;}.cls-22{fill:#fbfafa;}.cls-23{fill:#3c3d3d;}.cls-24{fill:#2d2e2e;}.cls-25{fill:#5b5a5a;}.cls-26{fill:#444;}.cls-27{fill:#595959;}.cls-28{fill:#6c6b6b;}.cls-29{fill:#7e7e7e;}.cls-30{fill:#a7a6a6;}.cls-31{fill:#7d7c7c;}.cls-32{fill:#adadad;}.cls-33{fill:#9c9c9c;}.cls-34{fill:#999898;}.cls-35{fill:#4b4b4b;}.cls-36{fill:#7a7a7a;}.cls-37{fill:#e8e7e7;}.cls-38{fill:#f5f5f5;}.cls-39{fill:#e3e2e2;}.cls-40{fill:#898989;}.cls-41{fill:#717171;}.cls-42{fill:#6f6e6e;}.cls-43{fill:#b1b0b0;}.cls-44{fill:#818181;}.cls-45{fill:#8c8c8c;}.cls-46{fill:#afaeae;}.cls-47{fill:#aeaeae;}.cls-48{fill:#7e7d7d;}.cls-49{fill:#070707;}.cls-50{fill:#fafafa;}.cls-51{fill:#f2f2f2;}.cls-52{fill:#edecec;}.cls-53{fill:#dedddd;}.cls-54{fill:#e7e6e6;}.cls-55{fill:#f4f4f4;}.cls-56{fill:#f8f8f8;}.cls-57{fill:#919090;}.cls-58{fill:#979797;}.cls-59{fill:#faf9f9;}.cls-60{fill:#707070;}.cls-61{fill:#60605f;}.cls-62{fill:#6f6f6f;}.cls-63{fill:#8b8b8b;}.cls-64{fill:#e4e3e3;}.cls-65{fill:#e6e4e4;}.cls-66{fill:#fdfdfd;}.cls-67{fill:#edeceb;}.cls-68{fill:#f0efee;}.cls-69{fill:#f5f5f4;}.cls-70{fill:#f1f0f0;}.cls-71{fill:#f0efef;}.cls-72{fill:#959595;}.cls-73{fill:#e1e0e0;}.cls-74{fill:#858485;}.cls-75{fill:#757575;}.cls-76{fill:#7f7e7f;}.cls-77{fill:#828282;}.cls-78{fill:#989798;}.cls-79{fill:#858484;}.cls-80{fill:#b9b9b9;}.cls-81{fill:#6d6d6d;}.cls-82{fill:#939393;}.cls-83{fill:#727272;}.cls-84{fill:#908f8f;}.cls-85{fill:#f7f6f6;}.cls-86{fill:#ecebeb;}.cls-87{fill:#f5f4f4;}.cls-88{fill:#f2f1f1;}.cls-89{fill:#f4f3f3;}.cls-90{fill:#f4f4f3;}.cls-91{fill:#747474;}.cls-92{fill:#4d4d4d;}.cls-93{fill:#e2e1e1;}.cls-94{fill:#464646;}.cls-95{fill:#f7f7f6;}.cls-96{fill:#7b7b7b;}.cls-97{fill:#eae9e9;}.cls-98{fill:#f9f9f9;}.cls-99{fill:#dcdbdb;}.cls-100{fill:#eeeded;}.cls-101{fill:#bebdbd;}.cls-102{fill:#f2f1f0;}.cls-103{fill:#b4b4b4;}.cls-104{fill:#e5e4e3;}.cls-105{fill:#f6f6f6;}.cls-106{fill:#f8f7f7;}.cls-107{fill:#f1f1f0;}.cls-108{fill:#ebeae9;}.cls-109{fill:#838383;}.cls-110{fill:#ebeaea;}.cls-111{fill:#eae9e8;}.cls-112{fill:#efeeee;}.cls-113{fill:#f7f7f7;}.cls-114{fill:#3d3d3d;}.cls-115{fill:#fcfcfc;}.cls-116{fill:#efeeed;}</style></defs><title>1Asset 1</title><g id="Layer_2" data-name="Layer 2"><g id="Layer_1-2" data-name="Layer 1"><path class="cls-1" d="M257.6,173.11c-1.9,8.1-6.1,15.1-11.3,21.4-3.8,4.6-7.9,9-13.3,11.9-3.7,2-4.9,5.8-7.2,8.8a39.56,39.56,0,0,0-2.2,3.4c-4.8,6.4-9.6,12.7-15.4,18.1a122.59,122.59,0,0,1-34.5,22.6c-7,3-14.4,4.8-21.8,6.7-2.8.7-5.8.6-8.6,1.7-8.7,0-17.5.7-26.2-.2a104.08,104.08,0,0,1-27.3-6.8A115.09,115.09,0,0,1,60,243.51a111.09,111.09,0,0,1-27.5-32c-2-3.6-5.5-5-8.5-7.3-12-9.3-19.4-21.5-22.7-36.2-.2-.9-.3-1.9-1.3-2.4v-21.5c2.4-2.2,1.8-5.4,2.7-8.2a62.08,62.08,0,0,1,25.1-33.1c2.9-2,4.4-4.2,4.3-8-.2-8.3.3-16.6.1-24.9-.4-13.1,4.3-24.3,12.1-34.5,7-8.9,15.9-15.3,26.2-20.1,9.8-4.6,19.8-8.7,30.3-11.2,11.4-2.7,23-4.8,34.9-3.9,5.1,1.2,10.4,1.3,15.5,2.3a143.6,143.6,0,0,1,47.1,17.7,60.74,60.74,0,0,1,28.2,36.4,34.78,34.78,0,0,1,1,9.7c0,9.3.1,18.5-.1,27.8a9.3,9.3,0,0,0,4.5,8.7A61.93,61.93,0,0,1,253,126a65.15,65.15,0,0,1,6.1,17.7c1.2,5.5,1,11.1.7,16.6A44.12,44.12,0,0,1,257.6,173.11Z"/><path class="cls-2" d="M751.7,23.51c2.4,1.1,3.5,3.7,5.8,5v1.3a13.28,13.28,0,0,0,0,8.8v1.3c-1.6.5-2,2.1-3,3.1q-6.15,6.15-14.7,2.7c-3.7-1.6-7.9-8.1-7.3-12.4.6-4,2.3-7.6,6-9.8,1.3-.6,2.3-1.8,3.9-1.4a1.48,1.48,0,0,1,.2,1.3,50,50,0,0,1-4.1,3.9c-2.9,4.6-3,9.6-.4,12.8,3.7,4.6,10.2,4.5,14.8-.2.2-.2.4-.5.6-.7,2.4-3.4,2-6.9,0-10.3-.6-1.4-1.8-2.4-2.7-3.6C750,23.51,750.2,23.21,751.7,23.51Z"/><path class="cls-3" d="M757.4,38.61c-.7-.1-1.2-.4-1.2-1.1v-6.6c0-.8.5-1.1,1.2-1.1Z"/><path class="cls-4" d="M577.8,198.41c-2.9,5-5.9,10.1-8.8,15.1-1.2,2-2.3,4-3.4,6-.4.8-.6,1.6-1.7,1.5s-1.3-.8-1.8-1.6l-10.5-18.6a14.31,14.31,0,0,0-1.9-2.4c-1.4.6-1,1.7-1,2.5V217c0,1.9,0,3.6,2.7,3.5,1.5-.1,1.8,1.1,1.8,2.4v17.4c0,1.4-.6,2.3-2,2.3H524.7c-1.5,0-1.9-.9-1.9-2.3v-17.7c0-1.4.6-2.2,2-2.2,1.8.1,2-1,2-2.4v-35.7c0-1.4-.2-2.5-2-2.5s-2-1.2-2-2.6v-17.4c0-1.8.8-2.6,2.7-2.6h21.1a4,4,0,0,1,3.6,2.1l11.7,18.9c1.4,2.3,2.2,2.4,3.6,0,3.8-6.2,7.7-12.4,11.5-18.7a4.45,4.45,0,0,1,4.4-2.4c6.7.1,13.5.1,20.2,0,2.1,0,3.1.8,3.1,2.9v16.7c0,1.6-.3,3-2.4,2.9-1.7,0-1.7,1.2-1.7,2.4v35.7c0,1.3,0,2.6,1.9,2.5s2.2,1.1,2.2,2.7v17c0,1.7-.7,2.5-2.4,2.5H576.7c-1.7,0-2.4-.8-2.4-2.5.1-5.7.1-11.4,0-17,0-1.7.7-2.5,2.4-2.6,1,0,2-.2,2-1.5v-20.3C578.5,198.61,578.2,198.51,577.8,198.41Z"/><path class="cls-5" d="M671.7,242.61c-4.7,0-9.5-.1-14.2,0-2.2.1-3-.7-2.9-2.9.1-5.6.1-11.1,0-16.7,0-1.6.3-2.8,2.2-2.6s3-.9,4-2c5.2-5.5,10.4-11,15.7-16.4,1.4-1.4,1.7-2.5.1-4.1-5.3-5.3-10.3-10.8-15.5-16.1-.8-.8-1.5-1.9-2.8-1.8-3.3.2-3.6-1.8-3.6-4.5.1-4.8,0-9.7-.2-14.5-.1-2.5.6-3.6,3.3-3.6,9.4.1,18.7.1,28.1,0,2.5,0,3.4,1,3.3,3.4-.1,5.1,0,10.3,0,15.5,0,.7.2,1.7-.2,2.2-1.8,2.5-.2,3.8,1.5,5.2.8.7,1.6,1.8,2.6.7s3.9-2.1,3-3.9c-1.5-3.1-.7-6.2-.9-9.3-.2-3.5.1-6.9-.1-10.4-.1-2.5.9-3.3,3.3-3.3,9.3.1,18.5.1,27.8,0,2.1,0,3.1.7,3,2.9-.1,5.6-.1,11.1,0,16.7,0,1.8-.4,3.1-2.6,3-1.4-.1-2.3.7-3.2,1.7-5.1,5.4-10.3,10.8-15.5,16.2-1.5,1.6-1.4,2.7.1,4.2,5.5,5.7,10.9,11.4,16.3,17.1.5.5,1.2,1.3,1.7,1.2,3.8-.3,3.2,2.3,3.2,4.6,0,4.9-.1,9.9,0,14.8.1,2.2-.7,2.9-2.9,2.9-9.4-.1-18.7-.1-28.1,0-2.4,0-3.1-.8-3.1-3.1.1-5.4,0-10.7,0-16.1,0-.6-.2-1.5.1-1.8,3-3-.4-4-1.7-5.6s-2.6-.8-3.4.4-3.9,1.9-1.8,4.4a3.66,3.66,0,0,1,.8,2.6c0,5.4-.1,10.7,0,16.1.1,2.6-1.1,3.2-3.4,3.2C681.2,242.51,676.4,242.61,671.7,242.61Z"/><path class="cls-5" d="M459.4,157.41c9.2,0,18.3.1,27.5-.1,2.9-.1,3.7,1.1,3.6,3.7-.1,7.2-.1,14.3,0,21.5,0,2.1-.7,3.1-2.9,3.1-5.5-.1-10.9,0-16.4,0-2,0-3.2-.6-2.9-3,.2-1.8-.6-2.7-2.5-2.7-3,.1-6.1.1-9.2,0-1.8,0-2.4.8-2.4,2.5,0,8-.6,6.6,6.1,6.6,8.2.1,8.2,0,8.2,8.1,0,3.7-.1,7.4,0,11,.1,2.1-.8,2.8-2.8,2.8-2.9-.1-5.9.1-8.8-.1-1.9-.1-2.5.8-2.7,2.6-.5,7-.5,7,6.6,7,1.2,0,2.3-.1,3.5,0,2.7.3,4.5-.2,4.1-3.6-.2-1.5.9-2.2,2.4-2.2h17.4c1.7,0,2.4,1,2.4,2.6v23c0,1.8-1,2.3-2.6,2.3H430.9c-2,0-2.8-.8-2.8-2.8.1-5.6.1-11.1,0-16.7,0-1.3.2-2.4,1.7-2.5,2.2-.1,2.4-1.5,2.4-3.3v-34.7c0-1.5-.2-2.5-1.9-2.7s-2.3-1.5-2.3-3.2v-16.4c0-2.4,1.2-3,3.4-3,9.3.2,18.7.1,28,.2Z"/><path class="cls-6" d="M643.5,65.81c-1.1,1.2-.8,2.5-.8,3.6q-.15,39-.2,77.9c0,4.1-.1,4.2-4.3,4.2-6.1,0-6.1,1.1-6-6.2V27c0-3.9.2-4.1,4.1-4.1h3.2c6.9,0,7,0,8.4,6.8l9,44.4c2.3,11,4.9,21.9,6.7,33,.1.6.2,1.5.9,1.5,1,0,.9-1,.9-1.7.1-4.5.1-9,.1-13.6v-66c0-4.4.1-4.5,4.4-4.5,6,0,6,0,6,6v118.3c0,4.3,0,4.4-4.4,4.3-6.9-.2-7.1-.1-8.8-6.7-2.3-8.7-4.2-17.5-6.2-26.3-2.5-10.6-5.1-21.2-7.6-31.8-1.4-5.8-2.7-11.7-4-17.5C644.5,68,644.7,66.71,643.5,65.81Z"/><path class="cls-6" d="M311.7,157.41c10.1,0,20.2.1,30.3-.1,2.7,0,3.5.9,3.5,3.5-.1,7.3-.1,14.5,0,21.8,0,2.1-.6,3-2.9,3q-6.6-.15-13.2,0c-2.2.1-3.5-.5-3.1-3,.2-1.4-.1-2.6-1.9-2.6s-1.8,1.4-1.8,2.7c0,11.6,0,23.1-.1,34.7,0,2.6,1,3.2,3.4,3.2,4.7-.1,4.7,0,4.7,4.6s-.1,9.3.1,13.9c.1,2.7-.6,3.7-3.5,3.7q-15.75-.15-31.5,0c-2.4,0-3.4-.7-3.3-3.2.1-5.3.1-10.5,0-15.8-.1-2.5.9-3.3,3.3-3.2,4.8.1,4.8,0,4.8-4.8v-32.5c0-1.4.4-3.2-1.9-3.2-2.1,0-1.8,1.7-1.7,3,.1,1.9-.8,2.6-2.6,2.6-4.6-.1-9.3-.1-13.9,0-2.1,0-2.7-.9-2.7-2.9.1-7.4.1-14.7,0-22.1,0-2.5.8-3.3,3.3-3.3,10.1,0,20.4-.1,30.7,0Z"/><path class="cls-7" d="M550.6,86.81V26.51c0-3.7.3-4,3.9-3.9,6.2.2,12.4.5,18.6.5,10.8.2,17.7,6.1,18.8,16.8a188.54,188.54,0,0,1,0,36.8c-.5,4.9-2.5,9.3-6.7,12.3-1.6,1.1-1.9,2.3-1.5,4.3,2,10.8,3.8,21.7,5.7,32.6,1.2,7.2,2.3,14.5,3.7,21.7.6,3-.4,3.8-3.2,3.6a40.06,40.06,0,0,0-6,0c-2.5.3-3.3-.9-3.6-3.1-1.5-10.1-3-20.1-4.5-30.2-1.2-7.6-2.4-15.1-3.5-22.7a2.53,2.53,0,0,0-2.8-2.4H567c-3.9,0-4.2.2-4.2,4v51.7c.1,1.8-.6,2.7-2.6,2.6-11.4-.3-9.4,1.8-9.4-9.1C550.6,123.91,550.6,105.41,550.6,86.81Z"/><path class="cls-7" d="M701.3,86.41v44.5c0,2.7.2,5.4,2.4,7.6a7.82,7.82,0,0,0,8.9,2.2,8,8,0,0,0,5.6-7.6c.3-9.2.1-18.5.1-27.8,0-1.8-.9-2.4-2.5-2.4-2.3-.1-5.1,1.1-6.7-.6s-.3-4.7-.6-7c-.4-2.9.9-3.9,3.8-3.8,4.7.2,9.5.1,14.2,0,2.5-.1,3.6.7,3.6,3.4-.1,18.2,0,36.4-.1,54.6,0,1,.3,2.2-1.2,2.5s-1.8-.8-2.2-1.7a23.86,23.86,0,0,1-1.2-2.2c-.7-1.6-1.9-1.9-2.8-.5-2.4,3.3-6,4.5-9.5,5.1-7.3,1.2-15.2.5-19.9-6.1-3.2-4.5-4.1-9.7-4.2-14.9-.2-29.5-.2-58.9,0-88.4,0-6.1,1-12.2,6.1-16.7,3.1-2.7,6.4-4.6,10.7-4.4a54.19,54.19,0,0,0,5.7,0c10.5-.6,15.6,6.8,16.8,14.4,1.4,9.2.4,18.5.6,27.7,0,.5-.2,1.3-.5,1.4-2.8,1.1-5.8.7-8.7.4-2.1-.3-1.4-2.5-1.4-4-.1-6.7-.2-13.5-.2-20.2,0-3.3-1.3-6.1-4.5-7.3-3-1.1-6.3-1.4-9.3.7-2.3,1.6-2.8,3.7-2.8,6.3v44.8Z"/><path class="cls-7" d="M404.6,121.21c0-4.6.1-9.3,0-13.9-.1-2.3.8-3.3,3.1-3.2,9.6.3,8-1.5,8.2,7.8.1,6.8.1,13.7.2,20.5.1,3.9,3,7.8,6.3,8.5a8.41,8.41,0,0,0,9.4-4.1,6.58,6.58,0,0,0,.7-3c0-7-.1-14.1.2-21.1.3-6.2-2.1-10.9-6.2-15.2-5.5-5.7-10.8-11.4-16.3-17.1a17.4,17.4,0,0,1-5.1-13c.3-9.5.1-18.9.1-28.4s5.9-16.4,15.4-17c4.7-.3,9.5-.7,14.2,1.3,4.9,2.1,7.3,5.8,8.4,10.6a55.09,55.09,0,0,1,1.3,12.8c-.1,5.5-.1,10.9,0,16.4.1,2.2-.8,3-2.9,3-10.4-.2-8.2,1.2-8.5-8.1-.2-5.6-.1-11.1-.2-16.7-.1-3-1.4-5.8-4.2-6.8a8.6,8.6,0,0,0-8.7.9,7.45,7.45,0,0,0-2.9,6.3c.1,8.1.3,16.2.2,24.3,0,2.8,1.5,4.7,3.1,6.6,5.2,6.3,11,12.1,16.8,18a24.43,24.43,0,0,1,7.4,18.4c-.2,9,.7,18.1-.1,27.1-1,11-6.9,16.3-17.8,16.7-4.1.1-8.2.2-12-1.5-6.9-3.2-9.1-9.3-9.7-16.1-.7-4.7-.3-9.4-.4-14Z"/><path class="cls-8" d="M641,200.11c0,5.8.1,11.6,0,17.3,0,2.3.6,3.2,3.1,3.1,5.1-.1,5.1,0,5.1,5.2,0,4.6-.1,9.2,0,13.9.1,2.4-.9,3.1-3.2,3.1-10.8-.1-21.6-.1-32.5,0-2,0-2.8-.6-2.8-2.7.1-5.6.1-11.1,0-16.7-.1-2.3.9-3,3-2.8a20.85,20.85,0,0,0,2.5,0c1.8.1,2.7-.7,2.7-2.6,0-11.9,0-23.7.1-35.6,0-2.2-1.5-2.4-3.2-2.5-4.9-.3-4.9-.3-4.9-5.3,0-4.7,0-9.5-.1-14.2,0-2.1.7-3,2.9-3,10.7.1,21.4.1,32.2,0,2.3,0,3.3.8,3.3,3.1-.1,5.4-.1,10.7,0,16.1,0,2.6-1,3.5-3.6,3.4-4.4-.2-4.4,0-4.5,4.4-.1,5.3-.1,10.5-.1,15.8Z"/><path class="cls-9" d="M504.3,86.91V26.61c0-2.8.7-4,3.7-3.9,8.7.2,17.5.1,26.2,0,2.9,0,3.9.9,3.9,3.8-.1,8.5,0,8.5-8.5,8.6-3.5.1-6.9.1-10.4.1-2,0-2.8.7-2.9,2.8-.1,13-.2,26.1-.3,39.1,0,2.1.9,3,3.1,2.9,3.3-.1,6.5,0,9.8-.1,2.1,0,3.1.7,3,2.9s-.1,4.2,0,6.3-.8,3.1-3,3c-3.2-.1-6.3.1-9.5-.1-2.4-.1-3.4.6-3.4,3.2.1,13.6.1,27.1,0,40.7,0,2.7.7,3.7,3.6,3.6,5.5-.2,10.9,0,16.4-.1,2.2,0,2.9.7,3,2.9.1,8.9.2,8.9-8.7,8.9-7.4,0-14.7-.2-22.1.1-3.2.1-3.9-1.1-3.9-4C504.4,127.31,504.3,107.11,504.3,86.91Z"/><path class="cls-7" d="M479.6,93.31c0,18.1-.1,36.2.1,54.3,0,3.1-.9,4.2-4,3.9a16.2,16.2,0,0,0-4.4,0c-3.2.5-3.9-1-3.9-3.9.1-36.1.1-72.1.1-108.2,0-4.2,0-4.2-4.2-4.2h-6.9c-2.1.1-3.1-.8-3.1-3s.1-4.2,0-6.3.8-3.1,3-3.1H491c2,0,2.9.8,2.9,2.8-.3,11.7,1.7,9.4-9,9.6-5.9.1-5.3-.5-5.3,5.2v52.9Z"/><path class="cls-9" d="M617.5,87.21v60.2c0,4-.1,4.1-4,4.1-9.3-.2-8.2,1.6-8.2-8.1q.15-58.35.2-116.7c0-2.8.9-3.7,3.6-3.7,9.7,0,8.3-1.6,8.4,8.1C617.6,49.71,617.5,68.51,617.5,87.21Z"/><path class="cls-10" d="M366.1,243.21c-4.1,0-8.2-.1-12.3,0-2.5.1-3.7-.7-3.6-3.4.1-5.5.1-10.9,0-16.4,0-2.1.6-3.5,2.9-3.6,1.5,0,1.6-1,1.6-2.1v-35c0-1.1,0-2-1.5-2.2-2.2-.3-2.8-2.1-2.8-4-.1-5.6-.1-11.1-.1-16.7q0-3.3,3.3-3.3h25.5c2.3,0,3.2,1.3,3.3,3.4.1,5.8,0,11.6,0,17.3a3.33,3.33,0,0,1-2.4,3.3c-3.5,1.2-1.4,4.1-1.7,6.1-.3,2.2,1.8,1.6,3,1.6,3.8.1,7.6,0,11.4.1,1.8,0,2.8-.5,2.6-2.5-.2-2.3,1-5.1-2.8-5.8-.9-.2-1-1.5-1-2.5v-17.3c0-2.6,1.2-3.7,3.9-3.6q11.85.15,23.7,0c2.9,0,4,1.1,3.9,3.9-.1,5.5,0,10.9,0,16.4,0,1.3.2,2.9-1.3,3.2-2.7.5-2.4,2.3-2.4,4.3v32.2c0,1.7-.3,3.4,2.2,3.6,1.4.1,1.5,1.5,1.5,2.8v17.7c0,1.9-.9,2.7-2.7,2.7H394.4c-2,0-2.9-1-2.9-2.9v-17.7a2.81,2.81,0,0,1,1.1-2.5c.8-.6,2.4.2,2.5-1.4q.15-3,0-6c0-1.1-.9-1.2-1.8-1.2H380.4c-1.4,0-2.3.7-2.1,2.1.2,2.6-1.4,6.1,3.1,6.9,1.1.2,1,2,1,3.1.1,5.5,0,10.9,0,16.4,0,2.3-1.2,3.1-3.4,3.1C374.7,243.21,370.4,243.21,366.1,243.21Z"/><path class="cls-11" d="M337.1,151c-1.6,1.2-9.5,1.7-11.1.7a2.19,2.19,0,0,1-1.1-1.8c-.1-1.4-.3-2.7-.3-4.1V86.51c0-3.3.6-6.7-.5-10.6-1,6.9-1.8,13.2-2.7,19.5-1.7,11.3-3.3,22.6-5,33.9-.9,6.2-2,12.4-2.7,18.7-.4,3.2-1.7,4.3-4.9,4.2-7.4-.2-7.7,0-9-7.4-1.7-10.2-2.8-20.5-4.3-30.8-1.6-11.2-3.7-22.3-4.7-33.6a4.9,4.9,0,0,0-1.7-4v4c.1,16.1,0,32.2.2,48.3.1,6.4.3,12.8.4,19.2,0,3-1.3,4.4-4.1,4.1s-5.9,1.1-8.4-1.1a2.07,2.07,0,0,1,1-.6c1.9-.5,3.8-.2,5.7-.3,3.1-.1,3.6-.6,3.7-3.8.1-2.7.1-5.5,0-8.2-1.3-22.7-.2-45.4-.6-68.1v-.3c.1-1.4-.1-3.5,1.6-3.7,1.9-.2,1.9,1.9,2.2,3.2,2.1,11.3,3.4,22.7,5,34,.8,5.2,1.5,10.4,2.3,15.6,1.3,9.2,2.9,18.3,4,27.4.3,2.5,1.2,3.8,3.9,3.9,4.5.1,5.4-.2,5.8-3.5,1-7.7,2.3-15.4,3.4-23.1,1.3-8.7,2.6-17.5,3.8-26.2,1.1-8.2,2.8-16.4,3.4-24.7.1-2.1.7-5,3.1-4.7,2.2.3,1.6,3.2,1.4,5.1a32.4,32.4,0,0,0-.2,4.4v67.6c.1,4.6.5,5,5.1,5a16.32,16.32,0,0,1,4.4.3A3.63,3.63,0,0,1,337.1,151Z"/><path class="cls-12" d="M337.1,151c-.3,0-.5-.1-.8-.1-1.2-1.7-.8-3.6-.8-5.5V29.61c0-5.2,0-5.3-5.3-5.2-2.7.1-5.9-1.2-8,.4-2.3,1.7-1.3,5.1-1.7,7.7-3,20.3-5.5,40.6-8.3,60.9-1,7.6-1.8,15.2-3.2,22.8a5.09,5.09,0,0,1-.6,2.1c-.8,1.3-1.8,1.4-2.7.1a8.9,8.9,0,0,1-1.2-3.9c-1.5-11.6-3.1-23.1-4.6-34.7-1.4-10.5-3-21-4.4-31.5-.8-6.5-1.9-12.9-2.5-19.4-.4-4.2-.9-4.6-5.1-4.6-2.2,0-4.4-.1-6.6.1a2.44,2.44,0,0,0-2.6,2.5c-.1,1.3-.1,2.5-.1,3.8v114.5c0,1.9.4,3.8-.8,5.5-.3,0-.5.1-.8.1h0a3.12,3.12,0,0,1-.3-2.1V98.91a4.13,4.13,0,0,1,.2-1.9V25.41c0-2.4.8-3.5,3.3-3.4,3.5.1,6.9.1,10.4,0,2.6,0,3.8,1.3,4.1,3.8,1.4,12.1,3.3,24.1,4.8,36.2,1.3,10.5,3,21,4.1,31.5a177,177,0,0,0,3.6,21.4c1.3-10.2,2.5-20.4,3.9-30.6.6-4.6,1.2-9.2,1.9-13.7,1.6-9.8,2.5-19.7,4.1-29.6q1.2-7.8,2.1-15.6c.3-2.4,1.3-3.8,3.7-3.8h11.4a2.62,2.62,0,0,1,2.7,1.7,6.59,6.59,0,0,1,.3,3.1v121.4a5.78,5.78,0,0,1-.2,3.2Z"/><path class="cls-13" d="M371.9,22.11c6.9,0,7.1,0,8.1,6.8s1.7,13.5,2.6,20.3c1,7.3,2.1,14.5,3.1,21.8.9,7.1,1.6,14.2,2.5,21.2,1.5,12,2.8,24,4.6,35.9,1,6.2,1.2,12.5,2.7,18.7,1,4.3.2,5.2-4.2,5.3h-4.4c-3.7,0-4.8-.9-4.9-4.5-.1-5-1.5-9.7-1.8-14.7-.1-1.6-1-2.1-2.5-2.1-4.4,0-8.8.1-13.2,0-2.4-.1-2.4,1.6-2.6,3.1-.7,4.8-1.4,9.6-1.9,14.4-.3,2.9-1.7,4.1-4.6,3.9-1.7-.1-3.4,0-5,0-3.4-.1-4.1-1-3.6-4.3,1.5-10,2.9-19.9,4.3-29.9,2.1-15.5,4.2-31,6.2-46.4,1.5-11.2,2.9-22.5,4.6-33.7.6-4.1,1.3-8.3,1.8-12.5a3.43,3.43,0,0,1,3.9-3.3Z"/><path class="cls-14" d="M257.6,173.11c-.3-3.3,1.1-6.3,1.5-9.5,1.9-16.5-1.3-31.7-11.1-45.2a58.69,58.69,0,0,0-15.9-15.1,10.69,10.69,0,0,1-5.1-9.7c.1-10.5.5-21-.2-31.5-.6-8.7-4.4-16.1-9-23.1-7.9-12-19.5-19.2-32.3-24.9a171.7,171.7,0,0,0-27.7-9.7,114,114,0,0,0-19.2-2.8c-1.1-.1-2.1-.1-2.7-1.2,6.3-.7,12.3,1.2,18.3,2.4,11.4,2.1,22.1,6.3,32.7,10.9,17.5,7.6,31.1,19.2,38.4,37.2a36.21,36.21,0,0,1,2.8,13.5c-.1,9.8.1,19.6-.1,29.3a9.46,9.46,0,0,0,4.5,8.8,62.24,62.24,0,0,1,22.7,26.3c5.3,11.5,7.2,23.6,4.9,36.1C259.3,167.61,259.6,170.61,257.6,173.11Z"/><path class="cls-15" d="M143.3,267.61a3.6,3.6,0,0,1,3.5-1.7c6.3,0,12.2-2.1,18-3.9a103.79,103.79,0,0,0,23-10.5,113.67,113.67,0,0,0,33.6-30.8c.6-.8.9-1.9,2.2-2.1a87.24,87.24,0,0,1-17.3,20.5,111.76,111.76,0,0,1-44.3,24.8C155.9,265.61,149.7,267.51,143.3,267.61Z"/><path class="cls-11" d="M337.1,151V23.41c.8.9.5,2,.5,3v121.3C337.6,148.81,338,150,337.1,151Z"/><path class="cls-16" d="M751.7,23.51c-1.7.2-.9,1.1-.6,1.9-2.3.7-4.4-1.5-6.3-.7,1.7.1,4-.1,5.2,2.2-.4,1.1-1.7,1.1-2.5,1.7-1.2,0-2.5,0-3.7-.1-.7-.3-1.7-1.1-1.6.6a63.16,63.16,0,0,1,.1,8.7c-.1,2.7,2,.1,2.6,1,.7,2-.4,2.8-2.1,3a2.75,2.75,0,0,1-3.2-2.4,26.6,26.6,0,0,1-.2-6.9,9.42,9.42,0,0,0-1.6-5.9c1.8-.6,2.3-3.1,4.5-3.2,1.4-1,3-.3,4.4-.5-1.4-.2-3,.4-4.4-.5l-3.9,1.2C741.5,20.61,748.9,20.61,751.7,23.51Z"/><path class="cls-11" d="M277,97.11c0,17.9.1,35.9.1,53.8-.8-.8-.6-1.8-.6-2.7V99.81A6.46,6.46,0,0,1,277,97.11Z"/><path class="cls-17" d="M83.3,247.61a103.46,103.46,0,0,1-44-42.4c-11.4-20.5-15.2-42.6-11.9-65.7,3.1-21.6,12.5-40.3,27.2-56.3A101,101,0,0,1,91,58c11.1-4.5,22.7-7.5,34.9-7.5,8.5,0,17,0,25.4,1.8a104.62,104.62,0,0,1,49.5,25.8,104.62,104.62,0,0,1,30.3,101.4c-4.7,19.1-14.2,35.2-27.9,49.1a145.39,145.39,0,0,1-15.5,12.7,104.35,104.35,0,0,1-47.2,17,97.88,97.88,0,0,1-39.9-3.9l-6-1.8h0C90.8,251,87,249.41,83.3,247.61Z"/><path class="cls-17" d="M130.5,17.31c12.9-.2,25.6,3.2,38,7.5,6.8,2.4,13.7,4.7,19.7,8.9,9.6,6.7,17.4,14.7,21.4,26,1.4,4,1,8.1,1,12.2a2,2,0,0,1-.5,1.4c-.8.5-1.3-.4-1.8-.9a101.47,101.47,0,0,0-18.4-14.2,112,112,0,0,0-36.2-14.6,114.27,114.27,0,0,0-18.4-2.3q-47.55-1.65-82.5,30.9c-.8.7-1.4,2.2-2.8,1.5-1.2-.6-.4-1.9-.5-2.9-.9-14.8,7.7-24.6,17.9-33.5,8-6.9,17.7-10.1,27.5-13.5a152.13,152.13,0,0,1,25.7-6C123.8,17.21,126.9,17.61,130.5,17.31Z"/><path class="cls-18" d="M94.7,252.61c2.6-.6,4.7,1,6.9,1.7,11.2,3.5,22.7,4.4,34.2,3.9a96.83,96.83,0,0,0,32.1-7,101.73,101.73,0,0,0,33.8-21.8,1.94,1.94,0,0,1,1.6-.8c-4.2,5.5-9.8,9.4-15.4,13.1-20.5,13.8-43.2,19.3-67.8,17.2a101.73,101.73,0,0,1-22.4-4.8A4.36,4.36,0,0,1,94.7,252.61Z"/><path class="cls-18" d="M83.3,247.61a43,43,0,0,1,11.4,5A28.45,28.45,0,0,1,83.3,247.61Z"/><path class="cls-19" d="M737.9,26.61c2.2-.1,2.5,1.5,2.5,3.1.1,3,0,6-.1,9.1a2,2,0,0,0,2.6,2.3c1.4-.2,2.5-.8,1.2-2.4-.1-.1-.2-.3-.3-.4-.3-1.9-.8-3.9,2.3-3.3,1.3.8,1.7,2.3,2.6,3.4,1,1.4,1.8,1,2.4-.4,1.5-.3,2.2.7,2.6,1.9-3.8,6.8-14.5,5.4-17.3-.8A11.27,11.27,0,0,1,737.9,26.61Z"/><path class="cls-20" d="M753.7,39.91c-1.1-.4-1.5-1.7-2.7-1.8-1.4-.4-1.5-1.7-2.1-2.7a3.11,3.11,0,0,1,.7-2.8,4.13,4.13,0,0,0,.5-4,1.72,1.72,0,0,1-.2-1.2c-2.2-2.9-5.7-1.3-8.4-2.6,3.3-.6,6.6-1.2,9.7.7,1.1.8,2.2,1.5,2.6,2.9.1,1.6,1.6,2.8,1.6,4.6a14.1,14.1,0,0,1-1.7,6.9Z"/><path class="cls-21" d="M742.3,22.31c2.3-.3,4.7-.4,7,1.1h-7A2,2,0,0,0,742.3,22.31Z"/><path class="cls-19" d="M753.7,39.91a14.61,14.61,0,0,0,.1-11.6C756.5,32.71,756.4,36.31,753.7,39.91Z"/><path class="cls-22" d="M562.7,58.61c0-6.7.1-13.5-.1-20.2-.1-2.7,1-3.6,3.5-3.3a42.64,42.64,0,0,0,5,.2c5.8.2,9,3.5,9.1,9.3.1,8.8.2,17.7.2,26.5.1,8.1-3.2,11.4-11.2,11.4-7.3,0-6.7.7-6.7-6.5C562.7,70.21,562.7,64.41,562.7,58.61Z"/><path class="cls-4" d="M366.1,242.41c-3.9,0-7.8-.1-11.7,0-2.1.1-3.1-.5-3-2.8.1-5.4.1-10.7,0-16.1,0-1.5.1-2.8,2.1-2.7,1.7.1,2-1.1,2-2.5V182c0-1.3-.3-2.4-1.8-2.6-2.1-.2-2.2-1.7-2.2-3.2,0-5.3,0-10.5-.1-15.8,0-1.9.7-2.7,2.6-2.6h24.3c1.9,0,2.7.7,2.7,2.6v16.1c0,1.4-.3,2.5-1.8,3-4.3,1.6-1.9,5.2-2.1,7.8s2.4,2,4.1,2c3.9.1,7.8-.1,11.7,0,2.5.1,3.5-1,3.3-3.4-.1-1.4,0-2.7,0-4.1,0-.9-.2-2-1.1-2.1-3.4-.4-2.7-2.8-2.7-4.9,0-4.7.1-9.5-.1-14.2-.1-2.2.7-3,2.9-2.9q11.85.15,23.7,0c2.2,0,2.9.9,2.9,3-.1,5.1,0,10.3,0,15.5,0,1.4,0,2.9-1.8,3.2-2,.4-2.3,1.7-2.3,3.5.1,11.5.1,22.9,0,34.4,0,1.9.3,3.3,2.5,3.5,1.4.1,1.5,1.2,1.5,2.3,0,5.6-.1,11.1,0,16.7,0,2-.9,2.5-2.7,2.5-8.1,0-16.2-.1-24.3,0-1.8,0-2.4-.6-2.4-2.4.1-5.7,0-11.4,0-17,0-1.2.2-2.1,1.7-2.1,1.9-.1,2.1-1.4,2.2-2.8.5-7.4.5-7.4-6.7-7.4H380c-2.1,0-3.1,1-3.1,3.1v4.7c0,1.3.3,2.3,1.9,2.4,1.8.1,2.2,1.2,2.2,2.8,0,5.4-.1,10.7,0,16.1.1,2.3-.9,2.9-3,2.8C374.1,242.31,370.1,242.41,366.1,242.41Z"/><path class="cls-8" d="M277.9,150.91c-.1-1.3-.2-2.5-.2-3.8,0-40.1.1-80.1,0-120.2,0-2.9.9-3.7,3.6-3.5a60.28,60.28,0,0,0,8.5,0c2.3-.1,3.5.6,3.8,3,.6,5.1,1.4,10.2,2.1,15.3,1.9,14.3,3.6,28.5,5.5,42.8,1.3,10.1,2.8,20.2,4.3,30.3.2,1.5.2,3.1,1.3,4.4,1.2-.4,1.1-1.3,1.2-2.1,1.9-14.5,3.8-28.9,5.7-43.4,2.1-15.9,4.3-31.8,6.4-47.8.3-2,1.1-2.8,3-2.8,3.7,0,7.4.1,11,.1,1.8,0,2.5.7,2.4,2.4-.1,1.4,0,2.7,0,4.1v116.7c0,1.5-.2,2.9-.2,4.4-2.6.1-5.3.1-7.9.2-1.6.1-2.3-.6-2.4-2.2,0-.5-.1-1.1-.1-1.6V74c0-2,.7-4.1-.5-6.3a7.93,7.93,0,0,0-2.1,5.3c-1.1,11.2-3.1,22.2-4.8,33.3-1.5,9.4-2.7,18.9-4,28.4-.6,4.5-1.3,8.9-1.9,13.4-.3,2.2-1.4,3-3.6,2.9-6.8-.2-6.9-.1-7.9-6.9-2.2-14.5-4.3-29.1-6.4-43.6-1.6-10.9-3.3-21.8-5-32.7-.1-.7-.1-1.5-1-2-1.2,2.2-.8,4.5-.8,6.7.1,24.4.3,48.8.4,73.2v2.5c.1,1.9-.6,3-2.8,2.8C283,150.91,280.5,151,277.9,150.91Z"/><path class="cls-7" d="M372,23.31c6.1,0,6.1,0,6.9,5.9,2.6,19.4,5.3,38.7,7.8,58.1,2.5,19.6,4.9,39.2,7.4,58.8.1.6.2,1.3.3,1.9.8,2.4-.2,3.2-2.6,3.2-8.4.1-8.4.1-9.3-8.2-.4-3.2-.8-6.5-1.2-9.7-.3-2.5-1.3-3.7-4-3.6q-6.15.3-12.3,0c-3-.2-4.2,1.3-4.4,4q-.6,7.35-1.8,14.7c-.4,2.1-1.1,2.8-3.2,2.8-7.5,0-7.8.1-6.9-7.2,1.3-11,3-22.1,4.5-33.1,1.4-10.6,2.8-21.2,4.3-31.9,2-14.2,4.1-28.5,6.1-42.7.4-3.1.8-6.3,1.1-9.4.3-2.7,1.5-4,4.3-3.5C369.9,23.51,370.9,23.31,372,23.31Z"/><path class="cls-23" d="M749.8,27.31l.6.6a4.29,4.29,0,0,1-.9,5,1.64,1.64,0,0,0-.3,2.4c1.2.5.8,2,1.7,2.6.1.7,1.3,1.4.3,2.2-.8.7-1.6.3-2.5-.4-1.4-1.2-1.5-3.1-2.8-4.3a2.38,2.38,0,0,1,.5-3.3c.7-.7,1.3-1.3.9-2.4a1.29,1.29,0,0,1-.1-1.2C747.5,26.91,748.7,27.21,749.8,27.31Z"/><path class="cls-24" d="M744.1,38.71c-.3,1.1-.7,2.1-2.1,1.6-1.1-.4-.7-1.2-.7-2.1a38.71,38.71,0,0,0-.1-9c-.1-.9-.7-1.9.6-2.4,1.5-.5,2,.5,2.3,1.7,1,1,.9,2.3.9,3.6.3,2.3-2.1,4.1-.9,6.6Z"/><path class="cls-19" d="M744.2,32.31a8.13,8.13,0,0,1,0-3.8c1.1-1.6,2.1-.8,3.1,0l.6.6c.9,1.4,0,2.3-1,3C746.1,32.81,745.1,33.81,744.2,32.31Z"/><path class="cls-5" d="M55.5,100.41c6.9-10.1,15.9-18,26.2-24.4a89.67,89.67,0,0,1,58.4-13.1,89.61,89.61,0,0,1,46,18.6c1.3,1,2.6,2.1,3.9,3.1,1.8,2.6,4.3,4.6,6.5,6.8,9.8,9.7,16.1,21.5,20.7,34.4a93.36,93.36,0,0,1,4.9,28.6c.2,5.7-.7,11.5-1.5,17.2-.3,1.9-1.8,2.1-3.3,2.1H203.1a4.23,4.23,0,0,0-3.4,1.2,2.62,2.62,0,0,0,1.5,4.5c4.5.9,9,.6,13.5.6,3.7,0,3.8.3,2.9,3.8-.7,3-2.3,4.2-5.3,3.8a54.19,54.19,0,0,0-5.7,0c-3.2,0-6.5-.2-9.5,1.1-1.7-.6-1.3-1.9-.9-3.1,1.2-2.5-.5-4.9-.1-7.4,0-1,0-2-.1-3-.5-1.4-1.8-1.2-2.9-1.2H178.7c-1.1,0-2.3,0-3.1,1-1.1,1.4-1.9.6-2.7-.5a2.88,2.88,0,0,1-.1-2.4,3.51,3.51,0,0,1,.5-.8c1.2-1.7.7-2.8-1.2-3.5-5.9-.3-11.8-.1-17.6-.1-1.7.1-3.8.8-4.2-2,.2-1.8.6-3.6-.2-5.4-.5-1.1-.2-2,1.3-2.2a7.05,7.05,0,0,1,2.5.6,53.11,53.11,0,0,0,12.6,0,32.61,32.61,0,0,1,5.4-.3c2.5-1.6,2.6-2.7.4-4.4-6.4-.2-12.9-.3-19.3.1a3,3,0,0,1-3-.6,2.48,2.48,0,0,1,.1-1.9,7.49,7.49,0,0,0,.1-4.9,5.92,5.92,0,0,1-.1-1.9,74.53,74.53,0,0,0-.1-11.6,2.81,2.81,0,0,1,.1-2.8c1.3-2.4-.5-4.8.1-7.3-.6-4,1.1-8.1-.7-12-.5-1,.4-1.7.7-2.6.7-2.2.1-3.2-2.3-3.3-5-.1-10.1,0-15.1,0-1.2,0-2.4.2-2.6,1.7s.8,2.2,2.3,2.4c.7.1,1.7.2,1.7,1.1s-1,.8-1.7,1.1a14.58,14.58,0,0,1-7.5.9c-5-.7-10-.2-15.1-.2-1.6,0-3,.2-3,2.3s1.3,2.4,2.9,2.3c6.1-.3,12.1.7,18.2-.6,1.8-.4,2.5.7,2.4,2.4s-.1,3.4-.2,5a4.06,4.06,0,0,1-.5,2.1,1.46,1.46,0,0,1-.9.6c-6.6-1.5-13.4-.5-20.1-.7a1.83,1.83,0,0,0-1.8,1.1c-.1.3-.2.6-.3,1-1,1.7,1.2,4.1-.8,5.3-1.5.9-3.4-.5-5.2-.5-4.7.2-9.4,0-14.2.1-1.3,0-2.6.4-2.9,1.9-.2,1.3-.5,2.8,1.5,3.2,6.4,0,12.7.4,19-.3,2.4-.1,2.9,1.3,2.7,3.3v3.9c.1,1.8-.5,2.8-2.5,2.7-7.9-.2-15.7-.6-23.6.5-5.1.1-10.3,0-15.5,0a20.9,20.9,0,0,0-2.5.1c-1,.1-2.3.2-2.2,1.7.1,1.3,1.3,1.3,2.2,1.3,3.8.2,7.6.1,11.4.1h5.4c4.3-.3,4.5-.2,4.7,2.9-.1,1.8-.6,3.5.1,5.3a1.46,1.46,0,0,1-.6,1.9c-6.6-.6-13.2.3-19.7-.1-2.6-.1-3.6,1-3.1,3.4.6,2.9-.6,5.8.6,8.7.5,1.3-.3,2.6-1.9,3.6-.8-2.9-3-2.7-5.3-2.7-3.8.1-7.6,0-11.3,0-2.4.1-3.6-1-4-3.4a95.7,95.7,0,0,1,2-39.5A93.44,93.44,0,0,1,55.5,100.41Z"/><path class="cls-25" d="M55.5,100.41c-2.3,4.1-4.5,8.1-6.8,12.2-6.1,11.2-9,23.3-10.2,35.9-.7,7,.5,13.8.7,20.7.1,2.7,1.1,4.2,4.3,4,4.3-.3,8.6,0,12.9-.1,1.9,0,3.1.5,3.1,2.8,1.4-1.6,1.2-2.8.8-4.6-.6-3.2-.2-6.6-.2-9.9,0-1.3,1-1.7,2.2-1.8,5.9-.2,11.8.2,17.6-.3,1.3-.1,2.6.6,3.9,1,1.3.9.5,2.6,1.4,3.6a2.18,2.18,0,0,0,.8.5c5,.3,10.1.1,15.1.1a2.11,2.11,0,0,0,1.7-.6c.8-1.2.4-2.5.6-3.7.6-2,.3-4.3,1.3-6.2a1.36,1.36,0,0,1,1.5,0c.7,2.6,3,4.9,1.1,8.1-1,1.7,1,2.4,2.6,2.5,4.4.1,8.8,0,13.2,0a12.22,12.22,0,0,1,3.8.3c1.5.6,1.5,2.4,2.6,3.3a3.55,3.55,0,0,1,.4.9,2.09,2.09,0,0,1-.8,2.3,1.14,1.14,0,0,1-1.4-.4c-1-2.2-2.8-2.9-5.1-2.8-3.6.1-7.1,0-10.7.1-1.3,0-3.4-.3-3.4,1.3-.1,1.8,2.1,1.2,3.3,1.3,3.9.1,7.8,0,11.7,0a9.19,9.19,0,0,1,3.7.4,1.69,1.69,0,0,1,.1,2.7c-4.2,1-8.5.3-12.8.5-1,.1-2.1,0-3.1,0-4.3,0-4.7.7-3.1,4.7a2.57,2.57,0,0,1,.1,1.5,1.93,1.93,0,0,1-.5.9c-1,.8-2.1,1.5-3.5,1.1-1.6-.9-3.5-.7-5.2-.6-4.7.2-9.4-.5-14,.4a4.19,4.19,0,0,1-1.6.4c-7.2-1.4-14.3-1.1-21.5-.4a3.38,3.38,0,0,1-2,.2c-.5-1.1-.7-2.1-2.6-1.6-3.5.9-7.2.3-10.9.3-1.6,0-3.1.2-4.1,1.7a.6.6,0,0,1-.8,0c-1.4-2.7-.3-3.6,2.4-3.6,4,0,8-.2,12-.2,1.8,0,2.7-.6,2.7-2.5s-.7-2.7-2.6-2.6c-4.4.1-8.8,0-13.2.1-2.8.1-4.1-.8-4.4-3.9-.7-7.3-1.8-14.6-1.1-22a96.78,96.78,0,0,1,16.4-46.2A2.87,2.87,0,0,1,55.5,100.41Z"/><path class="cls-26" d="M59.8,215.41l-.6-.6A3.72,3.72,0,0,1,59,213c.3-2.7-.6-4.4-3.8-4.8,3.3-.7,4.8-2.3,3.5-5.5-2.1-1.2-4.5-.4-6.7-.6-.7-.1-1.7-.1-1.8-.9-.1-1.1,1-1.1,1.8-1.1h2.8c4,0,4.1-.1,3.8-4.3-.6-1-1.1-2-.3-3.2a7.58,7.58,0,0,0,.8-3.6,1.06,1.06,0,0,1,1.3-.3c1,1.3.7,3,1.1,4.5a7.84,7.84,0,0,1,.2,1.4c0,.9-.3,1.9-.3,2.8,0,1.7.7,2.6,2.4,2.5,5.3-.1,10.6.3,15.9-.2,1.9-.9,1.6-2.6,1.1-4.1a2.77,2.77,0,0,1,.6-3.2c.7-.6,1.5-1,2.4-.3a4.35,4.35,0,0,1,.6.7,6.12,6.12,0,0,1,.5,1.2,2.88,2.88,0,0,1-.1,1.3c-.3,1.4-2.1,3.3,1,3.8,5.8-.1,11.6.2,17.4-.2a3.4,3.4,0,0,1,1-.1,7.65,7.65,0,0,1,3,.6l1,.3c6,0,12.1.5,18.1-.2a1.89,1.89,0,0,0,.8-1.9c-.5-2.8.3-5.5-.1-8.3,0-.1-.1-.3-.1-.4-.1-.3-.1-.6-.2-.9a9.64,9.64,0,0,1,0-2.4,2.92,2.92,0,0,1,.2-.9c.4-1.1,0-2.2-.1-3.3-.2-1.6-.2-3.3,1.6-4.2,2.1.3,1.8,2.3,2.4,3.6a2.92,2.92,0,0,1-.2.9c-.1.1-.1.3-.2.4a3.39,3.39,0,0,0,.1,3.5c.6.9,1,1.8.4,2.8a6,6,0,0,0-.6,1.1c.1,3.2-.6,6.5.3,9.7a1.91,1.91,0,0,0,1.4.7c5.5-.8,11,0,16.5-.1.6,0,1.1-.5,1.7-.8,1.4-.8,2.7.2,4.1.2,6,0,11.9.2,17.9-.1,2-1,3.5.8,5.3.8,5.8,0,11.7.3,17.5-.2.4-.2.9-.4,1.3-.6a2.34,2.34,0,0,1,1.8-.3c.5.4.8,1,1.4,1.3a47,47,0,0,0,6.5.1c1,0,2.1-.3,2.8.8a.7.7,0,0,1-.4.9c-3.1.8-6.2-.4-9.3.7-1.6,3.1-.9,4.4,2.4,4.6,1,.1,2.1-.3,2.9,1-1.6,1.6-4.4-.7-5.8,1.5h0c-.5,1.3-.7,2.6.3,3.7,1.2,1.3.4,2.2-.3,3.2h0c-1.6,1.8-2.2.2-2.9-.9a4.49,4.49,0,0,1,0-2c.7-3.6.1-4.3-3.4-4.4-1.4,0-2.7.1-4.1,0s-3.8.4-3.8-1.1c0-1.7,2.3-1.1,3.6-1.2,1.1-.1,2.3,0,3.5,0a6.66,6.66,0,0,0,3.1-.4c1.4-.5,1.6-1.6,1.4-2.8s-1.2-1.3-2.2-1.3c-5.7.1-11.4-.4-17.1.3-.5.1-1,.2-1.6.3-.9.1-1.8,0-2.8.1-6.5.2-13-.4-19.5.4a4.85,4.85,0,0,1-1.7,0c-3.7-1.7-7.6-1-11.4-1-2.8,0-5.6-.3-8.4.2-2,.7-1.5,2.3-1.2,3.7.2,1.1.6,2.2,0,3.3a12.92,12.92,0,0,0-.1,3.4,5.85,5.85,0,0,1,.2,1.3,6.55,6.55,0,0,1,0,1.4c-.4,3.7.1,7.5,0,11.2.1.3.1.6.2.9-.1,2.2-.8,4.4,0,6.6a7,7,0,0,1,.1,2.5,8.56,8.56,0,0,0-.2,4.2,3.14,3.14,0,0,1-.5,3.2h0c-.9.7.8,3.3-2,2.6.3-2-1.5-3.5-1.2-5.4a7.87,7.87,0,0,0,0-4.8,14.15,14.15,0,0,1-.2-2.9,26.13,26.13,0,0,0,0-2.8,11.27,11.27,0,0,0-.3-1.8,5.28,5.28,0,0,1,.1-1.3,6.12,6.12,0,0,0,.5-1.2c.9-2.1-.5-4.1-.1-6.1a4.77,4.77,0,0,0-.9-5.1c-.3-1.2.9-1.7,1.1-2.7.4-2.7-1.1-5.3,0-8,.4-.9-.2-1.8-1.3-2.2a139.38,139.38,0,0,0-17.1-.1c-2.3.6-2.5,2.1-1.5,3.8.7,1.3.8,2.3-.3,3.4a2,2,0,0,1-1.7.8,9.53,9.53,0,0,0-5.7-1.2c-4.8.3-9.6-.5-14.3.5a5.91,5.91,0,0,1-1.4.6c-6.5-1.9-13.2-.9-19.8-1.1-2.1,0-3.9.4-3,3.2.4.7,1.2,1,1.7,1.6C62.9,215.81,62.9,215.91,59.8,215.41Z"/><path class="cls-27" d="M198.3,198.91l-1.5.6c-.8-2.9-2.8-3.7-5.7-3.5-3.9.2-7.7,0-11.6.1-1,0-2.4,0-2.5,1.3-.1,1.6,1.4,1.7,2.5,1.7,4.2.2,8.4,0,12.6.1,1.4,0,3-.3,4.2.8-.3.2-.6.7-.9.7-6.2.1-12.3,0-18.5.1-1.4,0-2.3-2.5-3.9-.7-.9-1,.1-2.4-.7-3.5a1.91,1.91,0,0,0-1.4-.7c-6.5.2-13-.6-19.5.6l-1-.3a2.91,2.91,0,0,1-1.1-1.1c-.4-1.4.4-2.2,1.3-3s2-.3,3-.1a122.86,122.86,0,0,0,18.2-.1,1.5,1.5,0,0,0,.9-1.8c-.7-2.5.1-5-.1-7.5,0-.1-.1-.3-.1-.4a3.09,3.09,0,0,1-.2-.8,10.07,10.07,0,0,1-.1-3c0-1,0-2,.1-3a5.85,5.85,0,0,1,.2-1.3.9.9,0,0,1,.6-.6c.7,0,.7,3,2,.4.6-1.1,1.8-.9,2.8-.9,5.4,0,10.7,0,16.1.1,1.3,0,2.9-.3,2.9,1.9-5.4.4-10.7-1-16-.5-1.7.2-4.4-.8-4.3,2.2s2.6,1.9,4.4,1.8c3-.1,6.1-.1,9.1,0a40.06,40.06,0,0,0,6.9-.5c-.7,2.6,1.8,5.1.1,7.7a2.7,2.7,0,0,1-.7-.8c-.5-1-.9-2-2.1-2-5.8,0-11.7-.8-17.5.5-.4.4-.7.9-.3,1.4a3.76,3.76,0,0,1-.1,4.6c-1.2,1.8-.3,3.5,1.8,3.5,5.7,0,11.5.6,17.1-.3,1.1-.8.9-2,1.1-3.1a2.28,2.28,0,0,1,.6-1.2c5.3-2.6,10.9-.8,16.4-1.3,1.3-.1,2.8.2,3.3-1.6,1.4-5.3,2.2-4.6-3.3-4.8-3.8-.1-7.6-.3-11.3-.4-2.2,0-3.8-.7-3.7-3.2s1.3-3.8,3.7-3.8c4.9-.1,9.9-.2,14.8,0,2.6.1,3.4-.8,3.5-3.4.3-5,1.5-9.9,1.3-15-.8-25-9.1-46.8-27.1-64.7-1.7-1.7-3.9-2.9-4.6-5.4a83.14,83.14,0,0,1,18.8,21.7,91.54,91.54,0,0,1,13.8,48.3,82.83,82.83,0,0,1-1.6,17.2c-.4,1.8-1.4,2.3-3.1,2.3-5,0-10.1.2-15.1.2-1.7,0-3.2.2-3.3,2.4s1.6,2.2,3.1,2.2c4.4.2,8.8.3,13.2.4,3.1.1,3.6.9,2.6,3.7-1.9,5.2-1.9,5.2-7.5,5.2-3,0-6.1.1-9.1,0-2.3-.1-3.4.7-2.9,3.1.4,1.7,1.6,1.9,3.1,1.9,2.8-.1,5.7-.1,8.5,0,1,0,2.4-.2,2.4,1.3s-1.4.9-2.3.9a74.77,74.77,0,0,1-8.2,0C199.6,195.11,198.3,196.11,198.3,198.91Z"/><path class="cls-28" d="M84.6,209.11c.7-1.2,1.9-.7,2.8-.7,4.3,0,8.6.1,12.9-.1a7,7,0,0,1,5.7,1.9c1,.7.9,2.4,2.5,2.5,6.2.9,12.4.4,18.6.2a1.91,1.91,0,0,1,1,.5c-.6.6-1.2,1.3-1.8,1.9-1.1,1.2-2.5.9-3.8.9-4.4.1-8.8-.1-13.2.2a4.73,4.73,0,0,0-1.2.7c-1.2,2.9.9,6.1-.8,8.9-.2.3.8.8,1.5,1,4.9.2,9.8,0,14.6.1,1.3,0,2.7-.3,3.8,1,0,.4-.1.8-.1,1.1-1,1-2.3.9-3.6.9-3.8,0-7.6.1-11.3,0-2.8-.1-4.7.7-5.6,3.4a1.39,1.39,0,0,1-1.5.4c-1.1-.7-.8-2.2-1.6-3.1s-1.7-.7-2.6-.7H87.8c-1.2,0-2.3,0-2.9,1.3-1.4,2.5-1.4,2.5-2.9,0a3.11,3.11,0,0,0-2.6-1.5c-.8-.1-1.7,0-2.5-.1s-1.2-.4-1.2-1.2.7-.9,1.3-.9c1.3-.1,2.7.4,3.9-.4,1.4-3.3.7-4.5-2.7-4.5H68.7c-.8,0-2,0-2-1,0-1.2,1.2-.9,2-.9h9.8c1.6,0,3.4,0,3.4-2.3,0-2.1-1.3-2.7-3.4-2.7-5,.2-10.1.1-15.1.1-1.1,0-2.3.3-3.3-.6.7-.9,2.8,1,2.7-1.4,1-1,2.3-.9,3.6-.9,3.4,0,6.7.1,10.1-.1,1.6-.1,4.1.6,4.2-1.5.1-2.3-2.5-1.6-4-1.6-3-.1-6.1.1-9.1-.1s-5.4.5-6.5,3.5c-1.4-3.5-.5-5,3.1-5,5,0,10.1.2,15.1-.1,2.1-.1,3.2,2.1,5.2,1.4,1,3,3.2,3.7,6.1,3.5,3.3-.2,6.7,0,10.1-.1,1.1,0,2.6.1,2.6-1.6s-1.5-1.5-2.6-1.5c-3.9-.1-7.8,0-11.6-.1C87.2,209.91,85.8,210.21,84.6,209.11Z"/><path class="cls-29" d="M174.8,235.51c-.1,2.2-1.8,1.8-3,1.8-5.3.1-10.7.1-16-.1-1.9-.1-2.6.5-2.5,2.2,0,1.5.4,2.8,2.4,2.2a1.38,1.38,0,0,1,.9,0c.9.4,2.5-.1,2.5,1.3s-1.6.9-2.5,1c-1.1.1-2.3-.1-3.3.6a.61.61,0,0,1-.8,0c-.5-2.3-1-4.7-.4-7.1a3.26,3.26,0,0,0-1.7-3.9,2.58,2.58,0,0,1,.1-2.8,2.25,2.25,0,0,1,3.2.4c.7,1.4,1.6,2.4,3.4,2.4,4.1,0,8.2.1,12.3,0,.7,0,1.5,0,1.9-1-.7-1.1-2-.8-3-.9h-11a6.76,6.76,0,0,1-3.7-.6c-1.2-1.4-1-2.7.3-3.9,6.2-.7,12.5-1,18.7.2.6.5.3.9-.2,1.3-4.5.6-9.1,0-13,.3,3.9,0,8.4-.1,13,.1a4.1,4.1,0,0,1,2.1,2.2A5.7,5.7,0,0,1,174.8,235.51Z"/><path class="cls-29" d="M104.2,230.41c1,1,.5,2.2.7,3.4s.1,2.4.3,3.6a1.33,1.33,0,0,1-.3.8.48.48,0,0,1-.7-.1c-.6-1-1.4-.9-2.4-.9-4.4.1-8.8.1-13.2.1-4.1,0-5.8-1.3-7.2-5.3a1.81,1.81,0,0,0-1.8-1.4H77.1c-1.4.1-2.8-.3-2.9-1.7-.1-1.9,1.7-1.3,2.9-1.4s2.5,0,3.8-.1c-1.3,1.5-3.2.1-5.1,1.4,2.9,1,6.9,0,7.1,4.8.4-1.1.8-1.8,1.1-2.5.1.1.3.2.4.3a3.77,3.77,0,0,0,3.8,2.1c4-.1,7.9,0,11.9,0,1.7,0,3.1-.5,3.6-2.3A.89.89,0,0,1,104.2,230.41Z"/><path class="cls-30" d="M152.7,244.31c.2,0,.4.1.7.1-.2.7-.7,1.2-1.4,1-7.3-2.2-14.7-.5-22-1,.6-2.5-1.7-5,0-7.5,1-.9,2.3-.9,3.5-1,4.5-.1,9,.1,13.4-.2,1.2-.1,2.3,0,2.7,1.4-.9,1.3-2.4,1.2-3.7,1.2-3.7.1-7.3,0-11,0-1.2,0-2.5-.4-3.4,1,.7,1.2,1.8.9,2.8.9,3.4.1,6.9-.1,10.3.1a4.3,4.3,0,0,0,4.5-2.6c1.7-.3,1.8-.1,2.1,2.2C150.6,241.71,150.5,243.31,152.7,244.31Z"/><path class="cls-31" d="M174.8,235.51c-.9-1.4-.5-2.9-.6-4.4a5.26,5.26,0,0,0,.4-4.6c-.8-2-.5-4.2,2.3-4.8h5.6c-1.6-.1-3.3.1-4.9-.1a2,2,0,0,1-.8-.4c-.2-.6,0-.9.6-.8,4.6.1,9.2.1,13.8.2.9,0,2.2-.3,2.3,1,0,1.5-1.3,1.3-2.4,1.3-4,0-8,.1-11.9,0-1.8,0-3.2.3-3.2,2.5s1.8,1.8,3.2,1.9,2.9,0,4.4.1c1,0,2,.2,2,1.5a1.75,1.75,0,0,1-2,1.6c-1.6,0-3.1.1-4.7,0-2.2-.1-3.2.8-2.8,3C176.2,234.51,176.7,235.71,174.8,235.51Z"/><path class="cls-32" d="M198.3,198.91c-.3-3,1.1-4,4-3.8,3.3.2,6.7.1,10.1.1v-1.4H201.5c-1.6,0-3.1-.2-2.6-2.4.8,1.2,1.9,1.4,3.3,1.3,3.1-.1,6.3,0,9.4,0,1.1,0,2.3.2,2.3,1.5s-1.1,1.6-2.2,1.6H201.6c-1.2,0-2.5-.2-2.5,1.6,0,1.6.9,2.2,2.4,2.1,2.3-.1,4.6,0,6.9,0,1.1,0,2.3.2,2.2,1.6s-1.2,1.5-2.3,1.5h-7.2c-1.2,0-2,.4-2,1.8s.5,2.2,2,2.1h3.1c.9,0,1.8.3,1.8,1.3s-1,1.1-1.9,1.2c-1.8.1-3.6-.3-5.3.5,1-2.8,3.5-.6,5-1.6-1.5-.7-3.5.6-4.8-.9s-1-3.3-.3-5c3.3-1,6.8.2,10.1-.7h0c-.1-1.7-1.4-.9-2.1-1-2.7-.2-5.4.3-8.1-.3C198.3,199.91,198.4,199.41,198.3,198.91Z"/><path class="cls-33" d="M59.3,188.91c.3,2.4-1.2,4.6-.7,7-3.2-.1-6.4-.1-9.7-.2-1,0-2.5.1-2.6-1.1-.1-1.6,1.6-1.3,2.6-1.3,2.1,0,4.2-.1,6.3,0,1.9.1,3.1-.6,3.1-2.6.1-2.2-1.6-1.7-2.9-1.8H47.2c-4.7,0-5.6-.9-5.7-5.7a1.27,1.27,0,0,1,.6.1c1.2.9,1.3,2.8,2.9,3.2,3.3.6,6.6.1,9.9.3,1.6.1,3.2,0,4.1,1.6A.55.55,0,0,1,59.3,188.91Z"/><path class="cls-34" d="M127.5,241.21c.2,1.9.4,3.8.7,5.7q-.3.45-.6,0c-.1-1.4-.1-2.7-2.2-2.6-6.4.2-12.8-.3-19.2.3l-.3-.3c.6-1.2,0-2.8,1-3.9a3.75,3.75,0,0,1,1,.1c3.5,1.1,7.1.3,10.6.5C121.5,241.21,124.5,240.61,127.5,241.21Z"/><path class="cls-32" d="M177.4,220.41l-.6.6c-1.9.1-2.5-1.2-2.6-2.7-.2-2.1.9-3.3,2.9-3.7,5.3-.3,10.7-.1,16-.1a3.54,3.54,0,0,1,3.3,1.4c.6.9,1.4,1.4,2.4.7,0,1.3-.8,2.4-1.8,1.4-2-2-4.3-1.3-6.5-1.4-3.5-.1-7.1,0-10.6,0S176.2,217,177.4,220.41Z"/><path class="cls-34" d="M104.2,238.11a.75.75,0,0,1,.5.1,1.64,1.64,0,0,1,.7,1.6c.2,1.5-2.1,3.2.5,4.5a1.38,1.38,0,0,1,.3.4c-1.1.8-2.2-.1-3.3-.2-1.3,0-2.7-.4-2.9-1.8-.2-2,1.5-1.2,2.5-1.3C104.5,240.91,103.9,239.31,104.2,238.11Z"/><path class="cls-28" d="M58.7,202.71c1.5,3.5.9,4.5-2.9,5.4,4.8.6,3.4,4,3.4,6.8a2.24,2.24,0,0,1-.6-1.7c.2-2.4-.2-4.2-3.2-4a1.15,1.15,0,0,1-1.2-1.2.94.94,0,0,1,1.1-.9C59,207.61,58.7,205.11,58.7,202.71Z"/><path class="cls-32" d="M198.8,216.61c.1-1,1.1-1.9,0-3.1a3.14,3.14,0,0,1,0-3.8c.4,1.4,0,2.9,1.3,4.3S199.8,216,198.8,216.61Z"/><path class="cls-30" d="M127.6,246.91h.6c2.2.3.5-2.2,1.8-2.5a8,8,0,0,1-.1,2.7C129.1,248.71,128.2,248.41,127.6,246.91Z"/><path class="cls-16" d="M744.2,32.31c2.6.6,3.6-.8,3.8-3.1,1.6,1.3.5,2.4-.5,3.2a2.94,2.94,0,0,0-1.4,3.1c-3.1-.4-1,2.2-1.9,3.2C743,36.51,744.2,34.41,744.2,32.31Z"/><path class="cls-16" d="M749.3,35.41a1.6,1.6,0,0,1,0-2.8c1.8-1.3,1.4-3,1.2-4.7,1.6,1.6,1.1,3.2-.1,4.7A3.19,3.19,0,0,0,749.3,35.41Z"/><path class="cls-17" d="M371.6,57.11c.7,4.8,1.4,9.6,2,14.4,1.6,13,3,26.1,4.8,39.1,1.2,8.8,1.4,8.8-7.6,8.8-7.8,0-8,0-7.2-7.9,1.2-10.7,2.8-21.4,4.2-32.2.7-5.6,1.4-11.3,2.1-16.9.2-1.8.6-3.6.8-5.4A2.77,2.77,0,0,1,371.6,57.11Z"/><path class="cls-35" d="M106.1,154.11H105a4.4,4.4,0,0,1-1.6-.2c-6.1-.3-12.2-.3-18.4,0a2.22,2.22,0,0,1-1.6-.3c1.1-4.3-1.9-1.9-3.3-2a5.91,5.91,0,0,1,.6-5c6.9-1.2,13.9-.6,20.9-.7a6.92,6.92,0,0,1,2.5.1c2.5,1.1,2.3-.5,2.1-2.1,6,.8,12.1.3,18.1.5,2.4.1,3.3-1,2.9-3.3-.2-1.1-1.1-.5-1.7-.7-4.7-1.1-9.4-.7-14.1-.3-1.8.1-3.5.6-5.3.1.2-1.2.5-2.5-1.4-2.6-1.1-1-.3-2.8-1.5-3.7-5.7-.9-11.5-.4-17.2-.3-2.4.1-1.8,2-1.3,3.6a1.18,1.18,0,0,1-.1,1c-2.5,0-1.9-2-2-3.4-.2-1.7.7-3.1,2.3-3.2,6.4-.2,12.9-.9,19.3.4,2.1.4,1.9-.3,1.6-1.5s-.7-2.4.1-3.6c.9.6.9,1.7,1.4,2.6a5.26,5.26,0,0,1,.1,3.9c-1,2.8-.2,3.9,2.8,4,4.7.1,9.4,0,14.1.1,2.1,0,3.2-.8,2.9-3-.1-.3-.3-.5-.4-.8-1.6-1.5-.3-2.9.2-4.3s.5-2.7-1.3-3.4a172,172,0,0,0-17.6.1,2.37,2.37,0,0,1-2,.2c0-1.8,1.3-1.9,2.6-1.9,5.6,0,11.3.1,16.9-.1,1.5,0,2.4,1.3,3.8,1.3,1,2.5,2.1,5.1,1.3,7.9a3.18,3.18,0,0,0-.3.9c.4,2.6,1.5,5,0,7.8-.8,1.6,1.1,2.1,2.6,2.1,5.2,0,10.5.1,15.7-.1.7,0,1.5-.3,2.1.3,0,.6.1,1.2.1,1.8a1.35,1.35,0,0,1-.9.5,3.4,3.4,0,0,1-1-.1c-5-.1-10,0-15.1,0-1,0-2.1-.2-2.9.7-1.1,2.5.4,3,2.3,3.1,4,.1,8,0,12,.1a28.08,28.08,0,0,1,4.1.1,2.25,2.25,0,0,1,1.4.8c-.2.4-.5.8-.7,1.3-1.1,1.1-2.5.8-3.8.9-5,.1-10-.2-14.9.2-1.5.7-1.2,2.1-1.2,3.3a6.88,6.88,0,0,0,.2,1.3,2.85,2.85,0,0,1,0,1.3,5.07,5.07,0,0,0-.2,1.3,16.05,16.05,0,0,0,0,3.1c.1,1.6.6,3.2-1,4.3-1.8-.3-1.7-1.9-1.9-3.2-.1-.1-.1-.3-.2-.4v-.5c.5-2.2-.6-4.2-.3-6.4.2-1.4.8-2.9-.8-4-6.2-.7-12.4-.3-18.5-.2A1.74,1.74,0,0,1,106.1,154.11Z"/><path class="cls-36" d="M129.5,123.81a9.73,9.73,0,0,1,.2-5.6,1.39,1.39,0,0,0-.5-1.7c-.6-.5-1,0-1.3.3-.8.9-1.9.8-2.9.8-5.1,0-10.3-.1-15.4,0-2.5,0-3.6-.8-3.6-3.5s1.4-3.3,3.7-3.3c4.8.1,9.7.1,14.5,0,1.8,0,3.5.1,4.9,1.4.8-2.4,3.1-1.6,4.7-2.2-1.8-.4-4.5,1-4.5-2.6,0-2.4.7-3.4,3.3-3.4,5.2.1,10.5,0,15.7,0,1.1,0,2.5-.2,3,1.1a4.21,4.21,0,0,1-.2,4.2c-.3.4-1.4.5-.7,1.4,2.8,3.7-.2,8,1.1,11.9,0,.1-.2.3-.4.5a.64.64,0,0,1-.9-.1c0-2.6-1.2-3.7-3.9-3.5-4.1.2-8.1,0-12.2.1-.9,0-1.9-.2-2.7.6a3.84,3.84,0,0,0-.5,2.1,2.92,2.92,0,0,1-.2.9C130.3,123.51,130.1,123.91,129.5,123.81Z"/><path class="cls-37" d="M186.3,165.51h-8.2c-2,0-2.8-.7-2.8-2.8s.7-2.9,2.8-2.8c5.3.1,10.7.2,16,.1,2.3,0,2.8,1.1,2.9,3.1s-1.1,2.4-2.8,2.4Z"/><path class="cls-25" d="M129.3,168.51a7.69,7.69,0,0,0,.2-4.5c4.1-.4,8.1,0,12.2-.1a26.15,26.15,0,0,0,2.8,0c1.6-.2,4.6.7,4.6-1.1-.1-2.3-3-1.2-4.7-1.3-3.6-.2-7.3,0-11-.1-1.3,0-2.7.2-3.9-.8.2-.3.3-.5.5-.8,3.1-1.2,6.4-.3,9.6-.6a25.48,25.48,0,0,1,2.8,0c-3.7-.4-8.1.7-12.4-.6-.2-.3-.3-.5-.5-.8,1.3-1,2.8-.8,4.2-.8,4.1,0,8.2,0,12.2-.1,1,0,2.8.4,2.7-1.2s-1.8-1.2-2.8-1.2c-4-.1-7.9,0-11.9-.1-1.3,0-2.8.2-3.9-.9.7-.9,1.7-.7,2.6-.7h17.6c.7.8,1.6.5,2.5.4a1.34,1.34,0,0,1,.6.7,5.23,5.23,0,0,1-.2,3.7c-.3.7-1.1.5-1.6.8-1.3.3-1,.8-.5,1.7a4.52,4.52,0,0,1-.2,5.2c-.8.6-1.1,1.7-2.1,2.1-3,1.2-6.2.5-9.3.7s-6-.5-8.9.5a1.7,1.7,0,0,1-1,0Z"/><path class="cls-38" d="M140,95.91c-2.7,0-5.4-.1-8.2,0-1.9.1-2.3-.9-2.3-2.5s.4-2.6,2.3-2.6c5.5.1,11.1,0,16.6,0,1.6,0,2.6.5,2.6,2.3s-.7,2.8-2.6,2.7C145.6,95.91,142.8,95.91,140,95.91Z"/><path class="cls-39" d="M80.7,146.61a5.91,5.91,0,0,1-.6,5c-5.8,0-11.6,0-17.3.1-1.8,0-3.4,0-3.4-2.6s1.4-2.7,3.3-2.6C68.7,146.61,74.7,146.61,80.7,146.61Z"/><path class="cls-40" d="M129.8,133.31c.4-.7,1.1-1.3.5-2.2-1.2-1.7-.8-3.6-.8-5.4l.1.1c1.1-1.4,2.6-1.6,4.2-1.6h11.9c5.2,0,6.2,1.3,5.2,6.5a1.31,1.31,0,0,0,0,2.1c.1,1.8,1.6,4-1.2,5.1a1.19,1.19,0,0,1-.4-1.1c.3-3-1.6-3.3-3.8-3a75.08,75.08,0,0,1-11.6.5,10.88,10.88,0,0,1-3.1-.3A2,2,0,0,1,129.8,133.31Z"/><path class="cls-41" d="M196.3,193.21c-.4.8-1.2.8-1.9.8H178.1c-1.4,0-2.5-.4-3-1.7s-.8-2.7.4-3.5c1.6-1.2,1.3-2,.1-3.2-.8-.9-1.3-1.9,0-2.9a6.91,6.91,0,0,0,5.9,2.2c5.1,0,10.2-.2,15.3,0,.1.3.1.6.2.9-.5.8-1.2,1.7-.1,2.5v1.2c-5.2.6-10.5,0-15.7.3-1.3.1-3.7-.6-3.7,1,0,2,2.4,1.4,3.9,1.4,3.7.1,7.4,0,11,0C193.7,192.41,195.1,192.11,196.3,193.21Z"/><path class="cls-27" d="M149.5,167c-.5-1.3.1-1.6,1.3-1.5.2,2.7,2.1,1.2,3.3,1.3.5,1.3-1.4,2.6.1,3.8l.9.3c4.9.1,9.8,0,14.6.1,1.3,0,2.7-.3,3.8.8-.2.6-.3,1.2-.5,1.8l-.2.2c-4.6,1.6-9.3.7-13.9.6-2.2-.1-4.3-1-6,1.2-.7.8-1.8.4-2.5-.3-1.5-1.4-3.2-1.3-5-1.3-5.1-.1-10.2.2-15.3-.1a1.68,1.68,0,0,1-.2-2.1c1-.9,2.4-.8,3.6-.8h12C149.7,170.91,149.7,170.91,149.5,167Z"/><path class="cls-42" d="M149.5,137.61c2.4-1.1,1.2-3.2,1.3-4.9a1,1,0,0,1,.5.4c.3,1.1,0,10.4-.4,11.5-6.5,1.4-13.1.3-19.6.6a1.68,1.68,0,0,1-1.8-1.8c-.1-1.5-.7-3.2,1-4.3.2-.1,1.7,0,.3-.9-2.1-1.2-1.4-3.2-.9-5h.4c.9,2.8,2.9,3.7,5.7,3.5,3.3-.2,6.7-.1,10,0C147.2,136.81,148.5,136.71,149.5,137.61Z"/><path class="cls-43" d="M196.9,178a5,5,0,0,1-3.1,1.2c-5.1.2-10.2-.2-15.3.5a2.65,2.65,0,0,1-3.1-2.8c-.1-1.6.3-3.1,2.2-3.1,6,.1,11.9.3,17.9.5.5,0,.9.5,1.4.7C196.8,176,196.9,177,196.9,178Z"/><path class="cls-44" d="M83.4,153.61c.3-.1.7-.2,1-.3l.4.4c.5,3.8.6,4,4.4,4h9c4.4,0,4.4,0,5.6-3.9.1-.1.3-.2.4-.3a4.62,4.62,0,0,1,.7.7c-.2,2.1-.5,4.2-.7,6.3-1.9,1.2-4.1.9-6.1,1-2.4,0-4.8.2-7.2,0-3-.2-5.4.3-6.2,3.6-1.5-1.3-.3-3-.7-4.5C83.9,158.11,82.2,155.91,83.4,153.61Z"/><path class="cls-42" d="M150.8,130.71c.3-5.3,0-5.7-5.2-5.5-5.4.2-10.8-.7-16.2.6a13.4,13.4,0,0,1,.1-2,1.79,1.79,0,0,0,.5-.7,3.41,3.41,0,0,1,2.3-.8c5.1-.1,10.3-.1,15.4,0a2.86,2.86,0,0,1,2.3.8c.3,0,.6.1.9.1-.6,1.5.6,2.8.6,4.3C151.6,128.61,152,129.81,150.8,130.71Z"/><path class="cls-45" d="M127.6,140.21c1.4,3.8.7,5.1-3.1,5.1H110.1a5.2,5.2,0,0,1-4-1.4v-3.7c1.7-1.3,3.9-1.1,5.7-1.1,4.8,0,9.7-1.1,14.5.7-.8,1.5-2.3,1.2-3.6,1.2-3.6.1-7.1,0-10.7,0a7.15,7.15,0,0,0-2.5.3,1.08,1.08,0,0,0-.8.9c-.1.6.3.9.9,1.1a6.88,6.88,0,0,0,2.5.3c3,0,6.1-.2,9.1.1S126.6,143.41,127.6,140.21Z"/><path class="cls-46" d="M153.4,171.21c-1.4-1.7-.5-3.1.7-4.4h16.2c1.1,0,2.3-.3,3.3.6a3.94,3.94,0,0,1,0,4.3h0c-6.2.1-12.4.2-18.7.2-.6.1-1.3,0-1.5-.7,1.4-1.2,3.2-.9,4.8-.9,4.3-.1,8.5.1,13.4-.2a3.52,3.52,0,0,0-3-1.1H158.2C156.2,168.91,154.5,169.41,153.4,171.21Z"/><path class="cls-47" d="M106.1,126.41c.4-.2.8-.5,1.2-.7a161.86,161.86,0,0,1,19.7-.1c1.5,1.2,1.3,2.7.6,4.2a2.34,2.34,0,0,1-.7-.7,3.22,3.22,0,0,0-3.3-1.9H111.1c-1.9,0-2.8,1-3.7,2.4a1.15,1.15,0,0,1-1,.1c-.8-.8-.2-1.8-.6-2.7A.86.86,0,0,0,106.1,126.41Z"/><path class="cls-45" d="M84.7,138.31a.52.52,0,0,0-.2-.4c.1-.1.2-.3.3-.4,3.4-1.2,6.8-.4,10.3-.6a36.85,36.85,0,0,1,4.7,0c2.1.1,3.4-.8,3.8-2.9a2.7,2.7,0,0,1,.7-.8c1.2,1.4.4,3,.4,4.5-1.5,1.1-3.2.6-4.8.6Z"/><path class="cls-27" d="M151.5,158.51c.3-.6.9-.6,1.5-.7,6.6-.3,13.1-.8,19.7.3a.69.69,0,0,1,.3,1c-2.1,0-4.1.1-6.2.1a76.09,76.09,0,0,1-13.5,0A13.36,13.36,0,0,1,151.5,158.51Z"/><path class="cls-35" d="M152.7,153.31c5-1.1,10-.3,15-.5,2-.1,4.2-.6,6.1.5a1.76,1.76,0,0,1-.9.8c-6.7.4-13.3,1.1-20-.4C152.8,153.51,152.8,153.41,152.7,153.31Z"/><path class="cls-35" d="M153.3,159.31h13.5A36.05,36.05,0,0,1,153.3,159.31Z"/><path class="cls-35" d="M172.9,159.11a2.2,2.2,0,0,0-.1-.8,7,7,0,0,1,.5-4.7l.4-.4C175.6,155.61,174.8,157.41,172.9,159.11Z"/><path class="cls-42" d="M150.2,146.71a2.35,2.35,0,0,1,.8-.2,4.88,4.88,0,0,1-.1,5.2,5.7,5.7,0,0,1-1.3-.1C149.6,149.91,150.1,148.31,150.2,146.71Z"/><path class="cls-27" d="M173.5,171.81v-4.3C174.9,168.91,175.8,170.31,173.5,171.81Z"/><path class="cls-48" d="M83.9,192.61a1.38,1.38,0,0,0-1.8.2c-.4-3.3-2.5-4-5.5-3.8-4.1.2-8.2.1-12.3,0-1.2,0-2.5.2-3.7-.6a2.78,2.78,0,0,1-.7-3.6c5.2-.5,10.5.1,15.7-.2,1.3-.1,2.7.3,4.1-.8-.9-1.3-2.2-1-3.3-1-3.8-.1-7.6,0-11.3,0-1.3,0-2.8.2-3.9-.9.7-1.1,1.9-.7,2.9-.7,3.7,0,7.3.1,11,0a20.75,20.75,0,0,1,8.9,1.3,6.13,6.13,0,0,0,5.5,2.3c3.2-.1,6.5,0,9.8,0a4.8,4.8,0,0,0,3.4-.8c-1-1.3-2.4-1.1-3.5-1.1H88.5c-1.3,0-2.8.2-3.8-.9.8-1,1.9-.6,2.9-.6h14.1c1.3,0,2.5-.1,3.3,1.3a2.88,2.88,0,0,1,.7,2c-.4,1.7-.8,3.5-2.2,4.8-4.4,1.1-8.9.4-13.4.5C87.3,189.81,85.1,190.11,83.9,192.61Z"/><path class="cls-49" d="M60.1,184.91c.2,1.1.3,2.2.5,3.3.1.1.1.2.2.3l-.3.3a6.15,6.15,0,0,0-1.3.1h0c-.6-1.5-1.9-1.6-3.4-1.7-4-.1-7.9.3-11.9-.2-1.4-.9-1.7-2.3-1.8-3.8-.2-2,.7-2.7,2.7-2.7,3.5.1,6.9,0,10.4,0,.8,0,1.7-.2,2.5-.2s1.2-1.9,2.3-1-.1,2.1-.1,3.2A1.74,1.74,0,0,1,60.1,184.91Z"/><path class="cls-50" d="M71.3,179.21H63.4c-1.5,0-2.7-.4-2.7-2.3,0-1.7.9-2.4,2.6-2.4l15.7-.3c1.8,0,2.8.9,2.8,2.6s-1.3,2.3-2.7,2.4C76.5,179.31,73.9,179.21,71.3,179.21Z"/><path class="cls-51" d="M94,179.31c-2.4,0-4.8-.1-7.2,0-1.7.1-2.6-.4-2.6-2.2s.8-2.6,2.7-2.6c5,0,10.1-.1,15.1-.3,1.8-.1,2.4.8,2.5,2.4,0,1.8-.6,2.8-2.5,2.7C99.2,179.21,96.6,179.31,94,179.31Z"/><path class="cls-52" d="M71.4,160.21h7.8c1.8,0,2.7.7,2.7,2.6s-1.2,2.3-2.6,2.3c-5.4.1-10.9,0-16.3,0-1.6,0-2.3-.5-2.2-2.2s.6-2.6,2.4-2.5c2.7.1,5.4,0,8.2,0Z"/><path class="cls-50" d="M71.1,171.81H62.9c-1.2,0-2.1-.2-2.1-1.7,0-1.3.2-2.6,2-2.6,5.6,0,11.1-.1,16.7,0a2.45,2.45,0,0,1,2.5,2.4c.1,1.8-1.3,1.9-2.6,1.9Z"/><path class="cls-53" d="M127.4,171.61c-6.1.1-12.2.2-18.3.2-1.2,0-2.4-.2-2.5-1.8a2.41,2.41,0,0,1,2.2-2.7c5.7-.1,11.3-.2,17,0,2.2.1,2,2.1,2.1,3.6C127.9,171.41,127.8,171.61,127.4,171.61Z"/><path class="cls-54" d="M94.2,171.81H86.3c-1.5,0-2.4-.4-2.3-2.1.1-1.5.6-2.4,2.3-2.3h16.1c1.8,0,2,1.2,2.2,2.5.1,1.5-.7,2.1-2.1,2.1-2.8-.2-5.6-.2-8.3-.2Z"/><path class="cls-55" d="M84.6,164.91c-.3-4.4-.3-4.4,4-4.4,5.2,0,10.4-.1,15.7-.1a8.94,8.94,0,0,1-.1,4.3c-2.8.9-5.8.4-8.6.4-3.8,0-7.4.4-11-.2Z"/><path class="cls-52" d="M60.1,184.91c0-.8-.1-1.6-.1-2.3.4-.2.8-.5,1.2-.7H78.4c1.3,0,3-.2,3,1.8s-1.6,1.9-3,1.9c-4.9,0-9.8-.1-14.7,0C62.4,185.71,61.3,185.11,60.1,184.91Z"/><path class="cls-56" d="M84.6,181.91c5.6,0,11.3.1,16.9.1,1.3,0,2.7-.2,2.7,1.7s-1.2,1.9-2.6,1.9c-4.7,0-9.4-.2-14.1.1-2.5.1-3.4-.9-3.5-3.1A4.35,4.35,0,0,1,84.6,181.91Z"/><path class="cls-57" d="M128.8,177.51c-1.6,1.2-1.8,2.6-1,4.4.4,1.1.8,2.2-.1,3.2a.76.76,0,0,0-.4-.2c-.6-.9-.7-2.1-1.9-2.5-4.6-.5-9.2-.1-13.8-.2-1.3,0-2.8.3-3.8-1,.2-1.2-.5-1.9-1.1-2.8-1.4-2.1-.2-4.7,2.3-4.7,6.1-.1,12.3.1,18.4.2.4.5.6.9-.1,1.3-4.4.3-8.8,0-13.2.1a16.08,16.08,0,0,0-3.1.1c-.9.1-2.2,0-2.1,1.3s1.3,1.2,2.2,1.2c4.3.1,8.6,0,12.9,0,1.8,0,2.6-1.1,3.2-2.5,1.1-.9,1.5,0,2,.7A1.79,1.79,0,0,1,128.8,177.51Z"/><path class="cls-58" d="M127.4,164.81a.64.64,0,0,1,0,.6c-6.1,0-12.1.2-18.2.1-2.7,0-4.1-2-2.8-4.2.9-1.5,1.6-2.4,0-3.9-.6-.6-.2-2.2-.3-3.3l.6-.6a1,1,0,0,1,1.4,0c0,2.6,1,3.8,3.9,3.9,4.2.2,8.4.2,12.5.2,1,0,2.1-.3,3.1.3-.7,2.3,1.9,4.6-.2,6.9-.9-2.8-2.8-3.7-5.7-3.5-3.5.3-7.1,0-10.6.1-.9,0-2.2-.1-2.2,1.2s1.3,1.2,2.1,1.3c4.1.1,8.1,0,12.2.1C124.7,164,126.2,163.71,127.4,164.81Z"/><path class="cls-59" d="M129.5,168.71a.9.9,0,0,1,.5-.1c1.9-1,3.9-.5,5.9-.5,3.9-.1,7.8,0,11.6-.1,1.4,0,2.6.3,2.6,2s-1.4,1.5-2.5,1.5H130l-.6-.3A20.9,20.9,0,0,1,129.5,168.71Z"/><path class="cls-60" d="M104.9,184.51c0-.7-.1-1.4-.1-2,1.1.2,1.6-.9,2.5-1.2.9,4.1.9,4.1,5.5,4.2,4.9.1,9.8-.3,14.6.2a22.6,22.6,0,0,1-.1,2.6,3.53,3.53,0,0,1-2.6.8c-5.3,0-10.6.2-15.9-.1C106.8,188.21,106.1,186.21,104.9,184.51Z"/><path class="cls-32" d="M127.5,185.71c-2.8,1.2-5.7.4-8.6.6-2.6.1-5.2,0-7.8,0-4.4,0-5.1-.9-3.7-5a.75.75,0,0,1,.5-.1c5.3,0,10.6,0,15.9.1,1.1,0,2.3-.5,3.1.7-1.1,1-2.6.8-3.9.8H113a4.21,4.21,0,0,0-3.2.8c4.2.7,8.5.3,12.7.5,1.6.1,3.4-.4,4.8.8a.6.6,0,0,0,.4.1A2.54,2.54,0,0,0,127.5,185.71Z"/><path class="cls-44" d="M84.6,164.91c6.5-.1,13-.1,19.5-.2-.1.1-.1.3-.2.3A65.71,65.71,0,0,1,84.6,164.91Z"/><path class="cls-26" d="M128.8,176.11l-1.4-1.1h0v-3.4c.2-.2.3-.4.5-.6.5,0,1,.1,1.5.1l.1-.1c.1.3.7.4.5.9v1.7C130,174.71,130.4,175.91,128.8,176.11Z"/><path class="cls-61" d="M153.5,230.51c-.9.4-1.7.7-2.6-.1-2.2-.8-1.8-2.2-.9-3.7s.6-2.8-1.1-3.5c-1-.4-2.7,0-2.6-1.6s1.8-1.1,2.7-1.7c.2-.2.5-.4.7-.6,1.4-2.4-.1-3-2.1-3-4.6-.1-9.1,0-13.7-.1-1.3,0-2.7.3-3.8-.8,0-.4-.1-.8-.1-1.2,1-1.2,2.5-.9,3.8-.9,5-.1,9.9.1,14.9-.1l.9-.3c1.7-1,1.3-2.2.2-3.4-.8-.9-1.3-1.7-.3-2.7,1.6-.9.9-2.9,1.9-4h1.4c.8,2.9,2.7,3.8,5.6,3.5,3.1-.3,6.2,0,9.4-.1,4.2,0,4.2,0,5-4.1h2.6c.3,1.8-.1,3.7,1.2,5.3.5.7-.1,1.4-.5,2-.1.3-.3.5-.4.8-.4,1-.2,2.2-1,3-.6.4-1.2.6-1.7-.2-.5-2.3-1.9-3.2-4.3-3.1-4,.1-8,0-11.9.1-1,0-2.3-.1-2.3,1.5,0,1.4,1.2,1.6,2.3,1.6,3.8.2,7.5,0,11.3.1,1.6,0,3.2-.2,4.6.6.9.8,1.4,1.7.8,2.9-5.4.6-10.8.1-16.2.2-2.1.1-3.8.5-3.5,3.1,0,2.3-.7,4.5-.5,6.8,0,.2-.1.3-.1.5,1,1.1.3,2.2.3,3.2Z"/><path class="cls-62" d="M128.8,176.11c.4-.8.8-1.7,1.2-2.5,4.7-1.2,9.6-.4,14.4-.6,2.4-.1,5.1-.7,6.9,1.8.4.6,1.2.7,1.4-.2.6-2,2.2-1.9,3.6-1.6,5.5.9,11.1.3,16.6.7a4.87,4.87,0,0,0,.1,1.2c-1.5,1.2-3.2,1-4.8.7a48.55,48.55,0,0,0-10.1-.4c-1.2,0-3.1-.4-3.1,1.1,0,1.9,2.1,1.3,3.3,1.3,3.8.1,7.6,0,11.3.1a5,5,0,0,1,3.3.8c.1.9-.5,1.8,0,2.7a3.53,3.53,0,0,1-2.6.8c-5.3,0-10.6.2-15.9-.1-1.9-2.6-3.9-1.8-5.9,0-5.1.3-10.2.1-15.3.1a3.22,3.22,0,0,1-2.6-.9c-.6-1.2-1.2-2.5-1.8-3.7Z"/><path class="cls-63" d="M149.6,220.41c-.5,1.3-2.2.1-2.8,1.3.5.8,1.3.4,2,.5,2.4.5,3.6,3.1,1.9,4.9-1.4,1.5-.6,2.3.2,3.4v3.2a.76.76,0,0,1-.9-.1c-.7-2.2-2.3-2.9-4.6-2.8-3.4.1-6.9.2-10.3,0-2.6-.1-4.2.6-4.3,3.5-.3.3-.6.4-.9.1-1.6-2.4.1-4.7.1-7,1.2-1.1,2.7-.9,4.2-.9,4.1,0,8.1.1,12.2-.1.9,0,2.2,0,2.1-1.2s-1.3-1.2-2.2-1.2c-4.2-.1-8.4.1-12.5-.1-2.6-.1-2.8,2.1-3.8,3.5-.1-.1-.3-.1-.3-.2,0-3.9-1-7.9.3-11.7,6,0,11.9,0,17.9-.1,1.5,0,2.9.4,3.2,1.9.4,1.1.3,2.7-1.5,3.1-.2-3-2.1-3.7-4.7-3.5-3.7.2-7.3,0-11,.1-1,0-2.4-.1-2.3,1.4.1,1.2,1.4,1.1,2.3,1.1,4,.1,8,0,12,.1C147.1,219.51,148.5,219.31,149.6,220.41Z"/><path class="cls-64" d="M196.3,200.11c-5.9,0-11.8,0-17.6.1-1.9,0-3-.6-3.1-2.7s1.6-2.2,3-2.2h14.2c4.2,0,4.2,0,4,4.2A2.65,2.65,0,0,0,196.3,200.11Z"/><path class="cls-65" d="M60.7,213.41c.2-4.2.2-4.2,4.6-4.2s8.8.1,13.2,0c2.1-.1,3.4.6,3.3,2.7s-1.8,2-3.3,2c-5.4.1-10.7.1-16.1.2C61.9,213.81,61.1,214.21,60.7,213.41Z"/><path class="cls-66" d="M80.7,207.11c-5.8,0-11.5,0-17.3.1-2,0-2.7-.7-2.7-2.8s1.2-2.3,2.8-2.3H80.2C82.8,203.61,82.9,205,80.7,207.11Z"/><path class="cls-67" d="M172.9,202.11c1.2,4.3.8,4.9-3.5,4.9-3.9,0-7.8.1-11.7.1-4.6,0-4.6,0-4.9-4.4,1-.8,2.1-.7,3.3-.7C161.8,202.11,167.3,202.11,172.9,202.11Z"/><path class="cls-68" d="M103.5,207.11H87.3c-1.1,0-2.3.3-3.2-.7a2.49,2.49,0,0,1,0-3.7c1.3-1.1,2.8-.6,4.2-.6h15.3A3.42,3.42,0,0,1,103.5,207.11Z"/><path class="cls-52" d="M84.6,209.11c5.6,0,11.1.1,16.7.1,1.8,0,3,.1,3,2.4s-1.3,2.3-2.9,2.2H88.2c-4.1,0-4.1,0-4.2-4.1Z"/><path class="cls-69" d="M60.7,193.11c.2-1.4-1-2.8-.2-4.3l.1.1c6.3-.8,12.7-.2,19.1-.3a1.93,1.93,0,0,1,2.1,1.8c.1,1.3-.1,2.5-1.4,3.2a5.41,5.41,0,0,1-3,.6c-4.4,0-8.8,0-13.2-.1A4.53,4.53,0,0,1,60.7,193.11Z"/><path class="cls-70" d="M129.5,213.41c0-1.4,0-2.8.1-4.2a5.42,5.42,0,0,1,3.5-1.1c4.5,0,9-.1,13.5,0,3.8.1,4.8,1.8,3.6,5.3h0c-5.7.9-11.4.2-17.1.4C131.9,213.81,130.6,214.11,129.5,213.41Z"/><path class="cls-71" d="M104.1,199.51c-.4.8-1.2.7-1.9.7-5.8,0-11.7-.1-17.5-.1-1.1-1.4-.8-2.9-.2-4.4,1.5-1.2,3.3-.7,5.1-.8,2.8-.1,5.6.2,8.3-.2l1.1-.3a16.2,16.2,0,0,1,2.2-.1C104.6,194.51,105.6,196.21,104.1,199.51Z"/><path class="cls-54" d="M83.9,192.61c-.2-3.2,1.2-4.2,4.4-4a97.71,97.71,0,0,0,15.3-.2c2.1,1.8,2.2,2.6.2,5.3-6,.9-12.1.4-18.1.3a3,3,0,0,1-1.7-.8A.66.66,0,0,0,83.9,192.61Z"/><path class="cls-52" d="M173.5,196.51c-.2,1.2-.4,2.4-.6,3.7-6.5,0-12.9,0-19.4-.1-1.7-3.5-1.1-4.6,2.6-4.6h14.5C171.6,195.51,172.9,195.11,173.5,196.51Z"/><path class="cls-31" d="M104.9,240c-.1-.6-.1-1.3-.2-1.9l.2-.2a3.34,3.34,0,0,0,1.2-4.3c.2-3.4,1.2-4.4,4.6-4.4H127c.2.5.3.9.5,1.4-1.2,1-2.6.8-3.9.8H112.3c-1.2,0-2.5-.3-3.8,1.3,6.5,1.5,12.9-.1,19,.9,0,1.1-.1,2.2-.1,3.3-1,1-2.3.8-3.5.8-3.9,0-7.9.1-11.8,0-2.5-.1-4.3.5-5.1,3h-.5A1.64,1.64,0,0,1,104.9,240Z"/><path class="cls-72" d="M107.9,188.21c6.5,0,13,.1,19.5.1a1.27,1.27,0,0,1,.1.6c-1.2,1.1-2.7.9-4.2.9-4.1,0-8.2-.1-12.2.1-.9,0-2.2,0-2.2,1.2s1.3,1.2,2.2,1.2c4.2.1,8.4-.1,12.5.1,2.6.1,2.8-2.1,3.8-3.5.1.1.3.1.3.2,0,3.7.8,7.5-.2,11.2a151.29,151.29,0,0,1-20.2,0h0c-1.9-1.2-2.6-2.8-1.3-4.8.8-1.2.2-2.1-.2-3.2C105.2,190.31,105.2,188.51,107.9,188.21Z"/><path class="cls-73" d="M127.5,233.61c-2.4,1.2-5,.5-7.4.6-3.5.1-6.9,0-10.4,0-1.4,0-2.8-.3-2.7-1.9s1.4-1.9,2.8-1.9c5.9.1,11.8.1,17.6.2C127.5,231.61,127.5,232.61,127.5,233.61Z"/><path class="cls-34" d="M107.3,227.41c-.2-.2-.5-.3-.7-.6-1.6-2.2,1.4-3.6,1-5.3s-2.7-3.1-.4-5c1.2,2.6,3.3,2.9,5.9,2.9,4.6,0,9.1-.4,13.7.3a1.39,1.39,0,0,1,.8.7c-.8,2.3,1.7,4.7-.1,7a.76.76,0,0,1-.9-.1c-.2-2.4-1.5-3.1-3.7-3a110.3,110.3,0,0,1-11.5-.1c-2.4-.2-3.2.8-3.4,2.9C107.9,227.51,107.7,227.61,107.3,227.41Z"/><path class="cls-74" d="M130.6,181.21h19c2.7.9,3,1.6,1.8,4.7-.8,1-1.2,2.4-2.5,2.9-5.4.5-10.8.2-16.1.2a2.62,2.62,0,0,1-2.2-.9c.8-.9,0-1.4-.5-2.1-.9-1.3-1.4-2.7,0-4.1a4.57,4.57,0,0,0,5,2.8c3.2-.2,6.5,0,9.7-.1a5.15,5.15,0,0,0,3.7-.9c-.9-1.3-2.1-1-3.2-1-3.8-.1-7.5,0-11.3,0-1.3,0-2.7.2-3.9-.8A1.79,1.79,0,0,0,130.6,181.21Z"/><path class="cls-75" d="M174.8,212.91c.3-1-.4-2.4.8-3.1,1,2.1,2.6,2.9,5,2.8,4-.2,8,0,11.9-.1.9,0,2.2.2,2.3-1,.1-1.5-1.3-1.4-2.3-1.4-4.6-.1-9.2,0-13.8-.1a8.13,8.13,0,0,1-3.1-.2c-.1-1,1.2-1.9-.2-3.2-1.2-1.1-.8-2.9.1-4.4.4-.1.7-.1,1.1-.2.1.1.2.3.3.4.4,3.8.5,3.8,4.4,3.9,4.4.1,8.8-.4,13.1.3a1.21,1.21,0,0,1,.7.7c-3.3,1.1-6.8,0-10.2,1h8.4c3.8.1,4.9,2.3,2.9,5.8-1.3.9-2.8.5-4.3.6-5.1,0-10.2.1-15.3,0C175.6,214.61,174.8,214.21,174.8,212.91Z"/><path class="cls-76" d="M60.7,193.11c6,.1,12,.1,18,.2,1.9,0,2.7-.8,2.8-2.6s-1.1-2.1-2.5-2.1c-6.1,0-12.2.1-18.3.2v-.7H78.2c4.3,0,4.8.5,4,4.6-.5.7-1.2,1.1-.4,2.4,1,1.6,1.2,3.6-.7,5.1a.64.64,0,0,1-.9-.1c.3-4.2.3-4.1-4.2-4.2-2.7-.1-5.4.4-8.1-.4a5.28,5.28,0,0,0-3.5-.9,4.55,4.55,0,0,1-3.2-.8C61,193.71,60.9,193.41,60.7,193.11Z"/><path class="cls-48" d="M129.9,234.31c.3,0,.5-.1.8-.1a2.44,2.44,0,0,1,2-.8c5.3-.1,10.7-.4,16,.2,1.6.8,2.3,2.4,3,3.8.5,1,1.2,2.6-.9,3.2,0-1.2.3-2.6-1.3-3.1h0a1.22,1.22,0,0,0-1.4-1c-6,.8-12.1,0-18.2.4A11.3,11.3,0,0,0,129.9,234.31Z"/><path class="cls-77" d="M128.1,213.41h-.7c-.9-3.1-3.1-3.6-6-3.5-4.4.1-8.8.2-13.1-.1a2.24,2.24,0,0,1-1.5-.8c.8-.8.6-1.3-.1-2.2-1.2-1.8-1.8-3.8,1.1-4.9a1.38,1.38,0,0,1,.3.4c.3,3.9.3,3.9,4.3,4,3.6,0,7.1-.1,10.7,0,2.6.1,3.7-.9,3.4-3.5a1,1,0,0,1,.5-.8,1.63,1.63,0,0,1,1.2,2.2C127,207.31,128.8,210.31,128.1,213.41Z"/><path class="cls-78" d="M150.9,192.61c-.4.9-1.5,1.4-1.3,2.5-1.1,1.1-2.5.9-3.9.9-3.7.1-7.3.1-11,0-2.2,0-3.7.5-4.1,2.9a2.7,2.7,0,0,1-.7.8,36.87,36.87,0,0,1,0-11,2.34,2.34,0,0,1,.7.7c.3,2.2,1.6,3.1,3.9,3.1,3.9-.1,7.7,0,11.6,0,1.9,0,3.3-.6,3.2-2.8a3.18,3.18,0,0,1,.3-.9,1.41,1.41,0,0,1,1.4-.1C152.4,190,151.6,191.31,150.9,192.61Z"/><path class="cls-79" d="M150.2,213.41c.1-4.4.1-4.4-4.4-4.4-5.4,0-10.8.1-16.2.2.2-.8.7-1.3.2-2.4-.7-1.5-1.3-3.6.8-4.9.1.1.2.3.3.4.4,3.8.5,3.8,4.4,4,4.6.1,9.2-.4,13.8.3a1.21,1.21,0,0,1,.7.7c-1,1.2.5,1.2.8,1.8C151.7,210.71,152.3,212.21,150.2,213.41Z"/><path class="cls-80" d="M106.9,240.61c-.7-2.5.3-3.9,2.9-3.9,5.9,0,11.7.1,17.6.1a4,4,0,0,1,.1,4.3c-4.9,1.4-10,.3-15,.6C110.6,241.91,108.5,242.41,106.9,240.61Z"/><path class="cls-25" d="M107.9,188.21c-.5.5-1.6,1.2-1.5,1.4,1.8,3.5-1.4,7.3.9,10.7-.9-.2-1.7-.5-2.6-.7.2-2.1-1.2-4.1-.6-6.3.2-1.6,1-3.3-.5-4.8-.5-1.6,1-2.5,1.3-3.9A4.62,4.62,0,0,1,107.9,188.21Z"/><path class="cls-61" d="M176.1,214.11h20.3v1.7c-5.3-.8-10.6-.2-15.9-.4-1.2-.1-2.5-.1-3.7-.1C176.3,215.11,175.8,214.81,176.1,214.11Z"/><path class="cls-48" d="M61.1,193.91h5.6c1.1,0,1.2.5.9,1.3-.9.9-2.1.7-3.2.9s-1.9.4-1.8,1.6,1.1,1.5,2,1.4c3.9-.2,7.7.3,11.6.2,1.3,0,2.7-.2,3.9.7.3.1.7.1,1,.2-4.3,1.1-8.7.2-13.1.5H66.7C59.8,200.81,59.6,200.41,61.1,193.91Z"/><path class="cls-81" d="M173.5,196.51c-.8-1.1-2-1-3.1-1H157.3c-4.5,0-4.5,0-3.8,4.6-.9-.1-1.6-1.4-2.7-.6a2.66,2.66,0,0,1,.1-3.7c6.6-1.3,13.2-.5,19.8-.6C171.7,195.11,173.4,194.51,173.5,196.51Z"/><path class="cls-78" d="M150.9,195.81c0,1.2,0,2.5-.1,3.7-1.6,1.9-3.7.9-5.6.9-4.2.1-8.3.2-12.5.2-1,0-2.1.2-2.8-.9l.3-.3c1.4-1,3-.7,4.6-.7,3.3,0,6.5-.1,9.8,0,2.5.1,4.5-.5,5.7-2.9Z"/><path class="cls-82" d="M104.1,193.21c.2,2.1,1.2,4.1.6,6.3l-.3.1h-.3c0-4,0-4-5.6-4.3-.4-.1.7-1-.5-.8-3.7.7-7.5.2-11.2.3a3.24,3.24,0,0,1-2.3-.8c-.3-.2-.5-.4-.4-.8Z"/><path class="cls-48" d="M84.5,194h15.8c-.3.9-1.6.3-1.8,1.2h0c-4.3.6-8.7.1-13,.3a1.28,1.28,0,0,1-1-.4Z"/><path class="cls-79" d="M151.4,202.81c0,1.7.7,3.7-1.7,4.6l-.3-.3c-.7-3.9-.8-4-4.8-4H134.3a5.72,5.72,0,0,1-3.6-.7,1.38,1.38,0,0,1-.3-.4c6.1-.8,12.2-.3,18.4-.2C149.7,201.71,150.6,202.41,151.4,202.81Z"/><path class="cls-75" d="M176.6,201.91c6.2-1,12.4-.3,18.6-.4,1.1,0,2.2.7,2,1.9-.2,1.4.5,3.6-2.1,3.8a1.38,1.38,0,0,1-.3-.4c.3-3.7.1-3.9-3.5-4H180.4a5.72,5.72,0,0,1-3.6-.7C176.8,202.21,176.7,202,176.6,201.91Z"/><path class="cls-34" d="M107.9,216c1.9-1.2,4.1-.4,6.1-.5,4.1-.2,8.2-.1,12.2-.2,2.5,1.2,2.2,3.1,1.4,5.2a1.38,1.38,0,0,0-.4-.3c-1-2.7-3-3.4-5.7-3.3-3.3.1-6.5.1-9.8,0C110.5,216.91,109,217.11,107.9,216Z"/><path class="cls-79" d="M129.5,213.41a178.69,178.69,0,0,0,20.7,0c-.8,1.3-2.1.8-3.2.8-5.7.1-11.4,0-17,0A5.58,5.58,0,0,0,129.5,213.41Z"/><path class="cls-25" d="M107.3,200.21h20.2c-.6.8-1.5.7-2.3.7H109.6C108.8,200.91,107.9,201,107.3,200.21Z"/><path class="cls-41" d="M107.3,227.41c.2,0,.4-.1.7-.1a3.46,3.46,0,0,1,2.6-.9c4.6-.1,9.2-.1,13.7,0a3.61,3.61,0,0,1,2.6.9c.2.1.5.1.7.2l-.6.6c-5.5,0-10.9,0-16.4-.1C109.5,228,108.3,228.41,107.3,227.41Z"/><path class="cls-83" d="M84,202.71v3.7c-1.2,0-2.1,1-3.4.6,1.1-1.8,1.4-3.5-.5-5C81.6,201.71,82.7,202.61,84,202.71Z"/><path class="cls-78" d="M130.5,188.11h19.2l.3.3c-.1.2-.3.3-.4.5a2.14,2.14,0,0,1-1.7.8,147.72,147.72,0,0,1-16.3,0,2.51,2.51,0,0,1-1.4-.6l-.3-.3A4.35,4.35,0,0,1,130.5,188.11Z"/><path class="cls-77" d="M107.8,202a94.77,94.77,0,0,1,19.2,0,1.38,1.38,0,0,0-.3.4,4.43,4.43,0,0,1-2.9.8c-4.2.1-8.5.1-12.7,0a4.28,4.28,0,0,1-2.9-.8Z"/><path class="cls-27" d="M198.8,200.21c3,0,6.1,0,9.1.1.5,0,2.1-.5,1,1.2-1.8-1.3-3.8-.4-5.7-.6C201.8,200.61,200.2,201.41,198.8,200.21Z"/><path class="cls-27" d="M209,201.51c-3.3,1.2-6.8,0-10.1.7C202.1,200.61,205.6,201.81,209,201.51Z"/><path class="cls-84" d="M106.8,209.11H108a4.68,4.68,0,0,1-.5,4.3c-1.8-.4-1.1-2-1.4-3.1A7.46,7.46,0,0,1,106.8,209.11Z"/><path class="cls-48" d="M84.6,195.81a10.88,10.88,0,0,0,.1,4.4c-2.5-1.6-1.3-3.3-.2-5.1l.2.1a.4.4,0,0,1,.2.4C84.7,195.71,84.7,195.81,84.6,195.81Z"/><path class="cls-77" d="M103.5,207.11a4.54,4.54,0,0,0,0-5C105.6,203.61,105.6,205.71,103.5,207.11Z"/><path class="cls-85" d="M196.3,193.21c-5.9,0-11.8,0-17.7.1-1.9,0-2.8-.9-2.9-2.6-.1-2.1,1.4-2,2.8-2h15.8a3.11,3.11,0,0,1,2.6.9A9.09,9.09,0,0,1,196.3,193.21Z"/><path class="cls-85" d="M173,192.61c-5.1,1.1-10.3.4-15.5.6-1.6,0-3.3.8-4.8-.6-.8-1.4-1.1-2.7.1-4,2-1.2,4.3-.7,6.4-.7,3.3-.1,6.7-.1,10,0C173.2,188,173.6,188.51,173,192.61Z"/><path class="cls-86" d="M150.3,195.81c.3,3.1-1,4.2-4.2,3.9-5.3-.4-10.6.2-15.9-.3-.4-4.1-.4-4.1,3.6-4.1,5.2,0,10.5-.1,15.7-.1C149.8,195.41,150,195.61,150.3,195.81Z"/><path class="cls-74" d="M173,192.61c.2-3.9.2-3.9-3.8-3.9-5.4,0-10.8.1-16.3.1l-.3-.3c-.1-1.2-.3-2.3-.5-3.5.3-1.3-.6-3.1,1.4-3.8h19.4v.6c-1.1,1-2.6.8-3.9.9H158.6c-1.2,0-2.5-.3-3.5.8a1,1,0,0,0,1.1.9c4.5.3,9,.1,13.6.1,1.9,0,2.2-1.7,3.1-2.8.1.1.2.1.3.2C173.6,183.11,173.4,191.61,173,192.61Z"/><path class="cls-87" d="M172.9,178.61l-17.3.3c-1.6,0-2.3-.6-2.3-2.2s.6-2.5,2.4-2.4c5.8.3,11.5.4,17.3.7A5.56,5.56,0,0,1,172.9,178.61Z"/><path class="cls-88" d="M196.8,184.81a4.55,4.55,0,0,1-3.2.8c-4.8,0-9.6-.1-14.4,0-2.3,0-3.6-.7-3.6-3.1,1.2-.9,2.6-.8,3.9-.8,4.7,0,9.4.1,14.1-.1C196,181.61,197.2,182.31,196.8,184.81Z"/><path class="cls-81" d="M152.9,188.91c-.1,1.2-.1,2.5-.2,3.7a1.65,1.65,0,0,0-1.9,0c-.2-1.2.7-2.5-.1-3.7.5-.6,1.1-.6,1.8-.1C152.7,188.81,152.8,188.91,152.9,188.91Z"/><path class="cls-89" d="M107.4,213.41c-.1-1.5-.3-3,.5-4.3h15.4c4.3,0,4.3,0,4.1,4.4A102.85,102.85,0,0,1,107.4,213.41Z"/><path class="cls-90" d="M84.6,220.41c-1-4-.6-4.5,3.2-4.5h12.5c4.3,0,4.3,0,3.9,4.3-.2.2-.5.5-.8.5C97.1,221.51,90.8,222.21,84.6,220.41Z"/><path class="cls-67" d="M84.6,227.51c-1.1-1.3-.9-2.6-.1-4,6.1-2.6,12.4-1.8,18.6-.8,2,.3,1.5,2.8.8,4.6h.1c-3.3.9-6.6.3-9.9.4A76.11,76.11,0,0,1,84.6,227.51Z"/><path class="cls-87" d="M107.9,216c5.2.1,10.5.1,15.7.2,3.6,0,3.9.3,3.7,4l-17.7.3c-2.9,0-1.9-2.3-2.3-3.9Z"/><path class="cls-63" d="M104,227.21c.3-4.2.3-4.4-3.8-4.3-5.2.1-10.4-.2-15.6.5.2-1,.8-2,0-3.1,6.5,0,13-.1,19.5-.1C103.6,222.61,106.2,225,104,227.21Z"/><path class="cls-91" d="M83.9,231c.3-1.4,1.2-1.8,2.5-1.8h15.9c.9,0,1.7.1,1.9,1.2l-.1.3a3.31,3.31,0,0,1-2.3.7c-5.9,0-11.8.2-17.7-.1Z"/><path class="cls-91" d="M84.6,227.51c6.5-.1,13-.2,19.5-.2-.3.6-.9.7-1.6.7H85.7A11.73,11.73,0,0,0,84.6,227.51Z"/><path class="cls-92" d="M106.1,233.71c2.4,2.1,2.2,2.8-1.2,4.3-.5-1.4-1.3-2.8,0-4.3Z"/><path class="cls-93" d="M172.9,227.21H153.5c-1-4.8-.7-5.3,4.1-5.3s9.6-.4,14.4.3C174.7,224.21,174.8,225.11,172.9,227.21Z"/><path class="cls-50" d="M153.4,230.61c5.8,0,11.6,0,17.3-.1,1.3,0,2.3.1,2.3,1.8s-.9,1.9-2.2,1.9H155.4c-2.8,0-1.9-2.1-2-3.6Z"/><path class="cls-94" d="M172.9,227.21a3.76,3.76,0,0,0-.4-4.5c-2-.8-.7-1.8-.2-2.8.7-1,.4-2.3,1.3-3.2-.2-1-.5-1.9-.7-2.9a.82.82,0,0,1,.5-.5c.5-.1,1-.3,1.4-.4.4.4.9.8,1.3,1.2a7.46,7.46,0,0,0,.7,1.2c-2.7,1.9-2.7,3.3,0,5.7l-.1.1c.4.4.5.8-.1,1.1-1.7,1.2-2.7,3.1-1.3,4.5,2.3,2.4.7,3.2-1,4.3-.5-.6-.9-1.2-1.4-1.7-.1-.5-.9-.7-.5-1.4C172.5,227.71,172.7,227.51,172.9,227.21Z"/><path class="cls-61" d="M150.9,240.61c1.3-1.4.8-2.5-.3-3.7-.7-.7-1.7-1.3-.9-2.5a.88.88,0,0,1,.6-.7h.6c1.5-.9,2.6.2,2.4,1.2-.9,3.2.3,6.3-.5,9.4C149.3,243.91,149,243.41,150.9,240.61Z"/><path class="cls-61" d="M172.4,228c.2.5.3.9.5,1.4H155.8V228Z"/><path class="cls-73" d="M84.1,231.21c.5-.3,1-1,1.5-1,6.2.4,12.3-.3,18.5.4.7,2.8-.3,3.8-3.2,3.6q-6.9-.3-13.8,0C84.7,234.41,83.9,233.51,84.1,231.21Z"/><path class="cls-95" d="M149.6,237.41c.6,3-.6,3.9-3.6,3.8-4.2-.2-8.4,0-12.6-.1-1.4,0-3.3.5-3.3-1.8-.1-2.6,2-1.9,3.4-1.9Z"/><path class="cls-96" d="M176.6,222.21c0-.4.1-.8.1-1.1h9.1v1A70.43,70.43,0,0,1,176.6,222.21Z"/><path class="cls-26" d="M44.1,187c4.2,0,8.5-.1,12.7-.1,1.3,0,2.5.2,2.5,2-1.2-1.2-2.7-1.1-4.3-1.2C51.4,187.41,47.6,188.51,44.1,187Z"/><path class="cls-92" d="M104.9,240c.5.2,1.1.4,1.6.6.6,1.3,1.7,2.7-.5,3.6l-2.7-.6C103.7,242.21,104.8,241.41,104.9,240Z"/><path class="cls-97" d="M150.2,146.71a3.94,3.94,0,0,1-.6,4.9c-5.3,0-10.6,0-15.9-.1-4.2,0-4.6-.5-3.5-4.8,1.8-.9,3.7-.5,5.5-.4,4.8.1,9.6-.6,14.5.4Z"/><path class="cls-52" d="M94.2,151.51c-2.7,0-5.5-.1-8.2,0-1.8,0-2.1-.9-2.1-2.4s.1-2.5,2-2.4c5.5.1,10.9.1,16.4,0,2,0,2.2,1,2.2,2.6s-.5,2.4-2.2,2.3c-2.6-.2-5.4-.1-8.1-.1Z"/><path class="cls-56" d="M117.4,151.51h-7.9c-1.6,0-2.7-.5-2.7-2.3a2.39,2.39,0,0,1,2.7-2.7h15.7c1.8,0,2.3.9,2.4,2.5,0,1.8-.7,2.4-2.4,2.4-2.6,0-5.2,0-7.8.1Z"/><path class="cls-97" d="M127.6,157.91c-5,.9-10,.3-15,.3-.5,0-1-.2-1.6-.2-4,0-4.4-.6-3-4.5a90.8,90.8,0,0,1,19.5.1A6.37,6.37,0,0,1,127.6,157.91Z"/><path class="cls-88" d="M129.5,160.61c6.4-.8,12.7-.2,19.1-.4,1.6-.1,2.1,1,2.1,2.4,0,1.2-.1,2.2-1.5,2.3-6.3.2-12.5.3-18.8-.1-.3,0-.6-.5-.9-.8Z"/><path class="cls-98" d="M130,153.51h17.4c1.8,0,3.1.2,3,2.5s-1.4,2.2-3,2.2c-6-.2-12,.4-18-.4C129.7,156.41,128.9,154.81,130,153.51Z"/><path class="cls-97" d="M127.6,140.21c-.1,4.4-.1,4.3-4.6,4.3H110.1c-1.6,0-2.9-.1-3-2.2s1.3-2.2,2.8-2.2c5.4,0,10.9-.1,16.3-.2C126.8,139.61,127.2,139.91,127.6,140.21Z"/><path class="cls-45" d="M106.5,129.61c.3,0,.5-.1.8-.1a3.19,3.19,0,0,1,1.4.3c5.8,0,11.5.4,17.3-.3a2.38,2.38,0,0,1,1.4-.3c.1.2.1.4.2.6.1,1.2-1.9,2.3-.2,3.5-4.4,1.6-8.9.7-13.4.6a26.6,26.6,0,0,0-2.8-.3c-1,.1-2.4-.2-2.4,1.3,0,1.3,1.3,1.1,2.2,1.2,1.1.1,2.3,0,3.5,0,2.5,0,5.1-.1,7.6,0s4.3-.5,5.4-2.8c1.5,3.5.6,5-2.9,5-4.9,0-9.8.1-14.8,0-3.3,0-4.8-2.3-3.1-5.2C107.4,131.71,106.9,130.81,106.5,129.61Z"/><path class="cls-27" d="M130,158.61c5.7,0,11.3.1,17,.1.1,0,.2.3.7,1H130Z"/><path class="cls-45" d="M84.5,137.81c-1.5-1-1.4-2.5-1-3.9s1.9-1.3,3.1-1.3h15c.9,0,1.9-.2,2.6.6l-.3.3c-1.3,1-2.8.7-4.3.7-3.6,0-7.2.1-10.7,0-2.5-.1-4.1.6-4.2,3.3C84.7,137.61,84.6,137.71,84.5,137.81Z"/><path class="cls-25" d="M127.5,153.71c-6.5,0-13-.1-19.5-.1h-1.3c.7-.9,1.7-.7,2.6-.7H125C125.9,152.91,126.9,152.51,127.5,153.71Z"/><path class="cls-42" d="M150.2,146.71H130.1A50.38,50.38,0,0,1,150.2,146.71Z"/><path class="cls-44" d="M84.4,153.31a87.4,87.4,0,0,1,19.8.1l-.3.3a4.82,4.82,0,0,1-3.3.8H87.8a4.55,4.55,0,0,1-3.2-.8A.52.52,0,0,0,84.4,153.31Z"/><path class="cls-45" d="M127,125.61c-6.6,0-13.1,0-19.7.1,1.6-1.2,3.4-.6,5.1-.5C117.3,125.31,122.2,124.51,127,125.61Z"/><path class="cls-55" d="M117.7,111.81c2.5,0,5,.1,7.6,0,1.9,0,2.3.9,2.3,2.6s-1,2.1-2.4,2H109.5c-1.6,0-2.6-.5-2.5-2.4s1.1-2.3,2.6-2.3c2.6.1,5.4.1,8.1.1Z"/><path class="cls-99" d="M140,116.41h-7.9c-1.5,0-2.4-.5-2.3-2.2s.6-2.5,2.4-2.5c5.3.1,10.7,0,16,0,1.8,0,2.3,1.1,2.4,2.6.1,1.8-1.1,2-2.5,2C145.5,116.41,142.7,116.41,140,116.41Z"/><path class="cls-100" d="M140.4,109.31h-8.2c-1.6,0-2.3-.5-2.3-2.2s.9-2.1,2.4-2.1H148a2.18,2.18,0,0,1,2.5,2.5c.1,1.9-1.4,1.8-2.7,1.8Z"/><path class="cls-50" d="M130.2,122.51a3.31,3.31,0,0,1,0-2.4,4.87,4.87,0,0,1,3.3-.7h13.2a12.1,12.1,0,0,1,1.9.1c1.1.2,2.1.8,1.9,2s-1.1,1.4-2.2,1.4H134.8C133.2,122.81,131.6,123.31,130.2,122.51Z"/><path class="cls-101" d="M130.2,122.51c5.8,0,11.6.1,17.3.1,1,0,2.4.2,2.4-1.3s-1.4-1.3-2.4-1.3c-5.8,0-11.6.1-17.3.1.3-1.4,1.5-1.3,2.5-1.3h15c3,0,3.7,1.3,2.5,4.3-6.7.3-13.4.3-20,0A.64.64,0,0,1,130.2,122.51Z"/><path class="cls-102" d="M173.4,153.71c.1,1.6.4,3.2-.5,4.7-5.4,0-10.9.1-16.3.1-1.3,0-2.5.2-3.6-.7v-4.2A198.31,198.31,0,0,1,173.4,153.71Z"/><path class="cls-103" d="M130,172c-.2-.3-.3-.6-.5-.9,5.9,0,11.8.1,17.6.1.9,0,2.4.4,2.4-1.2,0-1.8-1.5-1.4-2.6-1.4h-17c.4-1.8,1.9-1.3,3-1.3l16.5-.3c.7,1.2,2.1,2.3,1.2,3.9-.8,1.4-2.4,1.1-3.7,1.1Z"/><path class="cls-104" d="M149.5,137.61H133.6c-3.7,0-4-.3-3.4-4.3,5.3-.2,10.6-.4,16-.5C150.6,132.71,151.2,133.51,149.5,137.61Z"/><path class="cls-105" d="M140,130.21h-7.2c-1.5,0-2.8-.2-2.8-2.1s1.3-1.8,2.6-1.8h14.8c1.4,0,2.9-.1,2.8,2-.1,1.9-1.5,1.9-3,1.9Z"/><path class="cls-64" d="M140.4,139.81h7.9c1.2,0,2.4.2,2.4,1.8a2.21,2.21,0,0,1-2.3,2.5c-5.6.1-11.1,0-16.7,0-1.6,0-1.9-1.1-1.9-2.3-.1-1.5.7-2,2.1-2Z"/><path class="cls-106" d="M186.2,175h7.5c1.1,0,2.2.5,2.3,1.7.1,1.5-1.3,1.4-2.3,1.4-5.1.2-10.2-.3-15.3.3a1.73,1.73,0,0,1-2.1-1.8c-.1-1.4.9-1.7,2.1-1.8h7.8Z"/><path class="cls-107" d="M84.7,153.61c6.4,0,12.8.1,19.3.1.6,4.7.6,4.7-3.9,4.7H87.8C83.9,158.31,83.4,157.51,84.7,153.61Z"/><path class="cls-106" d="M153.4,171.21c-.1-2.3.7-3.3,3.3-3.2,4.5.2,9,0,13.5.1,1.1,0,2.7-.5,2.8,1.5s-1.5,1.7-2.6,1.7c-5.7-.1-11.4-.1-17-.1Z"/><path class="cls-106" d="M127.4,129.21c-.2.3-.4.5-.6.8-2.6.9-5.3.4-8,.4-3.6,0-7.3.4-10.9-.2l-.6-.6c-.2-2.2.6-3.3,3-3.2,4.7.2,9.5.1,14.2,0C126.7,126.31,127.7,127,127.4,129.21Z"/><path class="cls-54" d="M84.8,137.51c-1.3-3.7-1-4.3,2.8-4.3,5.5,0,10.9.1,16.3.2.4,4,.4,4-3.6,4C95.2,137.51,90,137.51,84.8,137.51Z"/><path class="cls-108" d="M127.5,175c.5,2.9-.6,3.9-3.6,3.8-4.6-.2-9.2-.1-13.8,0-1.5,0-2.8-.2-2.8-2.1s1-2.3,2.7-2.2c5.8.3,11.7-.7,17.5.5Z"/><path class="cls-69" d="M127.3,185c-5.8,0-11.5.1-17.3.1-1,0-2.4.1-2.3-1.4s1.3-1.8,2.5-1.8h16.7A3.77,3.77,0,0,1,127.3,185Z"/><path class="cls-38" d="M127.4,164.81H110.1c-1.5,0-2.8-.1-2.7-2.1s1.2-2.4,2.9-2.3c4.3.1,8.6,0,12.9,0s4.2,0,4.2,4.4Z"/><path class="cls-88" d="M173.3,213.31c-.2.2-.3.4-.5.5-5.7,0-11.3,0-17,.1-2.1,0-2.8-.7-2.7-2.8s1-2.4,2.8-2.3c4.4.1,8.8.1,13.2.2C173.3,209.11,173.3,209.11,173.3,213.31Z"/><path class="cls-104" d="M173.5,216.71c-.3,1.2.3,2.5-.5,3.7a14.19,14.19,0,0,1-5.8,1,59.18,59.18,0,0,0-10.3.4c-1.4.2-2.7,0-3.5-1.4-.8-4.2-.5-4.6,3.6-4.5h13.4C171.5,215.91,172.7,215.61,173.5,216.71Z"/><path class="cls-109" d="M153.4,220.41c3.3,1.1,6.6-.1,9.9,0s6.5,0,9.7-.1c-.3.7-1.7,1.2-.5,2.3-5,.7-10,.1-15,.1-4.4,0-4.4,0-4,4.4C151.4,225,153.6,222.71,153.4,220.41Z"/><path class="cls-97" d="M140.4,179.11c-2.4,0-4.8.1-7.2,0-1.5,0-3.3.2-3.3-2.3,0-2.1,1.2-2.6,3-2.6,4.8.1,9.6.1,14.5,0,1.9,0,3.1.5,3,2.6-.1,1.9-1.3,2.3-3.1,2.2-2.3,0-4.6.1-6.9.1Z"/><path class="cls-27" d="M153.5,181.31c-1,1.3-.8,2.8-.7,4.3a1.23,1.23,0,0,1-1.9,0c1.2-1.9.7-3.4-1.3-4.4.1-1.5,1.2-2.8,2.3-2.8C153.4,178.41,153.3,180.21,153.5,181.31Z"/><path class="cls-110" d="M150.3,233.71a4.35,4.35,0,0,0-.6.7c-6.3,0-12.6-.1-18.9-.1-1.5-3.4-.9-4.4,2.6-4.5,4.3,0,8.5.2,12.8-.1C149.3,229.51,150.6,230.51,150.3,233.71Z"/><path class="cls-105" d="M149.6,220.41c-5.7,0-11.4.1-17,.1-1.3,0-2.6.1-2.6-1.8s.7-2.7,2.6-2.6c4.6.1,9.3.1,13.9,0,3.8,0,4.1.4,3.1,4.3Z"/><path class="cls-71" d="M130.1,227.31c-.1-4.3-.1-4.4,4.3-4.3s8.6.1,12.9,0c1.8,0,2.8.5,2.9,2.4s-1.3,2-2.8,2c-5.8-.1-11.6-.1-17.3-.1Z"/><path class="cls-82" d="M84.6,195.81a1.27,1.27,0,0,1,.1-.6H98.6C93.9,196.21,89.2,195.21,84.6,195.81Z"/><path class="cls-111" d="M117.1,199.71c-2.4,0-4.8-.1-7.2,0-1.7.1-2.6-.6-2.6-2.3s.9-2.1,2.4-2.1h15.4c1.5,0,2.4.4,2.4,2.1s-.9,2.4-2.6,2.3c-2.6-.1-5.2,0-7.8,0Z"/><path class="cls-112" d="M127.5,188.91c0,4.4,0,4.4-4.3,4.4s-8.6-.1-12.9,0c-1.9.1-2.8-.7-2.9-2.4-.1-2,1.4-2,2.8-2,5.8-.1,11.5-.1,17.3,0Z"/><path class="cls-113" d="M126.9,227.31H108c-1.1-3.4-.5-4,2.9-3.9,4.5.1,9,0,13.5.1C127.5,223.51,127.9,224.11,126.9,227.31Z"/><path class="cls-50" d="M130.1,182h17c1.2,0,2.9-.4,3,1.4.1,2-1.5,2.1-3.1,2.1-4.5,0-9-.1-13.5.1-2.9.1-4-.8-3.4-3.6Z"/><path class="cls-114" d="M150.9,185.71h1.9a2.12,2.12,0,0,1-.2,3.1c-.6,0-1.2.1-1.8.1a5.58,5.58,0,0,1-.8-.5l-.3-.3A2,2,0,0,1,150.9,185.71Z"/><path class="cls-115" d="M176.9,202.31h16.4c1.1,0,2.6-.5,3,.9s.4,3-1.4,3.7c-5.1,0-10.3.1-15.4.1C175.8,207.11,175,205.71,176.9,202.31Z"/><path class="cls-86" d="M175.6,209.81a5.07,5.07,0,0,1,3-.9c5,.1,10.1.2,15.1.2,2,0,2.9.7,2.9,2.8s-1.6,1.8-2.9,1.8c-4.6,0-9.2-.2-13.8.1-3.2.1-4.7-.8-4.3-4Z"/><path class="cls-113" d="M80,200.11c-5.2,0-10.4-.1-15.6-.1-1.6,0-3.2.3-3.3-2.2s1.4-2.4,3.1-2.4c1.1,0,2.3-.1,3.4-.1H78c1.2,0,2.7-.5,3.3,1A3,3,0,0,1,80,200.11Z"/><path class="cls-116" d="M108.1,202.31h18.6c1.7,3.6,1.1,4.7-2.7,4.8H110.8C107.1,207,106.4,205.81,108.1,202.31Z"/><path class="cls-112" d="M130.2,189c6.5,0,12.9-.1,19.4-.1,1.1,3.4.5,4.3-2.8,4.3H133.9C130,193.21,129.9,193,130.2,189Z"/><path class="cls-88" d="M130.8,202.31h15.7c4,0,4.5.8,3,4.7h-16C129.7,207,129.1,205.91,130.8,202.31Z"/><path class="cls-85" d="M117.4,240.71h-7.5c-1,0-1.9-.1-1.9-1.5,0-1.2.8-1.7,1.9-1.7h15.7c1.1,0,1.9.4,1.8,1.7s-1,1.4-2,1.4c-2.7,0-5.4,0-8,.1Z"/><path class="cls-98" d="M172.9,181.91c.7,2.8-.4,3.8-3.2,3.7-4.6-.2-9.2-.1-13.8,0-1.2,0-2.4,0-2.4-1.7s1.1-1.9,2.5-1.9c5.6-.1,11.3-.1,16.9-.1Z"/><path class="cls-97" d="M127.4,133.41c.5,2.9-.6,4-3.6,3.8-4.4-.2-8.8-.1-13.2,0-1.7,0-3.3,0-3.3-2.3s1.6-2.1,3.1-2.1l17,.6Z"/><path class="cls-47" d="M107.9,130.21c6.3-.1,12.6-.1,18.9-.2-.4,1-1.4.8-2.2.8-5.2.2-10.4-.3-15.6.3C108.5,131.11,108.2,130.71,107.9,130.21Z"/></g></g></svg>