<svg xmlns="http://www.w3.org/2000/svg" viewBox="0 0 824.75 280.72"><defs><style>.cls-1{fill:#222021;}.cls-2{fill:#232021;}.cls-3{fill:#fff;}.cls-4{fill:#fcfbfb;}.cls-5{fill:#fcfcfc;}</style></defs><title>1Asset 1</title><g id="Layer_2" data-name="Layer 2"><g id="Layer_1-2" data-name="Layer 1"><path class="cls-1" d="M279.5,83.36a357.5,357.5,0,0,1,4-56.6,122.58,122.58,0,0,1,6.7-25.3c.6-1.5,1.2-1.5,2.4-1.2,11.4,3,22.8,5.5,34.4,7.5A390.6,390.6,0,0,0,370.3,13c12.1.8,24.2,1.1,36.3.7a424.85,424.85,0,0,0,52.8-5c13.5-2.2,26.9-5,40.2-8.5,1.4-.4,2-.1,2.6,1.3,4.6,12.1,6.8,24.8,8.3,37.6a389.71,389.71,0,0,1,2.3,51.8c-.5,20.8-1.7,41.5-6.7,61.8-1.1,4.3-2.6,8.3-4,12.5-.4,1.2-.9,1.3-2.1,1-13.7-3.5-27.5-6.5-41.4-8.7-12.7-2-25.4-3.4-38.2-4.2-10.3-.6-20.6-.9-31-.7a417.47,417.47,0,0,0-59.1,5.4c-12.7,2.1-25.3,4.9-37.8,8.1-1.4.4-1.8.1-2.4-1.3-5.1-13.2-7.3-27-8.7-41C280.1,110.46,279.5,97,279.5,83.36Z"/><path class="cls-1" d="M604.2,246.86c1.8-8.7,3.6-17.5,5.3-26.2.3-1.4.6-1.9,2.1-1.9,4.5.1,8.9.1,13.4,0,1.4,0,1.7.4,1.7,1.8,0,19-.1,38.1,0,57.1,0,1.6-.5,1.9-1.9,1.8-2.8-.1-5.7-.1-8.5,0-1.5.1-1.9-.4-1.9-1.9.1-10.7,0-21.5-.3-32.3-.8,4.6-1.7,9.2-2.5,13.8-1.1,6.3-2.3,12.6-3.3,18.9-.2,1.1-.5,1.6-1.7,1.5h-.2c-6.5.2-6.4.2-7.5-6.1-1.6-9.5-3.3-19-5-28.6a4.79,4.79,0,0,0-.3,2.6c0,10-.1,20,0,30,0,1.9-.5,2.3-2.3,2.2-2.8-.1-5.5-.1-8.3,0-1.2,0-1.7-.2-1.7-1.6v-57.6c0-1.1.3-1.5,1.5-1.5,4.6.1,9.3.1,13.9,0,1.3,0,1.6.5,1.8,1.7,1.7,8.8,3.6,17.6,5.4,26.4A.37.37,0,0,1,604.2,246.86Z"/><path class="cls-2" d="M339.1,249.46c0,9.1-.1,18.2.1,27.3,0,2.1-.4,2.8-2.6,2.7a73,73,0,0,0-8.1,0c-1.2,0-1.7-.2-1.7-1.6v-57.6c0-1.2.4-1.5,1.5-1.5q5.25.15,10.5,0c1.4-.1,1.9.5,2.4,1.7,2.6,7.6,5.2,15.2,7.8,22.7a1.21,1.21,0,0,0,.8,1.1v-2.1c0-7.2.1-14.3,0-21.5,0-1.6.5-2,2-2,2.8.1,5.7.1,8.5,0,1.3,0,1.8.2,1.8,1.7-.1,19-.1,38.1,0,57.1,0,1.6-.6,1.9-2,1.8a86.1,86.1,0,0,0-8.8,0c-2,.1-2.9-.6-3.5-2.5-2.7-9.2-5.5-18.3-8.3-27.4A.6.6,0,0,1,339.1,249.46Z"/><path class="cls-2" d="M703.3,249.36V272c0,2.4,1.1,5.6-.5,7-1.3,1.2-4.5.4-6.8.4-4.9,0-4.9,0-4.9-4.9v-53.4c0-1.7.2-2.4,2.2-2.3a75.28,75.28,0,0,0,9.5,0c1.6-.1,2.2.5,2.7,2,2.5,7.4,5.1,14.8,7.6,22.3a2.77,2.77,0,0,0,1,1.7c0-7.9.1-15.8,0-23.6,0-1.8.3-2.4,2.2-2.3a50.78,50.78,0,0,0,7.8,0c1.9-.1,2.3.5,2.3,2.3-.1,17.4,0,34.8-.1,52.2,0,2,.9,4.7-.4,5.8-1.1,1-3.7.4-5.7.3-2.4-.1-5.4,1-7.1-.5-1.5-1.3-1.6-4.3-2.3-6.5-2.2-7.1-4.3-14.2-6.5-21.4-.2-.6-.4-1.1-.6-1.7Z"/><path class="cls-1" d="M22.8,244.66v-23.9c0-1.5.3-2.1,2-2a54.75,54.75,0,0,0,8.1,0c1.8-.1,2.3.4,2.3,2.2-.1,17.9,0,35.8,0,53.7,0,4.7,0,4.7-4.8,4.7a34.71,34.71,0,0,0-5.6.1c-2.4.3-3.2-.8-3.8-2.9-2.5-8.7-5.2-17.4-7.9-26a4,4,0,0,0-.9-1.5v5.7c0,7.6-.1,15.1,0,22.7,0,1.6-.5,2-2,2-2.8-.1-5.7-.1-8.5,0-1.2,0-1.7-.2-1.7-1.5v-57.6c0-1.2.3-1.5,1.5-1.5,3.6.1,7.2.1,10.7,0,1.2,0,1.6.5,2,1.6,2.7,8.1,5.6,16.2,8.3,24.3C22.5,244.66,22.6,244.66,22.8,244.66Z"/><path class="cls-1" d="M505.7,249.36c4.5,2.5,5.1,6.8,5.8,11,.8,4.7.1,9.4.9,14.1.3,1.5.7,3,1.2,4.8h-13c-1.2,0-1.1-1-1.3-1.7a57.37,57.37,0,0,1-1.3-13,21,21,0,0,0-.8-7,4.84,4.84,0,0,0-6-2.8c-1,.4-.6,1.2-.6,1.9,0,6.8-.1,13.7,0,20.5,0,1.6-.3,2.3-2.1,2.2a75.28,75.28,0,0,0-9.5,0c-1.8.1-2.3-.4-2.3-2.3.1-14.9,0-29.8,0-44.6v-12.2c0-.9,0-1.6,1.2-1.5,7.2.2,14.5-.6,21.7.4,7.8,1,10.7,4.1,11.9,11.8a26,26,0,0,1-.4,11.1A9,9,0,0,1,505.7,249.36Z"/><path class="cls-2" d="M529.3,243.66v-22.9c0-1.6.4-2.1,2-2q5.1.15,10.2,0c1.8-.1,2.1.5,2.1,2.2-.1,13.4,0,26.8,0,40.2a21.14,21.14,0,0,0,.2,3.6,2.88,2.88,0,0,0,3.2,2.7,2.79,2.79,0,0,0,3.1-2.7c.1-1.1.3-2.3.3-3.4v-40.5c0-1.6.3-2.3,2.1-2.2,3.6.2,7.2.1,10.7,0,1.1,0,1.5.3,1.5,1.5,0,15.1.2,30.2-.1,45.4-.2,8.9-6,14.3-14.9,14.8-4.1.2-8.1.1-11.9-1.6-6.3-2.8-8.4-8.2-8.4-14.6C529.3,257.36,529.3,250.46,529.3,243.66Z"/><path class="cls-1" d="M384.4,259.26h1.2c1.6,0,3.5-.5,4.8.2s.2,2.8.7,4.3a10.7,10.7,0,0,0,1.3,3.1,5.06,5.06,0,0,0,7.1,1.4,4.77,4.77,0,0,0,1.1-6.5c-1.4-2.4-3.7-4.1-5.8-5.8-4.2-3.3-8.6-6.5-11.9-10.7a16.61,16.61,0,0,1-4.1-9.7c-.7-9.3,4.1-15.4,13.3-17.4,8.9-1.9,17.5,2.2,20.6,9.9a15.46,15.46,0,0,1,.7,2.3c1.6,6.8,1.3,7.3-5.4,7.3h-1.2c-1.7,0-3.6.5-5.1-.2s-.7-2.9-1.2-4.4-1.3-3-3-3.5a4.12,4.12,0,0,0-4.6,1.1,3.64,3.64,0,0,0-.3,4.7c1.4,2.4,3.7,3.9,5.8,5.5a81.91,81.91,0,0,1,10.6,8.9,20,20,0,0,1,5.3,18.2,14,14,0,0,1-9.6,11.3,26.65,26.65,0,0,1-13.7,1c-7.4-1.2-11.8-6.2-12.8-13.9-.2-1.8-.3-3.7-.5-5.6-.1-1,.2-1.5,1.3-1.4C380.8,259.26,382.6,259.26,384.4,259.26Z"/><path class="cls-1" d="M794.4,259.26h1.5c1.5,0,3.4-.5,4.6.2,1.4.8.3,2.8.6,4.3.6,3.2,2.8,5.4,5.6,5.3a4.57,4.57,0,0,0,4.3-6.3c-.9-2.6-3-4.2-5-5.9-4.1-3.4-8.5-6.3-12-10.3-3.9-4.4-6.2-9.4-5.2-15.6s4.6-10.1,10.3-12.1a20.7,20.7,0,0,1,14.1,0,16.7,16.7,0,0,1,10.9,17.2c-.1,1-.4,1.4-1.4,1.4H812.4c-1,0-1.5-.4-1.5-1.4a9.88,9.88,0,0,0-1-4.5,4.41,4.41,0,0,0-6.2-2,4.13,4.13,0,0,0-.8,6.2c2.3,3,5.4,4.9,8.3,7.1,3.8,2.9,7.6,5.9,10.3,10,3.7,5.6,4.1,11.7,1.9,17.9-1.5,4.3-4.7,6.9-8.9,8.3a28.13,28.13,0,0,1-13.5.9c-6.8-1.1-11.1-5.4-12.4-12.3-.4-2.2-.5-4.5-.8-6.8-.2-1.5.4-2,1.9-1.9A18,18,0,0,0,794.4,259.26Z"/><path class="cls-1" d="M67.6,218.76c2.1,0,4.2.1,6.3,0,1.7-.1,2.2.6,2.4,2.1,2.6,15.5,5.3,31,7.9,46.5.6,3.4,1.2,6.9,1.8,10.3.3,1.3,0,1.9-1.5,1.8q-5.1-.15-10.2,0c-1.3,0-1.7-.4-1.9-1.7-.7-5.8-.8-5.6-6.5-5.8-2.4-.1-3.1.6-3.4,3-.5,4.6-.7,4.5-5.3,4.5-2.2,0-4.4-.1-6.6,0-1.8.1-2.4-.3-2.1-2.2,1.3-6.8,2.4-13.7,3.6-20.6,2.1-11.9,4.1-23.8,6.1-35.7.3-1.5.7-2.3,2.4-2.1C63,218.86,65.3,218.76,67.6,218.76Z"/><path class="cls-1" d="M223.4,249.26v-28.6c0-1.6.4-2,2-2,8.9.1,17.9.1,26.8,0,1.6,0,2,.4,2,2q-.15,4.5,0,9c0,1.3-.4,1.7-1.6,1.6-4.4-.1-8.8,0-13.2-.1-1.4,0-1.8.4-1.8,1.8q.15,3.3,0,6.6c-.1,1.4.4,1.8,1.8,1.8,3.3-.1,6.5.1,9.8-.1,1.6-.1,2.3.3,2.2,2.1-.2,3-.1,6,0,9,.1,1.5-.3,2.1-2,2.1-3.2-.1-6.5,0-9.8-.1-1.6-.1-2.1.5-2,2.1.1,2.5.1,5,0,7.6-.1,1.7.4,2.3,2.1,2.2,4.5-.1,8.9,0,13.4-.1,1.5,0,2,.4,1.9,1.9q-.15,4.65,0,9.3c0,1.3-.2,1.9-1.7,1.8-9.4-.1-18.9-.1-28.3,0-1.8,0-1.7-.9-1.7-2.1C223.4,268,223.4,258.66,223.4,249.26Z"/><path class="cls-1" d="M643.4,249v-28.1c0-1.7.4-2.2,2.1-2.2,8.9.1,17.7.1,26.6,0,1.8,0,2.2.5,2.1,2.2-.1,2.9-.1,5.9,0,8.8.1,1.4-.4,1.8-1.8,1.7-4.2-.1-8.5,0-12.7-.1-1.6,0-2.1.5-2,2q.15,3.15,0,6.3c-.1,1.4.4,1.8,1.8,1.8,3.4-.1,6.8,0,10.2-.1,1.3,0,1.7.4,1.7,1.7-.1,3.3-.1,6.5,0,9.8,0,1.5-.5,1.8-1.8,1.7-3.3-.1-6.5,0-9.8-.1-1.5,0-2.2.3-2.1,2,.1,2.7.1,5.4,0,8,0,1.4.4,1.8,1.8,1.8,4.6-.1,9.1.1,13.7-.1,1.7,0,2,.5,2,2q-.15,4.65,0,9.3c0,1.1-.1,1.7-1.5,1.7q-14.25-.15-28.5,0c-1.6,0-1.6-.7-1.6-1.9C643.4,268,643.4,258.46,643.4,249Z"/><path class="cls-1" d="M191.8,252.46l1.8-11.4,3-20.7c.1-1,.4-1.6,1.6-1.6,3.9.1,7.8,0,11.9,0-1.7,9.2-3.3,18.2-4.9,27.2-1.9,10.4-3.8,20.7-5.6,31.1-.3,1.7-.8,2.5-2.7,2.4a83.41,83.41,0,0,0-10,0c-1.6.1-2.1-.6-2.4-1.9-3.6-16.9-7.2-33.7-10.7-50.6-.5-2.1-.9-4.3-1.4-6.4-.3-1.2-.2-1.8,1.3-1.7,3.6.1,7.2.1,10.7,0,1.2,0,1.4.4,1.6,1.5,1.8,10.7,3.6,21.4,5.5,32.1C191.5,252.36,191.7,252.46,191.8,252.46Z"/><path class="cls-1" d="M119,255.66c0,7.2-.1,14.3,0,21.5,0,1.7-.2,2.4-2.2,2.3a83.41,83.41,0,0,0-10,0c-1.8.1-2.1-.5-2.1-2.2.1-14.5,0-29,.1-43.4,0-2.1-.6-2.6-2.6-2.5-2.3.2-4.6,0-6.8.1-1.4.1-1.8-.4-1.8-1.8q.15-4.65,0-9.3c0-1.1.2-1.6,1.4-1.6h33.4c1,0,1.5.2,1.4,1.3-.1,3.3-.1,6.5,0,9.8,0,1.4-.6,1.6-1.8,1.6-2.3-.1-4.6.1-6.8-.1-1.8-.1-2.5.3-2.4,2.3C119,241,119,248.26,119,255.66Z"/><path class="cls-1" d="M437.6,255.36v-21.9c0-1.5-.3-2.2-2-2.1-2.5.2-5,0-7.6.1-1.2,0-1.6-.3-1.5-1.5.1-3.3.1-6.5,0-9.8,0-1.3.5-1.4,1.6-1.4h33.2c1.2,0,1.5.4,1.5,1.5-.1,3.2-.1,6.3,0,9.5,0,1.3-.4,1.7-1.7,1.6-2.4-.1-4.9.1-7.3-.1-1.7-.1-2,.5-2,2,.1,14.5,0,28.9.1,43.4,0,2.2-.6,2.7-2.7,2.6a67.57,67.57,0,0,0-9,0c-2,.1-2.8-.3-2.7-2.6C437.7,269.66,437.6,262.56,437.6,255.36Z"/><path class="cls-2" d="M765.8,255.56v21.9c0,1.5-.3,2-1.9,1.9q-5.1-.15-10.2,0c-1.8.1-2.3-.4-2.3-2.3.1-14.3,0-28.6.1-42.9,0-2.4-.6-3.1-2.9-2.9-2.1.2-4.2,0-6.3.1-1.3.1-1.9-.2-1.9-1.7.1-3.2.1-6.3,0-9.5,0-1.2.4-1.5,1.5-1.5h33.2c1.4,0,1.6.5,1.6,1.7q-.15,4.65,0,9.3c.1,1.5-.5,1.8-1.8,1.7-2.3-.1-4.6.1-6.8-.1-1.8-.1-2.3.3-2.3,2.2C765.9,240.86,765.8,248.16,765.8,255.56Z"/><path class="cls-1" d="M143.3,249.06v-28.3c0-1.6.4-2.1,2-2,3.6.1,7.1.1,10.7,0,1.3,0,1.6.3,1.6,1.6v57.3c0,1.3-.3,1.8-1.7,1.8-3.6-.1-7.2-.1-10.7,0-1.5,0-1.9-.4-1.9-1.9Z"/><path class="cls-1" d="M294.2,249.26v-28.5c0-1.6.3-2.1,2-2q5.25.15,10.5,0c1.3,0,1.8.2,1.8,1.7-.1,19.1,0,38.2,0,57.3,0,1.2-.3,1.7-1.6,1.7-3.6-.1-7.2-.1-10.7,0-1.7.1-1.9-.6-1.9-2.1C294.3,268,294.2,258.66,294.2,249.26Z"/><path class="cls-3" d="M395.8,29.56c8.9-.1,17.7-.4,26.6-.9a424.61,424.61,0,0,0,57.2-7.6c3.2-.6,6.4-1.3,9.5-2.1,1.6-.4,2.3-.1,2.7,1.6a198.19,198.19,0,0,1,3.6,23.1,380.65,380.65,0,0,1,1.9,46.5c-.4,18.4-1.4,36.7-5.2,54.7-.7,3.2-.7,3.2-3.9,2.5a439.78,439.78,0,0,0-49.7-8.1c-13.2-1.4-26.4-2.1-39.7-2.2-4,0-8.1.5-12.2.1,1-1.6,2.6-1.1,3.9-1.1,4.5-.1,4.5-.1,4.5-4.6V33.86C395,32.46,394.6,30.86,395.8,29.56Z"/><path class="cls-3" d="M395.8,29.56v101.5c0,5.9,0,5.9-6,5.9-1.1,0-2.3-.4-3.3.3-11.5.2-22.9,1-34.3,2.2a375.88,375.88,0,0,0-48.2,8.1c-2.1.5-3.1.4-3.6-2.2a258.54,258.54,0,0,1-4.8-42,396.35,396.35,0,0,1,.2-43.6,243.24,243.24,0,0,1,4.8-38.9c.4-2,1.1-2.3,3.1-1.9a417.76,417.76,0,0,0,54.5,8.7C370.6,28.86,383.2,29.26,395.8,29.56Z"/><path class="cls-4" d="M490.7,236.86v-5.6c0-1,.3-1.4,1.4-1.4,4.1-.3,6,1.3,6.2,5.5a25.39,25.39,0,0,1,0,3.9c-.3,3.7-2.8,5.6-6.6,5-1.1-.2-1-.8-1-1.5Z"/><path class="cls-5" d="M63.9,259.86c1.1-8,2.2-15.8,3.2-23.5a.76.76,0,0,1,.4.1c1,6.9,1.9,13.8,3,20.7.3,2.2-.1,3.1-2.5,2.8A18.07,18.07,0,0,0,63.9,259.86Z"/><path class="cls-1" d="M436.8,83.16V45.86c0-1.8.5-2.4,2.3-2.3q7.2.15,14.4,0c1.5,0,1.9.5,1.9,2v75.6c0,1.7-.7,2-2.2,2q-7.05-.15-14.1,0c-1.8,0-2.3-.6-2.3-2.4Z"/><path class="cls-1" d="M338.8,83v37.7c0,1.8-.4,2.4-2.3,2.3a110.28,110.28,0,0,0-11.5,0c-2,.1-2.4-.5-2.4-2.4.1-18.1,0-36.1,0-54.2,0-7,.1-14,0-21,0-1.7.4-2.2,2.2-2.2,4.6.1,9.1.1,13.7,0,1.5,0,2.3.3,2.8,1.9,3.2,9.7,6.6,19.4,10,29.2a14.15,14.15,0,0,0,1.4,3.1c0-.7.1-1.3.1-2v-30c0-1.6.3-2.3,2.1-2.2q6,.15,12,0c1.5,0,2.1.3,2.1,2q-.15,37.95,0,75.9c0,1.5-.4,1.9-1.9,1.9-4.5-.1-9-.1-13.4,0-1.8.1-2.3-.6-2.8-2.1-3.7-12.2-7.5-24.5-11.2-36.7C339.5,83.76,339.6,83.16,338.8,83Z"/></g></g></svg>