<svg xmlns="http://www.w3.org/2000/svg" viewBox="0 0 598.35 149.8"><defs><style>.cls-1{fill:#020202;}.cls-2{fill:#020303;}.cls-3{fill:#020302;}.cls-4{fill:#030303;}.cls-5{fill:#040404;}.cls-6{fill:#060606;}.cls-7{fill:#060707;}.cls-8{fill:#070707;}.cls-9{fill:#090a0a;}.cls-10{fill:#090909;}.cls-11{fill:#222323;}.cls-12{fill:#363636;}.cls-13{fill:#3e3f3f;}.cls-14{fill:#fff;}.cls-15{fill:#fffffe;}.cls-16{fill:#fdfcfc;}.cls-17{fill:#d7d7d6;}.cls-18{fill:#c9c8c8;}.cls-19{fill:#e7e6e5;}.cls-20{fill:#d7d6d5;}.cls-21{fill:#202121;}</style></defs><title>1Asset 1</title><g id="Layer_2" data-name="Layer 2"><g id="Layer_1-2" data-name="Layer 1"><path class="cls-1" d="M5,68c4.6,23.8,37.2,27.9,51.4,18.6C62,83,64,77.4,63.65,71.1c-.3-7.1-4.7-11.8-11-14.1-8-2.8-16.2-4.8-24.3-7.3a58.87,58.87,0,0,1-7-2.6c-16.1-7-18.6-27-5-38.3C26,.8,37,.3,48.45,2.1a66,66,0,0,1,21.9,7.8c1.6.9,3.4,1.5,2.4,4.1-1.4,3.8-2.7,7.6-4.5,12.6-2.8-15.9-14.5-19.2-26.5-21.3-12.9-2.3-23.6,6.9-23.3,19.3a11.28,11.28,0,0,0,5.9,10.2c7.6,4.5,16.3,5.5,24.5,8q5.7,1.65,11.4,3.6C67.85,49.1,73,54.3,74,62.5c1.2,9.7-.9,18.3-9.7,24-13.1,8.6-27.5,8.9-42.3,6A61.51,61.51,0,0,1,2.05,85c-1.9-1.2-2.5-2.2-1.7-4.4C2,77,3.25,73,5,68Z"/><path class="cls-1" d="M349.75,36c0-7.7.1-14.8-.1-21.9-.1-3.8-2-6.8-6.7-8.4,5.8-1.8,10.8-2.7,15.4-5,1.2,1.9.7,3.5.7,5.1q0,31.5.1,62.9a129.9,129.9,0,0,0,1,13.9c.4,3.4,1.2,6.8,4.7,8.9-11.1,2.2-11.1,2.2-15-11.3-3.8,6.1-8.6,10.5-15.2,12.7-13.6,4.5-28.1-.8-36.5-13.4-12.5-18.6-2.5-46.6,19-52.8C329.45,23.2,340.45,25.7,349.75,36Z"/><path class="cls-1" d="M293.35,91.9h-22.8c4.9-2.8,6-7.1,6.1-11.3.4-12.3,1.1-24.6-.7-36.9-1.7-11.4-8.3-17.7-18-17.8-5.9-.1-10.2,2.5-13.2,7.4a40.72,40.72,0,0,0-6.1,17.7,168.43,168.43,0,0,0,.1,33.3c.3,3,1.6,5.3,4.8,7.4h-20.8c5.7-3.3,5.8-8.5,5.9-13.3.3-14.3.4-28.6-.6-42.9-.2-3.2-2-4.7-4.7-6.1,4.5-1.9,9-2.9,13.5-6.1V38.2c2.1-.9,2.2-2.5,2.8-3.7C245.55,24,255,19.7,267.45,22c9.4,1.8,15.8,9.4,17.6,20.5,1.1,6.5,1,12.9.9,19.4a178.25,178.25,0,0,0,.9,21.9C287.35,87.5,288.85,90.1,293.35,91.9Z"/><path class="cls-2" d="M527.15,92c-11.7.5-11.7.5-14.5-10.2-10.4,12.6-20.3,15.6-34.4,10.2-7.2-2.7-12-8-13.2-15.6-1.3-8.3,2.3-14.5,9.1-19.1,6.3-4.3,13.4-5.6,20.8-6.3,4.5-.4,9-.7,13.5-.7,2.7,0,4-.5,3.7-3.5-.3-2.3-.1-4.6-.7-6.9-2.4-9.8-7.1-14.3-15.9-15.1-11.1-1-18.4,2.9-22.3,12-.6,1.4-1.1,2.9-2.1,5.7-1.4-4.8-2.4-8.4-3.6-11.9-.6-1.9.8-2.2,2-2.8,11.6-5.4,23.7-7.7,36.3-4.7,8.1,2,13.2,7.1,14.6,15.7s.8,16.9,1,25.4c.1,5.8.2,11.7.5,17.5C522.25,85.5,523.35,89,527.15,92Z"/><path class="cls-1" d="M147.05,57.6c0,27.8-26.7,45.1-50.4,32.6-11.8-6.2-17.4-16.7-18.2-29.6-1-16.9,6.5-32.5,24.5-38.4,21.1-6.9,42.9,9.1,44,32A19.33,19.33,0,0,1,147.05,57.6Z"/><path class="cls-3" d="M217.75,92.1c-8.2.5-8.2.5-12-10.9-1.8,2.3-3.4,4.6-5.3,6.6-8,8-25.2,9-34.3,2.2-5.8-4.4-7.8-10.7-8.1-17.5-.4-10.3-.1-20.7-.3-31-.1-4.4.8-9.6-5.8-11.3,5.1-1.5,10.1-2.6,15-5.6.6,6.5-.3,12.4-.2,18.3.2,10.6-.7,21.3,1.3,31.8,2,10.3,7.5,15.4,16.4,15.7a18.48,18.48,0,0,0,18.9-14.5c3.3-13.2,2.8-26.7,1.8-40.2-.2-3.3-2.8-3.7-5.6-5.3,5.3-1.9,10.2-3.6,14.7-5.3C216.85,47.3,211.55,69.8,217.75,92.1Z"/><path class="cls-4" d="M425.05,72.9c2.3,2.2,2.1,4,.6,6.3-7.8,12.4-19.1,17.4-33.2,14.6-12.6-2.5-23.9-14.2-26.3-27.1-3.2-17.3,2.9-32.9,16.2-41.4,13.9-8.9,33.5-3.6,43.4,3.2a2.19,2.19,0,0,1,1,2.9c-1.1,3.2-2.1,6.5-3.3,10-1.8-1.1-1.9-2.6-2.5-3.9-4.2-8.8-13.4-15.1-22.1-14.3-10,.9-16.5,6.9-19.6,16.1a51.53,51.53,0,0,0-.2,33.8c3,8.9,8.8,15.3,18.6,16.6,10.7,1.4,18.8-2.9,24.5-11.8C423.05,76.5,423.85,74.9,425.05,72.9Z"/><path class="cls-4" d="M553.75,92h-23.5c6.2-3.4,6.5-8.6,6.7-13.7.4-14,.5-27.9,1-41.9.2-4-1.3-4.9-4.8-4.5a58,58,0,0,1-5.9,0c.1-3.7,2.4-3.6,4.6-3.3,3.7.4,5.5-.2,5.7-4.8.7-15.5,10.8-20.9,23.3-23.4,2.7-.5,4,0,2.6,3a16.82,16.82,0,0,0-.7,2.4c-1,3.3-1.4,7.5-6,2.3-2.6-2.9-5.6-2-7.8,1.3-3.5,5.4-3.3,11.4-2.7,17.4.3,2.8,2.8,1.4,4.4,1.9,2.1.6,6.1-1.6,6.2,1.5.1,3.6-4,1.7-6,1.7-3.2,0-4.6.5-4.6,4.3.2,14.6,0,29.3.8,43.9C547.25,84.5,547.35,89.1,553.75,92Z"/><path class="cls-1" d="M466.55,22.1c-1.3,4.5-2.6,8.6-3.8,12.7-7.8-4.8-12.6-3.3-16.3,5.1a29.13,29.13,0,0,0-2.6,9.6,219.48,219.48,0,0,0,.1,34.4,9.35,9.35,0,0,0,5.4,8h-21.7c6.7-3.5,6.6-10,6.7-15.9.2-13.6-.3-27.3-.6-40.9-.1-3.3-1-6.2-5.5-6.7,5.2-2.2,10.1-2.7,14.8-5v16C449.05,30.3,454.25,21.5,466.55,22.1Z"/><path class="cls-5" d="M583.25,92.8H580c-10.1,0-12.8-2.6-12.8-13-.1-14.5.1-29,.3-43.5.1-3.4-.6-4.9-4.3-4.5-1.5.2-4,1.2-4.6-1.1s1.9-2.5,3.6-3.2c5.5-2.1,8.7-6.5,10.7-11.9a21.15,21.15,0,0,1,2.2-4.9c1.5,4.2,1.2,8.4.9,12.5-.3,3.7.8,5.2,4.6,4.6a13.41,13.41,0,0,1,4,0c1.1.2,3.1-.9,3.1,1.3,0,1.8-1.1,2.7-3.3,2.8-8.5.5-8.4.6-8.5,9.1-.2,12-.9,24,.2,35.9C576.55,83.1,577.45,88.8,583.25,92.8Z"/><path class="cls-6" d="M484.45,136.9c4.1-7.2,8-13.5,11.3-20.2,1.7-3.5,4.3-3.3,7-2.9,3.2.5,1.5,3.3,1.5,4.9.2,7.7.2,15.3.1,23,0,1.7,1.2,4.4-2.4,4.2-2.7-.1-4.4-1.4-4.5-4.2V125.2c0-.6-.1-1.1-.3-2.9-4.3,7.6-8.1,14.1-11.7,20.8-1.8,3.4-3.2,3.8-5.2.1a162.83,162.83,0,0,0-12.2-19.6v18.6c0,1.5.9,3.7-1.8,3.8-3.2.1-2.1-2.5-2.1-4q-.15-12,0-24c0-1.4-1.2-3.9,1.3-4s5.2-1.4,7,2C476.05,122.7,480.15,129.3,484.45,136.9Z"/><path class="cls-7" d="M458.25,145.4c-5.9,1.4-9.6-.6-12.6-5a84.62,84.62,0,0,0-6.7-8.1c-.8-.9-1.7-1.6-3-1.2-1.7.4-1.1,1.9-1.1,2.9a80.33,80.33,0,0,0,0,8.5c.2,2.8-1,3.3-3.5,3.3s-3.6-.4-3.6-3.3c.2-8.7.1-17.3,0-26,0-2.5.9-3.2,3.2-3.1,4,.2,8,0,12,.2,6.3.4,10,2.9,10.5,7.3.7,5.4-3,7.6-7.7,9.5C450.05,135.6,454.05,140.5,458.25,145.4Z"/><path class="cls-6" d="M348.85,129.4c0-4.2.2-8.3-.1-12.5-.1-2.6.7-3.5,3.4-3.3,2.2.1,3.8,0,3.7,3.1-.1,3.6-1.7,8.4.7,10.5,2.6,2.2,7.3.4,11.1.8,3.4.4,5-.6,4.5-4.2-.3-2,.1-4-.1-6-.2-2.7.1-4.2,3.6-4.2s3.7,1.4,3.6,4.1c-.1,8.1,0,16.3-.1,24.4,0,1.4,1.1,3.7-1.8,3.7-2.4,0-4.7-.4-5.2-3.4-.1-.7,0-1.3-.1-2-.4-3.1,1.4-8.1-.8-8.8-4.4-1.4-9.5-.6-14.3-.5-1.6,0-1.2,1.7-1.2,2.8a71.17,71.17,0,0,0,0,8c.3,2.9-.6,4.1-3.8,4.1-3.4,0-3.2-1.8-3.2-4.1C349,137.7,348.85,133.6,348.85,129.4Z"/><path class="cls-8" d="M556.85,123.7v18.9c0,1.8.1,3.4-2.4,3.3s-1.8-1.9-1.8-3.3c0-8.3-.1-16.6,0-24.9,0-1.3-1.1-3.2,1.1-3.8a4.8,4.8,0,0,1,5,1.3c6.4,6.7,12.8,13.4,19.3,20,.4-.2.9-.4,1.3-.6V118c0-1.8-.6-4.1,2.1-4.2,3.3-.2,1.9,2.5,1.9,4q.15,11.7,0,23.4c0,1.5,1,3.7-1,4.4s-3.3-1-4.6-2.3C570.85,136.8,564,130.3,556.85,123.7Z"/><path class="cls-9" d="M527.15,121.9c-1.9,3.6-3.4,6.4-5,9.3,3,2.2,8.1-1.8,9.5,3.5a1.23,1.23,0,0,1-1.7.9c-6.9-1.1-12.3.4-14.4,8-.5,1.9-2.3,2.9-3.9,2-2-1.1-.1-2.6.5-3.7,4.6-8.8,9.2-17.6,13.9-26.4.6-1,.7-2.8,2.5-2.7s2,1.6,2.6,2.7c4.7,9,9.2,18,14,26.9,1.9,3.4.3,3.4-2.4,3.4-3.1,0-4.3-2.1-5.5-4.3C534.05,135.3,530.85,129,527.15,121.9Z"/><path class="cls-10" d="M407.35,132c-1.8-3.5-3.2-6.4-5.1-10.1-3.6,6.8-6.9,13-10.2,19.2-.7,1.3-1.4,2.6-2.2,3.9a2.53,2.53,0,0,1-3.2.7c-1.7-.8-.4-2,.1-2.8,4.8-9.2,9.7-18.4,14.6-27.7,1.5-2.8,3-3.4,4.7-.1,4.8,9.3,9.5,18.6,14.4,27.8,1.5,2.8.2,3-2.1,3-2.9,0-4.9-1.2-5.7-3.8-1.7-5.5-5.4-7.3-10.9-6.5-1.4.2-4,1.2-4.2-1-.2-2.4,2.2-2.8,4.4-2.6C403.45,132.1,405,132,407.35,132Z"/><path class="cls-11" d="M591.05,14.4A6.93,6.93,0,0,1,584,7.1a7.56,7.56,0,0,1,7.1-7.1,7.32,7.32,0,0,1,7.3,7.2A6.85,6.85,0,0,1,591.05,14.4Z"/><path class="cls-12" d="M322.15,131.4c.5,2.5,1.4,3.8,4.5,3.8,2.9,0,4.9,2,4.5,5.3-.4,3.1-2.3,4.6-5.5,4.6-2.4,0-3.8-.6-3.7-3.3s0-5.3.1-8C322.05,133,322.15,132.2,322.15,131.4Z"/><path class="cls-13" d="M332.25,149.6c4.6-4.8,3.2-9.3.1-13.8,2.8.7,2.6,3.4,4.2,4.7,2-.9,1.5-3.9,5-5.5-2.8,5.7-5.1,10.2-7.4,14.8A11.08,11.08,0,0,1,332.25,149.6Z"/><path class="cls-14" d="M349.85,58.8c-.2,5.7-.5,10.9-2,15.8-3,10.3-11.2,16.9-20.9,17-9.2.1-18.2-7-20.9-17.1a55.26,55.26,0,0,1,1.4-33.4c3.2-8.9,10.1-13.2,19.7-13.2s16.3,4.5,19.7,13.2C349.15,47.1,349.65,53.2,349.85,58.8Z"/><path class="cls-15" d="M512.05,63.2c.4,3.9-.5,8.5-1.1,13.1-1.1,8.3-9.1,14.7-18,14.9s-14.8-4.4-16.6-12.6c-2.2-10.1,1.7-18.1,10.5-21.6,6.4-2.6,13.1-3.3,19.9-3.9,4.4-.4,6.2.9,5.4,5.4A22.68,22.68,0,0,0,512.05,63.2Z"/><path class="cls-14" d="M89.55,61.4c-.3-7.3.1-14.6,2.4-21.7,3.2-10.1,11.6-16.7,20.8-16.4,10.4.3,17.3,5.7,20.4,16.5,3.5,12.1,4,24.2,0,36.3-3.4,10.4-10.2,15.2-20.8,15.2-10.4-.1-17.1-5.2-20.5-15.6A58.46,58.46,0,0,1,89.55,61.4Z"/><path class="cls-16" d="M434.85,122.7c.2-3-1.3-6.6,4-6,3.8.4,6.9,1.2,7.2,5.6.2,3.5-3.4,6-8.1,6.1C432.45,128.5,436.05,124.3,434.85,122.7Z"/><path class="cls-17" d="M587.85,3.7c2.6-3,5.3-2.4,7.3.4,1.6,2.3,2.4,5.1-1.1,6.9l-.5-.5c-1.1-2.3-.7-5.9-4.8-5.8A1.79,1.79,0,0,1,587.85,3.7Z"/><path class="cls-18" d="M594,11c-2,3-3.9,2.5-5.9,0a6.37,6.37,0,0,0,.2-.7c2.7-3.4,2.9-3.4,5.8.7Z"/><path class="cls-19" d="M588.05,11c-3.1-2.3-2.8-4.7-.3-7.3a.78.78,0,0,0,.4.4c1.6,2.4,1.1,4.6-.3,6.9Z"/><path class="cls-20" d="M323.25,140.3c-.1-2.2,1-3.5,3.2-3.5s3.3,1.6,3.1,3.6a3.75,3.75,0,0,1-4,3.6C323.15,143.8,323.25,141.9,323.25,140.3Z"/><path class="cls-21" d="M588,11l.3-6.9c6.9-2,5.5,3.2,5.8,6.9C591.35,9,591.35,9,588,11Z"/></g></g></svg>