<svg xmlns="http://www.w3.org/2000/svg" viewBox="0 0 742.88 148.2"><defs><style>.cls-1{fill:#010101;}.cls-2{fill:#fff;}.cls-3{fill:#030303;}.cls-4{fill:#040404;}.cls-5{fill:#030404;}.cls-6{fill:#fcfcfb;}.cls-7{fill:#fcfcfc;}.cls-8{fill:#fdfdfd;}</style></defs><title>1Asset 1</title><g id="Layer_2" data-name="Layer 2"><g id="Layer_1-2" data-name="Layer 1"><path class="cls-1" d="M68,.1c-1.8,7-3.6,14.1-5.9,22.9,11.2-5.3,21.4-9.2,30.7-14.7,7-4.1,12.6-3.3,18.9.7,4.8,3,9.3,6.4,13.8,9.8,3.5,2.6,3.3,4.3-.6,6-5.3,2.4-10.5,4.9-17.2,8.1,12.1,5.8,22.7,11.1,33.6,15.9,4.1,1.8,5.9,4.4,6.8,8.7,1.8,8.6,1.6,17.1,1.2,26.1-7.3-1.5-13-6.1-20.3-8.6-1.1,6.1,2.7,11.2,3,16.9a15.42,15.42,0,0,0,1.5,6.4c8.6,16.2-1.3,25.6-12.5,34.5-7.3,5.8-7.6,5.6-9.8-3.2-.5-2.1-.9-4.3-1.3-6.5-.4-1.9-.8-3.7-1.6-7.4L82.7,148.1H57.6c-9.7-4.1-9.8-4.7-3-13.9,1.1-1.5,3.4-2.9,2.3-5s-3.5-1.2-5.4-1.3c-8.1-.1-16.3-.1-24.4,0a13.3,13.3,0,0,1-11.4-5.7c-3.7-5-7.3-9.9-9.8-15.6-3.8-8.5-2.5-10.7,6.7-10.7,20.7-.1,41.4-.8,62.1.2,11.5.6,16.7-6.3,21.1-14.2C99.6,75,96,67.7,93,61.5c-3.3-6.8-18.4-9.9-25.6-7.2-9.1,3.4-13.8,9.5-14.7,19.1-.4,4.1,0,7.6,2.1,11.2,3.7,6.2,2.4,8.7-4.5,9.1-8.1.4-16.3.2-24.4,0a9.25,9.25,0,0,1-2.9-.4C17.2,91.6.6,70.4.7,64.3c.1-8.5,1.5-16.7,5.8-24.1,3.8-6.5,6.4-6.8,11.8-1.3,2,2,3.3,6.4,6.2,5.7,3.3-.8,2.5-5.3,3.4-8.3,1.7-5.4,2.5-11.1,3.8-16.6,2.7-11.3,7.9-16.1,19.5-18C54.8,1.1,58.5,1.3,62,0,64,.1,66,.1,68,.1Z"/><path class="cls-2" d="M62.1.1C54.7,3.2,46.6,4.2,39.6,8.5c-2.5,1.5-3.8,2.9-4.5,5.9-2.5,12-5.5,23.8-8.5,36.4-5.2-3.8-8.1-9-11.8-13.3-2-2.4-3.2-3.2-5.1.4A86.41,86.41,0,0,0,1.5,61.4c-.6,3-.1,5.9,2.4,8.1a23.28,23.28,0,0,1,1.9,2.3c5.3,6.4,9.5,16.5,16.2,18.5,10.5,3.1,22.7.8,34,.8a7,7,0,0,1,.4-1.1c-10.2-8.5-4.7-18.6-2.9-28.3a5.43,5.43,0,0,1,3.4-4.4A18,18,0,0,0,61.5,55c11.2-9.4,21.2-3.3,31.4,2.2,4.4,2.4,3.5,6.8,4.5,10.4,3.2,11.1-1.1,22.2-10.2,29.2-2.3,1.7-4.7,1.1-7.1,1.1-24.6.1-49.3.1-73.9.2-.2,0-.4.2-1.1.4,3,10,8.6,18.5,15.7,26.1,1.8,2,4,1.5,6.2,1.5H63.3c-4.8,6.3-8.9,11.7-12.9,16.9,1.8,3.3,7.1.3,7.4,5.1-17.7,0-35.4-.1-53.1.1-3.3,0-4.7-.2-4.7-4.3Q.3,74.15,0,4.5C0,.4,1.4.2,4.7.2,23.7.2,42.9.1,62.1.1Z"/><path class="cls-3" d="M485.1,38.3c0-6.7.2-12.9-.1-19-.2-4,1.2-4.8,5-4.9,14.5-.2,14.5-.4,14.5,13.8,0,24.4-.2,48.8.1,73.2.1,5.3-1.7,7.5-6.6,6.4-4.6-1-10.3,3.1-13.9-2.8a25.66,25.66,0,0,0-3.2,1.4c-14.3,7.1-29.9,1.4-35.5-13.8a59.06,59.06,0,0,1-1.1-38.5C449.8,35.8,465.6,29.6,485.1,38.3Z"/><path class="cls-4" d="M373.4,71.2c0-10.4.1-20.7-.1-31.1-.1-3.5,1.1-5.5,4.6-4.4,4.8,1.6,11.1-4.2,14.8,3.1.5.9,2.1-.4,3.2-.9,21.4-9.7,38.7.4,40,24,.8,13.8.1,27.6.3,41.4.1,3.7-1.4,4.4-4.8,4.5-14.5.6-14.4.8-14.4-13.4,0-8.6,0-17.3-.1-25.9a28.21,28.21,0,0,0-.8-6.5c-1.2-6.3-4.6-10.2-11.5-10.1-7.2.1-10.4,4.4-11.6,10.9-2,10.8-.6,21.6-.8,32.4-.2,12.7-3.3,15.1-15.9,12.6-3.8-.8-3-3.3-3-5.6C373.3,91.9,373.4,81.6,373.4,71.2Z"/><path class="cls-5" d="M366.5,71.7c0,10.3-.1,20.7.1,31,.1,3.7-.9,6-4.8,4.9-4.9-1.3-11.3,3.8-15-3.4,0,0-2.4,1.1-3.7,1.8-17.2,8.9-35.3.2-38.2-19.1-2.4-15.9-.7-32-1.1-47.9-.1-2.5,1-3.2,3.4-3.5,14.8-1.9,15.4-1.3,15.7,13.4.2,10.6-1.2,21.2.9,31.7,1.5,7.7,5.6,11.4,12.2,11,6.2-.4,10.8-5.1,11.1-12.5.5-12.1.6-24.1.3-36.2-.1-5.3.7-7.8,7-7.5,12.2.5,12.2.1,12.2,12.6C366.5,56,366.5,63.8,366.5,71.7Z"/><path class="cls-3" d="M232.1,71.9c.5-10.5,2.8-20.4,10.4-28.3a31.54,31.54,0,0,1,47.8,2.8c12.5,16.6,9.9,44.1-5.4,56.2a31.4,31.4,0,0,1-48.4-11.5C233.7,85,231.8,78.7,232.1,71.9Z"/><path class="cls-4" d="M551.7,71.8c-.2-12.3,3.1-23.4,13.2-31.2a31.34,31.34,0,0,1,47.8,11.6c6.5,13.8,6.2,27.7-.8,41.1a31.14,31.14,0,0,1-34.4,15.5,33.74,33.74,0,0,1-25.8-30.4C551.6,76.2,551.7,74,551.7,71.8Z"/><path class="cls-3" d="M631,133.4c.1-4.8,2-8.7,3.9-12.2,5.3-9.3,3.7-17.8-.3-27.1-7.5-17.6-13.8-35.7-21-53.4-2-4.9-.4-5.1,3.7-5.1,15.6-.2,15.5-.3,20.6,15,3.6,11,7.6,22,11.6,33.7,5.2-15,10.2-28.9,14.8-43,1.5-4.6,3.7-6.2,8.4-5.7,4.4.4,8.8.1,14.2.1-6.2,16.1-12.1,31.6-18,47.1-5.5,14.4-11.3,28.8-16.6,43.3-2,5.5-4.6,8.6-11,7.5C638,132.9,634.5,133.4,631,133.4Z"/><path class="cls-3" d="M200.1,34.1c5.5-.6,10.8.9,15.9,2.4,11.7,3.6,11.5,3.6,7.2,14.6-1.6,4-3.1,5.3-7.3,3.1a34.72,34.72,0,0,0-19.3-3.7c-2.8.2-6,.8-6.6,3.7s2.3,4.4,5,5.4c5.6,1.9,11.1,3.8,16.6,6,13.7,5.3,19,12.8,17.4,24.7-1.4,10.8-9.8,17.8-23.7,19.1-10.7,1-20.9-1.3-30.9-5.2-6.9-2.7-4.3-6.3-2.4-10.3,1.7-3.6,2.2-9,8.9-5.1,6,3.5,13,4.6,20,4.3,3.6-.1,8.2.7,9-4.2.9-5.2-3.9-6.1-7.6-7.4-4.6-1.6-9.4-2.9-14-4.7-14.1-5.3-18.7-12.4-16.8-25.5,1.4-9.6,10.6-16.3,23.6-17A41,41,0,0,1,200.1,34.1Z"/><path class="cls-4" d="M712.2,34.2c9.3-.6,16.5,2,23.8,4.4,4.3,1.4,5.5,3.6,3.2,7.5a20.44,20.44,0,0,0-1.8,4c-1.2,5.5-3.9,6.1-8.7,3.6a33.68,33.68,0,0,0-18-3.2c-2.6.2-5.9.1-6.5,3.6s2.1,4.5,4.8,5.5c6.4,2.4,13,4.5,19.3,7.2,11.6,5,15.5,11.8,14.4,23.6-.9,9.4-7.1,15.2-18.7,17.9-13,3-25.3.1-37.2-4.9-3.5-1.5-3.7-3.5-2.1-7,4.3-9.4,4.1-9.4,13.5-6.2a46.62,46.62,0,0,0,18.9,2.6c3-.2,6.1-.6,6.7-4.5s-2.3-5.2-5.1-6.2C712.9,80,707,78.3,701.3,76c-12.7-5-17.9-12.8-16.3-23.8,1.6-10.3,9.3-16.7,22.1-18.1C709.3,34,711.5,34.2,712.2,34.2Z"/><path class="cls-3" d="M547.3,86.5V92c.1,13.5-2.5,16.5-15,17.4-10.4.7-19.1-5.7-20.3-16-.9-7.8-.7-15.7-.7-23.6-.1-16.5.1-33-.2-49.5-.1-4.3.5-6,5.4-6,14.2.1,14.5-.2,14.1,14.1-.2,5.7,1.3,7.9,7.2,7.2,3-.3,7.9-1.7,8.9,1,1.5,4.2,1,9.2.4,13.8-.4,3-3.7,1.5-5.6,1.5-10.7.3-10.7.2-10.7,11.1V80.7c0,10.8,3.6,13,12.9,7.9A25.41,25.41,0,0,0,547.3,86.5Z"/><path class="cls-6" d="M485.1,72.1a54.59,54.59,0,0,0,.1,8.1c.7,6-2,8.9-7.6,10.5s-10.2,0-12.7-4.6c-5.2-9.1-5-18.9-1.1-28.4,2.5-6,8.1-6.8,13.8-5.2,5.3,1.4,8.5,4.5,7.7,10.7C484.8,66.1,485.1,69.1,485.1,72.1Z"/><path class="cls-7" d="M251.5,71.7c0-12.5,5.8-20.3,14.6-19.7,9.7.7,13.8,11.3,12.7,22.2-1.2,11.7-6.8,17.7-14.3,17.3C256.6,91.1,251.5,83.4,251.5,71.7Z"/><path class="cls-8" d="M597.8,72.1c-.1,11.5-5.7,19.4-13.8,19.4S570.7,84,570.7,72a36.45,36.45,0,0,1,.7-8.1c1.8-7.9,7.1-12.3,13.7-11.9,6,.3,11,5.4,12.3,12.7A62.28,62.28,0,0,1,597.8,72.1Z"/></g></g></svg>