<svg xmlns="http://www.w3.org/2000/svg" viewBox="0 0 802.66 96.6"><defs><style>.cls-1{fill:#676767;}</style></defs><title>1Asset 5</title><g id="Layer_2" data-name="Layer 2"><g id="Layer_1-2" data-name="Layer 1"><path class="cls-1" d="M303.21,40.82c-8-2.2-10.3,1.11-9.9,8.9.6,12.1-.1,24.21.3,36.3.2,5.4-1,7.9-7.1,7.5a138.36,138.36,0,0,0-22.3,0c-6.2.5-7.1-2.1-7-7.5.3-12.7.2-25.4.1-38.2,0-2.3,1.2-6.4-1.3-6.7-10.1-1-5.3-8.4-6.3-13.3-.2-1,.6-3.3.9-3.3,11.3-.1,6.4-8.8,6.4-13.6.1-6.6,2.2-8.7,8.6-8.2a155.82,155.82,0,0,0,20.5,0c5.5-.3,8.2,1.2,7.5,7.2a57.75,57.75,0,0,0,0,9.3c0,1.9.4,4.8,2.2,4.5,12.4-2.1,7.8,7.8,9.6,13.8,15.8-19.9,36.3-17.9,57.2-13.1a22.84,22.84,0,0,1,15,11.5c7.4,13.3,4.5,18.5-10.3,18.5-2.5,0-5-.2-7.4,0-8.8.8-16.4.7-13.6-11.8.6-2.5-.1-4.9-3.7-5-4.1-.1-3.3,2.9-3.3,5.1-.1,10.2,0,20.5,0,30.7,0,2.5-.4,5,3.6,4.9,3.8-.1,4-2.6,3.5-5.1-2.2-11,3.3-13.1,12.7-11.9a43.58,43.58,0,0,0,13,0c9.7-1.6,9.9,3.3,8.5,10.6-2,10.9-8.4,18-18.6,20.9a69.63,69.63,0,0,1-36.8.6C312,90.12,305.11,82,304,68.62c-.7-8.9-1-18,1-26.8V39.43C304.31,40,303.71,40.43,303.21,40.82Z"/><path class="cls-1" d="M145.51,64.12c-.8,7.7-1.7,15.4-2.2,23.1-.3,4.6-2.1,6.4-6.9,6.3-9.6-.3-19.3-.4-28.9,0-4.6.2-5.9-2.1-6.7-5.7-4.2-19.3-8.4-38.6-12.8-57.9-1.1-4.7.5-5.7,5-5.9,25.9-1.2,25.9-1.3,29.6,23.8.3,1.8.3,3.7.7,7.8,5.1-8.5,4.7-16.1,4.9-23.2.2-6.4,1.9-8.9,8.5-8.3,8.6.8,20.1-3.5,25.1,1.6,4.8,4.9,3,16.3,4.2,24.8a21.86,21.86,0,0,0,2.9,8.7c1.3-10,2.9-20.1,3.9-30.1.4-4.1,2-5.1,5.8-5,8.7.3,20.2-3.1,25.3,1.2,5.6,4.8-1.5,15.5-2.9,23.7-2.3,12.8-5.7,25.3-8.1,38-1,5.4-3.3,6.8-8.5,6.5-9-.5-18-.3-27,0-4.5.1-6.5-.9-6.7-6-.4-7.8-1.9-15.6-3-23.4A16.15,16.15,0,0,0,145.51,64.12Z"/><path class="cls-1" d="M64,31.93c-4.6,0-9.3-.11-13.9,0-3.2.1-5.2-.5-5.2-4.5,0-2.5,2.1-6.8-3.4-6.71-2.4,0-3.1,1.4-3.2,3.5-.1,3.71-.8,7.4,4.3,8.8,8,2.1,16.2,4.1,23.9,7.1,15.8,6.2,21,16.6,17.6,33.1-1.7,8.5-6.3,15-14.3,18.1-18.3,7.11-36.9,6.9-55.2.21C4.91,87.93-.29,77.93,0,67.82c.1-4,1.2-5.5,5.3-5.29,7.1.29,14.3.2,21.4,0,6.8-.21,13.7-1.1,11.7,9.5-.4,2.29.6,4.2,3.6,4.29,3.5,0,2.8-2.6,3-4.6.6-5.4-.1-9-6.9-10.5a96.61,96.61,0,0,1-24.2-8.79c-9.2-5-13.2-12.8-12.9-22.9s3.3-19.3,13.4-23.6c18.5-8,37.2-7.71,55.9-.3a20.18,20.18,0,0,1,8,6.2c4.3,5.4,6.6,12.2,4.2,18.2-1.8,4.5-8.4,1.2-12.7,1.9C67.81,32.12,65.91,31.93,64,31.93Z"/><path class="cls-1" d="M421.81,28c3.8-1.6,6.8-3.1,10-4.1,18-5.8,31.8,4,32,22.8.1,13.6-.1,27.3.1,40.9.1,4.4-1.2,6-5.7,5.8-9.5-.4-21.7,3.1-27.9-1.5-5.9-4.4-1.3-17.3-1.8-26.5-.3-4.9,0-9.9-.1-14.9-.1-2.5,1.2-5.9-3.6-5.7-4.6.3-3.4,3.6-3.4,6.1-.1,12.1-.3,24.2.1,36.2.1,4.9-1.3,6.5-6.2,6.2a224.42,224.42,0,0,0-23.2,0c-5,.2-6.2-1.6-6.2-6.4q.3-38.55,0-77.1c0-5,1.1-7.8,6.6-7.1a26.15,26.15,0,0,0,2.8,0c8.3.2,18.7-2.4,24.4,1.6C425.11,8.43,420,19.52,421.81,28Z"/><path class="cls-1" d="M685.51,67.22v.9c-.6,8.2,3.7,19.5-1.8,23.9-5.2,4.1-16,1.3-24.3,1.3-2.8,0-6.1,1.3-7-3.7-.6-3.2-2.9-.2-4.1.4a32.52,32.52,0,0,1-13.1,4.2c-23.9,2.5-29.3-11.5-25.4-30.2,1.4-6.5,6.7-10.1,13.2-11.7,7.3-1.8,14.7-1.9,22.2-1.9,5,0,8.1-5.9,5.4-10.1a4.27,4.27,0,0,0-3-1.6c-1.7-.3-3.2.6-3.1,2.5.2,6.6-4.5,5.3-8.4,5.3q-8.4.15-16.8,0c-8.7-.1-9.6-1.6-6.4-9.8s10-11.9,17.6-13.5c11.6-2.4,23.4-2.7,35,.2,13.8,3.4,19.6,11,19.9,25.2C685.61,54.82,685.51,61,685.51,67.22ZM651,68.32c-.6-2.6,1.5-6.7-3.8-6.5-4.7.21-3,3.9-2.9,6.11.1,2.5-2.3,6.7,2.9,7S650.41,70.93,651,68.32Z"/><path class="cls-1" d="M505.11,58.52v15.8c0,2.5.5,4.2,3.5,4.1s3.1-2,3.4-4.3c1.5-12.5,1.6-12.5,14.6-12.5H535c13.7,0,14.8,1.4,10.4,14.5-2.8,8.5-8.7,14.5-17.3,16.8a73.71,73.71,0,0,1-37.6.6c-10.6-2.6-17.3-8.9-19.7-19.6a65.4,65.4,0,0,1,.4-32c2.4-9.2,8.3-15.1,17.2-17.7a68.61,68.61,0,0,1,41.1.4,23.86,23.86,0,0,1,14,11.5c2.9,5.3,5.5,11.7,3.2,16.7-1.8,4-8.5,1.1-13,1.6-2.8.3-5.6-.2-8.4.1-9,.9-16.1.1-13.4-12,.5-2.1.2-4.5-3-4.7-3.7-.3-3.8,2.2-3.8,4.9Z"/><path class="cls-1" d="M744.71,39.62c-5.2,2-13-2-15.6,2.4s-1,11.4-1.1,17.2c-.1,9.3-.3,18.6.1,27.9.2,4.7-1.1,6.7-6.1,6.4-8-.4-16.1-.3-24.1,0-4,.1-5.3-1.2-5.3-5.2.2-23.8.1-47.7.1-71.5,0-8.3,4.7-12.9,12.5-13.3,11.4-.6,22.9-.5,34.3-.4,7.6.1,4,6.1,4.7,9.7.7,3.8-.1,6.21-5.2,6.4-3.6.1-10.2-3.2-10.5,2.9-.3,7.9,7,2.6,10.7,4,1.6.6,3.7.3,5.5.3Z"/><path class="cls-1" d="M754.31,22.82a5.76,5.76,0,0,1,.4-.79c1.7-6-2.5-14.1,2.1-17.71,5-4,13.1-1,19.9-1.29,2.8-.21,5.6.2,8.4-.1,4.5-.4,6.1,1.7,5.8,6-.2,3.1.1,6.2-.1,9.29-.2,4.3,1.2,6.6,5.8,5.9,6.3-1,6.3,3.1,5.9,7.4-.3,3.9,1.8,9.6-5.6,8.8-6.1-.6-6.2,3-6.2,7.5.2,12.1-.5,24.2.3,36.3.5,8.1-2.4,10.2-9.9,9.4a77.69,77.69,0,0,0-16.7,0c-7.1.7-9.5-1.3-9.4-8.9.2-14.5,1.4-29.1-.6-43.6C754.31,34.93,754.31,28.93,754.31,22.82Z"/><path class="cls-1" d="M552.21,59.12c0-9.6.2-19.2-.1-28.8-.2-5,1.7-6.39,6.4-6.2,7.7.3,15.5,0,23.2.1,2.2,0,5.4-1.2,5.9,2.6.7,5.11,3.1,2,4.9,1.11,2-.9,3.8-2.21,5.8-2.8,5.6-1.9,10.6-2.7,9.2,6.1a34.89,34.89,0,0,0,0,5.6c0,13.5,0,13.8-13.1,13.9-5.5.1-6.9,2.1-6.7,7.1.3,9.6-.1,19.2.2,28.8.2,5-1,7.3-6.6,7a150.9,150.9,0,0,0-22.3,0c-6.2.5-7.2-2.2-7-7.5C552.41,77,552.21,68,552.21,59.12Z"/><path class="cls-1" d="M245.91,59.32c0,9.3-.2,18.61.1,27.8.2,4.7-.9,6.7-6,6.4-9.5-.6-21.7,2.9-27.8-1.7-5.7-4.4-1.4-17.3-1.6-26.5-.3-11.4.1-22.9-.2-34.3-.1-5,1-7.3,6.5-6.8,9.4.9,21.7-3.9,27.5,2,4.6,4.6,1.3,16.9,1.5,25.8Z"/><path class="cls-1" d="M227.81,17c-3.1,0-6.2-.2-9.3,0-5.1.4-8.4.2-8.3-6.9.1-6.8,2.9-7.5,8.3-7.3,7.4.3,14.8.4,22.2,0,6-.29,5.3,3.5,5.3,7.21s1,7.7-5.2,7.1C236.41,16.62,232.11,17,227.81,17Z"/><path class="cls-1" d="M303.21,40.82c.5-.39,1-.7,1.6-1.1v2.4C304.21,41.62,303.71,41.22,303.21,40.82Z"/><path class="cls-1" d="M651,68.32c-.6,2.61,1.4,6.9-3.7,6.61s-2.8-4.5-2.9-7c-.1-2.21-1.9-6,2.9-6.11C652.51,61.62,650.41,65.72,651,68.32Z"/></g></g></svg>