<svg xmlns="http://www.w3.org/2000/svg" viewBox="0 0 600.1 442.57"><defs><style>.cls-1{fill:#fff;}.cls-2{fill:none;stroke:#231815;stroke-width:16.03px;}.cls-3{fill:#231815;}</style></defs><title>1Asset 3</title><g id="Layer_2" data-name="Layer 2"><g id="layer"><polyline class="cls-1" points="15.91 174.84 299.75 9.27 584.2 173.54 300.44 340.76 15.91 174.84"/><polygon class="cls-2" points="15.91 174.84 299.75 9.27 584.2 173.54 300.44 340.76 15.91 174.84"/><polygon class="cls-2" points="15.91 174.15 300.09 9.27 584.2 174.15 300.09 340.76 15.91 174.15"/><path class="cls-3" d="M12.79,385.55V426.8c0,5.72,1.64,10.57,8.23,10.57s8.23-4.85,8.23-10.57V385.55h6.06V427c0,9-4.15,15.6-14.29,15.6s-14.3-6.5-14.3-15.6V385.55h6.07"/><polyline class="cls-3" points="62.09 385.56 76.56 426.97 76.73 426.97 76.73 385.56 82.79 385.56 82.79 441.7 76.3 441.7 58.79 392.83 58.71 392.83 58.71 441.7 52.64 441.7 52.64 385.56 62.09 385.56"/><rect class="cls-3" x="100.56" y="385.55" width="6.06" height="56.14"/><polyline class="cls-3" points="127.24 385.56 137.12 430.09 137.29 430.09 147.17 385.56 153.24 385.56 140.06 441.7 134.43 441.7 121.18 385.56 127.24 385.56"/><polyline class="cls-3" points="193.09 385.56 193.09 390.67 173.51 390.67 173.51 409.81 187.98 409.81 187.98 414.93 173.51 414.93 173.51 436.59 194.04 436.59 194.04 441.7 167.44 441.7 167.44 385.56 193.09 385.56"/><path class="cls-3" d="M209.73,385.55h13.51c9,0,15.42,5.29,15.42,14.56,0,6.33-2.77,11.61-9,13.78l9.53,27.81h-6.41l-9-26.6-8,.35V441.7h-6.06V385.55m6.06,24.61h5.29c8.75,0,11.52-3.46,11.52-9.7s-2.77-9.71-11.52-9.71h-5.29Z"/><path class="cls-3" d="M276.44,400c-.43-5.71-2.77-10.13-8.66-10.13-4.68,0-7.71,3.12-7.71,7.36,0,12.65,22.52,12.82,22.52,30.85,0,8.92-5.11,14.29-14.38,14.29-8.84,0-14.12-6.5-14.21-15.85h5.63c.18,6.58,3.29,10.74,9.27,10.74,5,0,8.32-3.29,8.32-9.27,0-12.74-22.53-14.21-22.53-30.24,0-7.88,5.46-13.08,13.52-13.08s13.34,5.46,13.86,15.25h-5.63"/><path class="cls-3" d="M315.08,385.55l12.39,56.15h-6.06L318,425.06h-14.3l-3.38,16.64h-6.06l12.39-56.15h8.4M304.51,420h12.57l-6.24-30.15h-.18Z"/><polyline class="cls-3" points="347.05 385.56 347.05 436.59 365.25 436.59 365.25 441.7 340.99 441.7 340.99 385.56 347.05 385.56"/><path class="cls-3" d="M420.44,385.55l12.39,56.15h-6.06l-3.38-16.64h-14.3l-3.38,16.64h-6.06L412,385.55h8.4M410,420h12.56l-6.24-30.15h-.17Z"/><path class="cls-3" d="M452.5,385.55V426.8c0,5.72,1.64,10.57,8.23,10.57S469,432.52,469,426.8V385.55H475V427c0,9-4.16,15.6-14.3,15.6s-14.3-6.5-14.3-15.6V385.55h6.07"/><path class="cls-3" d="M493.05,385.55h10.39c11.87,0,19,6.5,19,28.08s-7.19,28.07-19,28.07H493.05V385.55m6.06,51h3.29c8.84,0,14-3.73,14-23s-5.11-23-14-23h-3.29Z"/><rect class="cls-3" x="540.18" y="385.55" width="6.06" height="56.14"/><path class="cls-3" d="M579.08,442.48c-9.53,0-15.85-7.89-15.85-28.85s6.41-28.86,15.85-28.86,15.86,8,15.86,28.86-6.33,28.85-15.86,28.85m0-52.59c-5.45,0-9.79,4.68-9.79,23.74s4.34,23.74,9.79,23.74,9.79-4.68,9.79-23.74S584.54,389.89,579.08,389.89Z"/><path class="cls-3" d="M359.36,198.93l135.77-7.45v-6.24l-135.77-.61V114.1s0-2.42-.09-5.2c0-1.64.09-3.72.09-6.23.26-47.74-40.9-44.8-41.59-44.71-.69-.09-41.85-3-41.59,44.71,0,2.51,0,4.59.09,6.23,0,2.78-.09,5.2-.09,5.2v70.27h-9L252,204.9l24.17-1.29v33.61c-.09,27.12-21.75,25.39-22.27,25.3h0c-.6.09-22.52,1.82-22.61-25.3V135.68s0-2.43-.09-5.2c0-1.65.09-6.5.09-9-.61-42.11-49.56-26.86-49.56-26.86s30.15-1,30.24,26.6c0,3.55.09,11,.17,13.34v90.8s.09,3.29,0,11.44c-.26,48,41.42,45,41.76,45s41.85,3,41.59-45c-.08-8.06,0-11.44,0-11.44V202.48L340.38,200v37.86h-.08c0,1.65-.09,6.5-.09,9,.61,42.11,49.56,26.86,49.56,26.86s-30.15.95-30.24-26.6c0-2,0-5.11-.09-8h0v-40.2m-64.11-14.56V113c0-2.34.17-7,.17-10.57C295.59,74.94,317.94,77,317.94,77S340,74.85,340,102.41c0,3.55.08,8.23.17,10.57v71.56Z"/><rect class="cls-3" x="427.2" y="145.12" width="2.95" height="26.6"/><path class="cls-3" d="M449.9,145.12h3v26.6H448l-7.45-21.31a23,23,0,0,1-1-4h-.09c.09,1.39.09,2.77.09,4.07v21.23h-2.95v-26.6h4.77L449,166.87c.26.78.52,1.64.86,2.94h.09c0-.95-.09-2-.09-2.94V145.12"/><path class="cls-3" d="M470.87,153.18c-.09-3.12-1.13-5.89-4.77-5.89-5.11,0-5.2,7.28-5.2,10.83-.17,3.64-.26,11.69,5.2,11.69,3.47,0,4.25-2.85,4.59-5.8.09-.61.09-1.21.18-1.82h2.94c-.08.52-.08,1.13-.17,1.65a10.61,10.61,0,0,1-1.56,5.63,6.72,6.72,0,0,1-5.81,2.94c-8.14,0-8.49-7.88-8.49-14.29,0-6,.87-13.52,8.49-13.52,5,0,7.63,3.73,7.54,8.49h-2.94"/><rect class="cls-3" x="478.84" y="168.17" width="3.21" height="3.55"/></g></g></svg>