<svg id="Group_368" data-name="Group 368" xmlns="http://www.w3.org/2000/svg" xmlns:xlink="http://www.w3.org/1999/xlink" width="23.158" height="40.886" viewBox="0 0 23.158 40.886">
  <defs>
    <linearGradient id="linear-gradient" x1="0.5" x2="0.5" y2="1" gradientUnits="objectBoundingBox">
      <stop offset="0" stop-color="#3e7c43"/>
      <stop offset="1" stop-color="#7ec54f"/>
    </linearGradient>
  </defs>
  <g id="Group_367" data-name="Group 367">
    <path id="Path_247" data-name="Path 247" d="M262.8,155.313a.6.6,0,0,0-.6.6v.078a.6.6,0,1,0,1.2,0v-.078A.6.6,0,0,0,262.8,155.313Z" transform="translate(-250.13 -142.91)" fill="url(#linear-gradient)"/>
    <path id="Path_248" data-name="Path 248" d="M245.447,126.79a.6.6,0,1,0-1.2,0v.078a.6.6,0,1,0,1.2,0Z" transform="translate(-233.608 -116.114)" fill="url(#linear-gradient)"/>
    <path id="Path_249" data-name="Path 249" d="M244.848,185.4a.6.6,0,0,0-.6.6v.078a.6.6,0,1,0,1.2,0V186A.6.6,0,0,0,244.848,185.4Z" transform="translate(-233.608 -170.598)" fill="url(#linear-gradient)"/>
    <path id="Path_250" data-name="Path 250" d="M128.35,101.317h-.908v-6.71a7.338,7.338,0,0,0-1.091-3.862.6.6,0,1,0-1.019.63,6.141,6.141,0,0,1,.912,3.232v6.71h-8.858a.6.6,0,1,0,0,1.2H128.35a.168.168,0,0,1,.158.176v.775a.168.168,0,0,1-.158.176H117.367a.6.6,0,1,0,0,1.2h8.877v5.6a.168.168,0,0,1-.158.176H114.62a.168.168,0,0,1-.158-.176v-5.6h.614a.6.6,0,1,0,0-1.2h-2.72a.168.168,0,0,1-.158-.176v-.775a.168.168,0,0,1,.158-.176h2.776a.6.6,0,0,0,0-1.2h-.671v-6.71a5.976,5.976,0,0,1,5.891-6.045,5.745,5.745,0,0,1,3.494,1.177.6.6,0,1,0,.723-.955,6.934,6.934,0,0,0-4.217-1.42,7.175,7.175,0,0,0-7.089,7.242v6.71h-.908A1.367,1.367,0,0,0,111,102.691v.775a1.367,1.367,0,0,0,1.356,1.374h.908v5.6a1.367,1.367,0,0,0,1.356,1.374h11.465a1.367,1.367,0,0,0,1.356-1.374v-5.6h.908a1.367,1.367,0,0,0,1.356-1.374v-.775A1.367,1.367,0,0,0,128.35,101.317Z" transform="translate(-111 -80.388)" fill="url(#linear-gradient)"/>
    <path id="Path_251" data-name="Path 251" d="M141.813,410.36H140.6v-1.882a.6.6,0,0,0-.355-.547A16.171,16.171,0,0,0,136,406.824V403.44a.6.6,0,0,0-1.2,0v3.288c-.176-.007-.353-.011-.533-.011s-.357,0-.533.011V403.44a.6.6,0,0,0-1.2,0v3.384a16.177,16.177,0,0,0-4.248,1.107.6.6,0,0,0-.355.547v1.882H126.72a.6.6,0,1,0,0,1.2h15.093a.6.6,0,0,0,0-1.2Zm-2.41,0H129.13v-1.476a14.095,14.095,0,0,1,10.273,0Z" transform="translate(-124.913 -370.672)" fill="url(#linear-gradient)"/>
    <path id="Path_252" data-name="Path 252" d="M220.623,155.912v.078a.6.6,0,1,0,1.2,0v-.078a.6.6,0,0,0-1.2,0Z" transform="translate(-211.869 -142.91)" fill="url(#linear-gradient)"/>
    <path id="Path_253" data-name="Path 253" d="M184.812,322.693a1.721,1.721,0,0,0,3.256,0h1.391a.6.6,0,1,0,0-1.2h-1.391a1.721,1.721,0,0,0-3.256,0h-1.391a.6.6,0,1,0,0,1.2Zm1.628-1.163a.565.565,0,1,1-.533.564A.55.55,0,0,1,186.44,321.53Z" transform="translate(-177.087 -294.752)" fill="url(#linear-gradient)"/>
    <path id="Path_254" data-name="Path 254" d="M221.222,38.828a.6.6,0,1,0,0,1.2,9.741,9.741,0,0,1,9.589,9.866.6.6,0,0,0,1.2,0A10.94,10.94,0,0,0,221.222,38.828Z" transform="translate(-211.869 -35.727)" fill="url(#linear-gradient)"/>
    <path id="Path_255" data-name="Path 255" d="M221.222,0a.6.6,0,1,0,0,1.2,12.805,12.805,0,0,1,12.607,12.966.6.6,0,0,0,1.2,0A14,14,0,0,0,221.222,0Z" transform="translate(-211.869)" fill="url(#linear-gradient)"/>
    <path id="Path_256" data-name="Path 256" d="M177.152,155.912v.078a.6.6,0,1,0,1.2,0v-.078a.6.6,0,0,0-1.2,0Z" transform="translate(-171.869 -142.91)" fill="url(#linear-gradient)"/>
    <path id="Path_257" data-name="Path 257" d="M197.6,185.4a.6.6,0,0,0-.6.6v.078a.6.6,0,1,0,1.2,0V186A.6.6,0,0,0,197.6,185.4Z" transform="translate(-190.13 -170.598)" fill="url(#linear-gradient)"/>
    <path id="Path_258" data-name="Path 258" d="M198.195,126.79a.6.6,0,0,0-1.2,0v.078a.6.6,0,0,0,1.2,0Z" transform="translate(-190.13 -116.114)" fill="url(#linear-gradient)"/>
  </g>
</svg>
