<svg xmlns="http://www.w3.org/2000/svg" xmlns:xlink="http://www.w3.org/1999/xlink" width="60" height="60.016" viewBox="0 0 60 60.016">
  <defs>
    <style>
      .cls-1 {
        fill: url(#linear-gradient);
      }
    </style>
    <linearGradient id="linear-gradient" x1="0.5" x2="0.5" y2="1" gradientUnits="objectBoundingBox">
      <stop offset="0" stop-color="#3e7c43"/>
      <stop offset="1" stop-color="#7ec54f"/>
    </linearGradient>
  </defs>
  <g id="Page-1" transform="translate(0 0.016)">
    <g id="_056---Listen-To-Podcast" data-name="056---Listen-To-Podcast" transform="translate(0 -1)">
      <path id="Shape" class="cls-1" d="M57,28H56V27a2,2,0,0,0-1.019-1.732,24.991,24.991,0,0,0-49.962,0A2,2,0,0,0,4,27v1H3a3,3,0,0,0-3,3V43a3,3,0,0,0,3,3H4v1a2,2,0,0,0,2,2h5a3,3,0,0,0,3-3V28a3,3,0,0,0-2.95-3,18.975,18.975,0,0,1,37.9,0A3,3,0,0,0,46,28V46a3,3,0,0,0,3,3h5a2,2,0,0,0,2-2V46h1a3,3,0,0,0,3-3V31a3,3,0,0,0-3-3ZM3,44a1,1,0,0,1-1-1V31a1,1,0,0,1,1-1H4V44Zm9-16V46a1,1,0,0,1-1,1H6V27h5A1,1,0,0,1,12,28ZM30,5A21.008,21.008,0,0,0,9.051,25H7.025a23,23,0,0,1,45.95,0H50.949A21.008,21.008,0,0,0,30,5ZM54,47H49a1,1,0,0,1-1-1V28a1,1,0,0,1,1-1h5Zm4-4a1,1,0,0,1-1,1H56V30h1a1,1,0,0,1,1,1Z"/>
      <path id="Shape-2" data-name="Shape" class="cls-1" d="M43.051,18.13a1,1,0,0,0,.767-1.64,17.955,17.955,0,0,0-27.636,0,1,1,0,0,0,1.537,1.28,15.955,15.955,0,0,1,24.562,0,1,1,0,0,0,.77.36Z"/>
      <path id="Shape-3" data-name="Shape" class="cls-1" d="M40.9,20.863a1,1,0,0,0,.184-1.4,13.977,13.977,0,0,0-22.166,0A1,1,0,0,0,20.5,20.68a11.976,11.976,0,0,1,18.994,0,1,1,0,0,0,1.4.183Z"/>
      <path id="Shape-4" data-name="Shape" class="cls-1" d="M40,42V28a10,10,0,0,0-20,0V42a10.018,10.018,0,0,0,7,9.539V55H23a3,3,0,0,0-3,3v2a1,1,0,0,0,1,1H39a1,1,0,0,0,1-1V58a3,3,0,0,0-3-3H33V51.539A10.018,10.018,0,0,0,40,42ZM30,20a8.009,8.009,0,0,1,8,8H33a1,1,0,0,0,0,2h5v2H33a1,1,0,0,0,0,2h5v2H33a1,1,0,0,0,0,2h5v2H22V38h5a1,1,0,0,0,0-2H22V34h5a1,1,0,0,0,0-2H22V30h5a1,1,0,0,0,0-2H22A8.009,8.009,0,0,1,30,20ZM22,42H38a8,8,0,0,1-16,0ZM38,58v1H22V58a1,1,0,0,1,1-1H37A1,1,0,0,1,38,58Zm-7-3H29V51.949a9.829,9.829,0,0,0,2,0Z"/>
    </g>
  </g>
</svg>
