<svg xmlns="http://www.w3.org/2000/svg" xmlns:xlink="http://www.w3.org/1999/xlink" width="25.244" height="20.558" viewBox="0 0 25.244 20.558">
  <defs>
    <style>
      .cls-1 {
        fill: url(#linear-gradient);
      }
    </style>
    <linearGradient id="linear-gradient" x1="0.5" x2="0.5" y2="1" gradientUnits="objectBoundingBox">
      <stop offset="0" stop-color="#3e7c43"/>
      <stop offset="1" stop-color="#7ec54f"/>
    </linearGradient>
  </defs>
  <g id="book" transform="translate(0 -47.336)">
    <path id="Path_143" data-name="Path 143" class="cls-1" d="M24.527,51.016c-.047,0-1.022-.035-2.454,0V48.079a.743.743,0,0,0-.8-.74,14.137,14.137,0,0,0-8.647,3.8,14.137,14.137,0,0,0-8.647-3.8.743.743,0,0,0-.8.74v3.014c-.813-.031-1.582-.052-2.406-.077A.743.743,0,0,0,0,51.758V65.279a.742.742,0,0,0,.693.741c2.953.2,7.9.221,11.638,1.815a.744.744,0,0,0,.583,0c3.737-1.594,8.684-1.616,11.638-1.815a.742.742,0,0,0,.693-.741V51.758a.743.743,0,0,0-.717-.742Zm-3.938-2.1V61.639a15.753,15.753,0,0,0-7.224,3.668V52.545c1.624-2.027,4.7-3.249,7.224-3.631Zm-15.933,0c2.523.382,5.6,1.6,7.224,3.631V65.307a15.753,15.753,0,0,0-7.224-3.668ZM1.485,64.58V52.523c.532.016,1.1.034,1.685.056v9.666a.742.742,0,0,0,.605.73,14.853,14.853,0,0,1,5.955,2.5,50.294,50.294,0,0,0-8.245-.889Zm22.274,0a50.3,50.3,0,0,0-8.245.889,14.853,14.853,0,0,1,5.955-2.5.742.742,0,0,0,.605-.73V52.5c.683-.015,1.265-.015,1.685-.012V64.58Z"/>
    <path id="Path_144" data-name="Path 144" class="cls-1" d="M134.074,166.343a6.915,6.915,0,0,0-2.624-1.071.742.742,0,1,0-.247,1.464,5.414,5.414,0,0,1,2.023.825.742.742,0,1,0,.849-1.218Z" transform="translate(-124.12 -112.088)"/>
    <path id="Path_145" data-name="Path 145" class="cls-1" d="M134,251.092a7.934,7.934,0,0,0-2.55-1.057.742.742,0,1,0-.247,1.464,6.63,6.63,0,0,1,2.023.86.742.742,0,0,0,.774-1.267Z" transform="translate(-124.12 -192.656)"/>
    <path id="Path_146" data-name="Path 146" class="cls-1" d="M303.633,167.561a5.414,5.414,0,0,1,2.023-.825.742.742,0,1,0-.247-1.464,6.914,6.914,0,0,0-2.624,1.071.742.742,0,1,0,.849,1.218Z" transform="translate(-287.495 -112.088)"/>
    <path id="Path_147" data-name="Path 147" class="cls-1" d="M306.117,250.035a7.932,7.932,0,0,0-2.55,1.057.742.742,0,0,0,.774,1.267,6.63,6.63,0,0,1,2.023-.86.742.742,0,1,0-.247-1.464Z" transform="translate(-288.203 -192.656)"/>
  </g>
</svg>
