<svg xmlns="http://www.w3.org/2000/svg" xmlns:xlink="http://www.w3.org/1999/xlink" width="28.445" height="31.833" viewBox="0 0 28.445 31.833">
  <defs>
    <linearGradient id="linear-gradient" x1="0.5" x2="0.5" y2="1" gradientUnits="objectBoundingBox">
      <stop offset="0" stop-color="#3e7c43"/>
      <stop offset="1" stop-color="#7ec54f"/>
    </linearGradient>
  </defs>
  <g id="building" transform="translate(-27.244 0)">
    <path id="Path_161" data-name="Path 161" d="M27.71,31.833H55.223a.466.466,0,0,0,.138-.912V22.661a.466.466,0,1,0-.933,0V30.9H47.4V12.245h7.026v8.24a.466.466,0,1,0,.933,0V12.22a.909.909,0,0,0-.908-.908H47.4V1.026A1.027,1.027,0,0,0,46.376,0H38.654a.466.466,0,1,0,0,.933h7.722a.093.093,0,0,1,.093.093V30.9H43.446V25.44a.792.792,0,0,0-.791-.791H32.347a.792.792,0,0,0-.791.791V30.9H28.533V1.026a.093.093,0,0,1,.093-.093h7.852a.466.466,0,0,0,0-.933H28.626A1.027,1.027,0,0,0,27.6,1.026V30.914a.466.466,0,0,0,.11.919Zm10.257-6.252h4.546V30.9H37.967Zm-5.479,0h4.546V30.9H32.489Z" transform="translate(0 0)" fill="url(#linear-gradient)"/>
    <path id="Path_162" data-name="Path 162" d="M166.784,117.929a.729.729,0,0,0-.728-.728H163.9a.729.729,0,0,0-.728.728v1.548a.729.729,0,0,0,.728.728h2.156a.729.729,0,0,0,.728-.728Zm-.933,1.344H164.1v-1.139h1.747Z" transform="translate(-127.477 -109.914)" fill="url(#linear-gradient)"/>
    <path id="Path_163" data-name="Path 163" d="M239.037,119.477a.729.729,0,0,0,.728.728h2.156a.729.729,0,0,0,.728-.728v-1.548a.729.729,0,0,0-.728-.728h-2.156a.729.729,0,0,0-.728.728Zm.933-1.344h1.747v1.139H239.97Z" transform="translate(-198.625 -109.914)" fill="url(#linear-gradient)"/>
    <path id="Path_164" data-name="Path 164" d="M90.919,117.929a.729.729,0,0,0-.728-.728H88.035a.729.729,0,0,0-.728.728v1.548a.729.729,0,0,0,.728.728h2.156a.729.729,0,0,0,.728-.728Zm-.933,1.344H88.24v-1.139h1.747Z" transform="translate(-56.329 -109.914)" fill="url(#linear-gradient)"/>
    <path id="Path_165" data-name="Path 165" d="M166.056,322.581H163.9a.729.729,0,0,0-.728.728v1.548a.729.729,0,0,0,.728.728h2.156a.729.729,0,0,0,.728-.728v-1.548A.729.729,0,0,0,166.056,322.581Zm-.2,2.071H164.1v-1.139h1.747Z" transform="translate(-127.477 -302.525)" fill="url(#linear-gradient)"/>
    <path id="Path_166" data-name="Path 166" d="M239.037,324.857a.729.729,0,0,0,.728.728h2.156a.729.729,0,0,0,.728-.728v-1.548a.729.729,0,0,0-.728-.728h-2.156a.729.729,0,0,0-.728.728Zm.933-1.344h1.747v1.139H239.97Z" transform="translate(-198.625 -302.525)" fill="url(#linear-gradient)"/>
    <path id="Path_167" data-name="Path 167" d="M90.191,322.581H88.035a.729.729,0,0,0-.728.728v1.548a.729.729,0,0,0,.728.728h2.156a.729.729,0,0,0,.728-.728v-1.548A.729.729,0,0,0,90.191,322.581Zm-.2,2.071H88.24v-1.139h1.747Z" transform="translate(-56.329 -302.525)" fill="url(#linear-gradient)"/>
    <path id="Path_168" data-name="Path 168" d="M166.784,254.849a.729.729,0,0,0-.728-.728H163.9a.729.729,0,0,0-.728.728V256.4a.729.729,0,0,0,.728.728h2.156a.729.729,0,0,0,.728-.728Zm-.933,1.344H164.1v-1.139h1.747Z" transform="translate(-127.477 -238.321)" fill="url(#linear-gradient)"/>
    <path id="Path_169" data-name="Path 169" d="M239.037,256.4a.729.729,0,0,0,.728.728h2.156a.729.729,0,0,0,.728-.728v-1.548a.729.729,0,0,0-.728-.728h-2.156a.729.729,0,0,0-.728.728Zm.933-1.344h1.747v1.139H239.97Z" transform="translate(-198.625 -238.321)" fill="url(#linear-gradient)"/>
    <path id="Path_170" data-name="Path 170" d="M90.919,254.849a.729.729,0,0,0-.728-.728H88.035a.729.729,0,0,0-.728.728V256.4a.729.729,0,0,0,.728.728h2.156a.729.729,0,0,0,.728-.728Zm-.933,1.344H88.24v-1.139h1.747Z" transform="translate(-56.329 -238.321)" fill="url(#linear-gradient)"/>
    <path id="Path_171" data-name="Path 171" d="M166.784,186.389a.729.729,0,0,0-.728-.728H163.9a.729.729,0,0,0-.728.728v1.548a.729.729,0,0,0,.728.728h2.156a.729.729,0,0,0,.728-.728Zm-.933,1.344H164.1v-1.139h1.747Z" transform="translate(-127.477 -174.118)" fill="url(#linear-gradient)"/>
    <path id="Path_172" data-name="Path 172" d="M239.037,187.937a.729.729,0,0,0,.728.728h2.156a.729.729,0,0,0,.728-.728v-1.548a.729.729,0,0,0-.728-.728h-2.156a.729.729,0,0,0-.728.728Zm.933-1.344h1.747v1.139H239.97Z" transform="translate(-198.625 -174.118)" fill="url(#linear-gradient)"/>
    <path id="Path_173" data-name="Path 173" d="M382.538,223.067a.729.729,0,0,0-.728-.728h-2.156a.729.729,0,0,0-.728.728v1.548a.729.729,0,0,0,.728.728h2.156a.729.729,0,0,0,.728-.728Zm-.933,1.344h-1.747v-1.139h1.747Z" transform="translate(-329.817 -208.515)" fill="url(#linear-gradient)"/>
    <path id="Path_174" data-name="Path 174" d="M381.81,427.72h-2.156a.729.729,0,0,0-.728.728V430a.729.729,0,0,0,.728.728h2.156a.729.729,0,0,0,.728-.728v-1.548A.729.729,0,0,0,381.81,427.72Zm-.2,2.071h-1.747v-1.139h1.747Z" transform="translate(-329.817 -401.127)" fill="url(#linear-gradient)"/>
    <path id="Path_175" data-name="Path 175" d="M382.538,359.987a.729.729,0,0,0-.728-.728h-2.156a.729.729,0,0,0-.728.728v1.548a.729.729,0,0,0,.728.728h2.156a.729.729,0,0,0,.728-.728Zm-.933,1.344h-1.747v-1.139h1.747Z" transform="translate(-329.817 -336.923)" fill="url(#linear-gradient)"/>
    <path id="Path_176" data-name="Path 176" d="M382.538,291.527a.729.729,0,0,0-.728-.728h-2.156a.729.729,0,0,0-.728.728v1.548a.729.729,0,0,0,.728.728h2.156a.729.729,0,0,0,.728-.728Zm-.933,1.344h-1.747v-1.139h1.747Z" transform="translate(-329.817 -272.719)" fill="url(#linear-gradient)"/>
    <path id="Path_177" data-name="Path 177" d="M90.919,186.389a.729.729,0,0,0-.728-.728H88.035a.729.729,0,0,0-.728.728v1.548a.729.729,0,0,0,.728.728h2.156a.729.729,0,0,0,.728-.728Zm-.933,1.344H88.24v-1.139h1.747Z" transform="translate(-56.329 -174.118)" fill="url(#linear-gradient)"/>
    <path id="Path_178" data-name="Path 178" d="M166.784,49.469a.729.729,0,0,0-.728-.728H163.9a.729.729,0,0,0-.728.728v1.548a.729.729,0,0,0,.728.728h2.156a.729.729,0,0,0,.728-.728Zm-.933,1.344H164.1V49.674h1.747Z" transform="translate(-127.477 -45.711)" fill="url(#linear-gradient)"/>
    <path id="Path_179" data-name="Path 179" d="M239.765,51.745h2.156a.729.729,0,0,0,.728-.728V49.469a.729.729,0,0,0-.728-.728h-2.156a.729.729,0,0,0-.728.728v1.548A.729.729,0,0,0,239.765,51.745Zm.2-2.071h1.747v1.139H239.97Z" transform="translate(-198.625 -45.711)" fill="url(#linear-gradient)"/>
    <path id="Path_180" data-name="Path 180" d="M90.919,49.469a.729.729,0,0,0-.728-.728H88.035a.729.729,0,0,0-.728.728v1.548a.729.729,0,0,0,.728.728h2.156a.729.729,0,0,0,.728-.728Zm-.933,1.344H88.24V49.674h1.747Z" transform="translate(-56.329 -45.711)" fill="url(#linear-gradient)"/>
  </g>
</svg>
