<svg xmlns="http://www.w3.org/2000/svg" width="25.118" height="25.118" viewBox="0 0 25.118 25.118">
  <g id="telephone_3_" data-name="telephone (3)" transform="translate(-0.006)">
    <g id="Group_130" data-name="Group 130" transform="translate(0.006)">
      <path id="Path_47" data-name="Path 47" d="M19.1,60.342a1.76,1.76,0,0,0-2.66,0c-.622.617-1.244,1.234-1.856,1.861a.367.367,0,0,1-.512.094c-.4-.22-.831-.4-1.218-.638A19.3,19.3,0,0,1,8.2,57.426a11.021,11.021,0,0,1-1.667-2.671.383.383,0,0,1,.094-.491c.622-.6,1.228-1.218,1.84-1.835a1.767,1.767,0,0,0-.005-2.723c-.486-.491-.972-.972-1.458-1.464-.5-.5-1-1.009-1.505-1.505a1.771,1.771,0,0,0-2.66.005c-.627.617-1.228,1.249-1.866,1.856a3.029,3.029,0,0,0-.951,2.044,8.659,8.659,0,0,0,.669,3.727,22.646,22.646,0,0,0,4.019,6.7,24.874,24.874,0,0,0,8.238,6.445,11.914,11.914,0,0,0,4.563,1.328,3.344,3.344,0,0,0,2.87-1.092c.533-.6,1.134-1.139,1.7-1.709a1.778,1.778,0,0,0,.01-2.708Q20.6,61.829,19.1,60.342Z" transform="translate(-0.006 -43.726)" fill="#5b5e65"/>
      <path id="Path_48" data-name="Path 48" d="M243.52,103.433l1.929-.329a8.657,8.657,0,0,0-7.323-7.1l-.272,1.939a6.691,6.691,0,0,1,5.666,5.493Z" transform="translate(-225.422 -90.982)" fill="#5b5e65"/>
      <path id="Path_49" data-name="Path 49" d="M251.18,4.067A14.222,14.222,0,0,0,243.026,0l-.272,1.939a12.41,12.41,0,0,1,10.5,10.177l1.929-.329A14.326,14.326,0,0,0,251.18,4.067Z" transform="translate(-230.066)" fill="#5b5e65"/>
    </g>
  </g>
</svg>
