<svg xmlns="http://www.w3.org/2000/svg" width="26.001" height="24.268" viewBox="0 0 26.001 24.268">
  <g id="career" transform="translate(-16 -32)">
    <path id="Path_158" data-name="Path 158" d="M40.7,37.2H34.2V35.9A3.9,3.9,0,0,0,30.3,32H27.7a3.9,3.9,0,0,0-3.9,3.9v1.3H17.3A1.3,1.3,0,0,0,16,38.5V54.1a2.169,2.169,0,0,0,2.167,2.167H39.834A2.169,2.169,0,0,0,42,54.1V38.5A1.3,1.3,0,0,0,40.7,37.2Zm-8.234,0v-.867h.867V37.2Zm-.867,0H26.4V35.9a1.3,1.3,0,0,1,1.3-1.3h2.6a1.3,1.3,0,0,1,1.3,1.3Zm-3.9-4.333h2.6a3.038,3.038,0,0,1,3,2.6h-.879A2.17,2.17,0,0,0,30.3,33.733H27.7a2.17,2.17,0,0,0-2.123,1.733H24.7A3.038,3.038,0,0,1,27.7,32.867Zm-3.033,3.467h.867V37.2h-.867ZM41.134,54.1a1.3,1.3,0,0,1-1.3,1.3H18.167a1.3,1.3,0,0,1-1.3-1.3V45.522a6.113,6.113,0,0,0,1.3,1.521V52.8a1.3,1.3,0,0,0,1.3,1.3H38.534a1.3,1.3,0,0,0,1.3-1.3V47.044a6.113,6.113,0,0,0,1.3-1.521Zm-5.2-6.5H32.467v.867h3.467a6.03,6.03,0,0,0,3.033-.814V52.8a.434.434,0,0,1-.433.433H19.467a.434.434,0,0,1-.433-.433V47.653a6.03,6.03,0,0,0,3.033.814h3.467V47.6H22.067a5.206,5.206,0,0,1-5.2-5.2V38.5a.434.434,0,0,1,.433-.433H40.7a.434.434,0,0,1,.433.433v3.9a5.206,5.206,0,0,1-5.2,5.2Z" fill="#6d7178"/>
    <path id="Path_159" data-name="Path 159" d="M210.6,200a2.6,2.6,0,0,0-2.6,2.6v7.367a.433.433,0,0,0,.433.433h4.333a.433.433,0,0,0,.433-.433V202.6A2.6,2.6,0,0,0,210.6,200Zm0,.867a1.735,1.735,0,0,1,1.733,1.733v.867h-3.467V202.6A1.735,1.735,0,0,1,210.6,200.867Zm1.733,3.467v.867h-3.467v-.867Zm-3.467,5.2v-3.467h3.467v3.467Z" transform="translate(-181.6 -158.9)" fill="#6d7178"/>
    <path id="Path_160" data-name="Path 160" d="M241.3,336h-.867a.433.433,0,1,0,0,.867h.867a.433.433,0,0,0,0-.867Z" transform="translate(-211.866 -287.533)" fill="#6d7178"/>
  </g>
</svg>
