<svg xmlns="http://www.w3.org/2000/svg" width="31.956" height="31.956" viewBox="0 0 31.956 31.956">
  <g id="download" transform="translate(0 0)">
    <path id="Path_247" data-name="Path 247" d="M458.5,482H457a1,1,0,1,1,0-2h1.5a1,1,0,1,1,0,2Z" transform="translate(-427.539 -450.041)" fill="#7fc152"/>
    <path id="Path_248" data-name="Path 248" d="M2.5,482H1a1,1,0,1,1,0-2H2.5a1,1,0,1,1,0,2Z" transform="translate(0 -450.041)" fill="#7fc152"/>
    <path id="Path_249" data-name="Path 249" d="M100.971,482H81a1,1,0,1,1,0-2h19.973a1,1,0,1,1,0,2Z" transform="translate(-75.007 -450.041)" fill="#7fc152"/>
    <path id="Path_250" data-name="Path 250" d="M83.859,27.684a2.862,2.862,0,0,1-2.03-.84l-8.413-8.413a3.453,3.453,0,0,1,2.427-5.907h.012a3.556,3.556,0,0,1,2.5,1.03l2.009,2.009V3.5a3.5,3.5,0,0,1,6.99,0V15.565l2.04-2.04A3.453,3.453,0,0,1,95.3,15.951a3.556,3.556,0,0,1-1.03,2.512L85.89,26.845a2.862,2.862,0,0,1-2.03.84Zm-8-13.162H75.85a1.437,1.437,0,0,0-1.029.422,1.473,1.473,0,0,0,.007,2.076l8.413,8.413a.875.875,0,0,0,1.236,0l8.382-8.382a1.545,1.545,0,0,0,.445-1.093,1.437,1.437,0,0,0-.422-1.029,1.473,1.473,0,0,0-2.076.007l-3.745,3.745a1,1,0,0,1-1.7-.706V3.5a1.5,1.5,0,0,0-3,0v14.48a1,1,0,0,1-1.7.706l-3.714-3.714a1.545,1.545,0,0,0-1.087-.445Z" transform="translate(-67.881 0)" fill="#7fc152"/>
  </g>
</svg>
