<svg xmlns="http://www.w3.org/2000/svg" width="11.625" height="21.501" viewBox="0 0 11.625 21.501">
  <g id="facebook_3_" data-name="facebook (3)" transform="translate(0)">
    <path id="Path_23" data-name="Path 23" d="M33.264,0,30.476,0c-3.133,0-5.157,2.077-5.157,5.292v2.44h-2.8a.438.438,0,0,0-.438.439V11.7a.438.438,0,0,0,.438.438h2.8v8.92a.438.438,0,0,0,.438.438h3.658a.438.438,0,0,0,.438-.438v-8.92h3.278a.438.438,0,0,0,.438-.438V8.17a.439.439,0,0,0-.439-.439H29.853V5.663c0-.994.237-1.5,1.532-1.5h1.878a.438.438,0,0,0,.438-.438V.443A.439.439,0,0,0,33.264,0Z" transform="translate(-22.077)" fill="#c0c2c8"/>
  </g>
</svg>
