<svg xmlns="http://www.w3.org/2000/svg" width="27.443" height="24.012" viewBox="0 0 27.443 24.012">
  <g id="food" transform="translate(0 -32.001)">
    <g id="Group_238" data-name="Group 238" transform="translate(3.43 41.148)">
      <g id="Group_237" data-name="Group 237" transform="translate(0 0)">
        <path id="Path_133" data-name="Path 133" d="M81.712,202.654H65.7a1.717,1.717,0,0,0-1.715,1.715v1.143a10.836,10.836,0,0,0,5.881,9.657.572.572,0,1,0,.525-1.017,9.7,9.7,0,0,1-5.262-8.64v-1.143a.572.572,0,0,1,.572-.572H81.712a.572.572,0,0,1,.572.572v1.143a9.691,9.691,0,0,1-5.263,8.639.572.572,0,0,0,.263,1.081.564.564,0,0,0,.262-.064,10.831,10.831,0,0,0,5.882-9.656v-1.143A1.717,1.717,0,0,0,81.712,202.654Z" transform="translate(-63.988 -202.654)" fill="#6d7178"/>
      </g>
    </g>
    <g id="Group_240" data-name="Group 240" transform="translate(0 52.581)">
      <g id="Group_239" data-name="Group 239" transform="translate(0)">
        <path id="Path_134" data-name="Path 134" d="M26.257,416.319a.573.573,0,0,0-.528-.353H.572a.572.572,0,0,0-.4.977l1.282,1.283a3.978,3.978,0,0,0,2.83,1.172h17.74a3.985,3.985,0,0,0,2.832-1.172l1.282-1.283A.571.571,0,0,0,26.257,416.319Zm-2.215,1.1a2.842,2.842,0,0,1-2.022.837H4.279a2.842,2.842,0,0,1-2.022-.837l-.306-.306h22.4Z" transform="translate(0 -415.966)" fill="#6d7178"/>
      </g>
    </g>
    <g id="Group_242" data-name="Group 242" transform="translate(19.033 43.432)">
      <g id="Group_241" data-name="Group 241">
        <path id="Path_135" data-name="Path 135" d="M362.4,245.688c-1.54-.99-4,.085-4.277.209a.572.572,0,1,0,.475,1.042c.551-.25,2.319-.844,3.183-.287a1.625,1.625,0,0,1,.581,1.482c0,2.289-4.617,3.673-6.4,4.014l-.4.08a.571.571,0,0,0,.11,1.132.53.53,0,0,0,.111-.011l.4-.079c.3-.057,7.326-1.435,7.326-5.135A2.7,2.7,0,0,0,362.4,245.688Z" transform="translate(-355.093 -245.272)" fill="#6d7178"/>
      </g>
    </g>
    <g id="Group_244" data-name="Group 244" transform="translate(16.008 32.001)">
      <g id="Group_243" data-name="Group 243" transform="translate(0 0)">
        <path id="Path_136" data-name="Path 136" d="M300.258,36.359a3.426,3.426,0,0,0,0-4.143.572.572,0,0,0-.893.715,2.306,2.306,0,0,1,0,2.716,3.422,3.422,0,0,0,0,4.143.572.572,0,0,0,.893-.715A2.3,2.3,0,0,1,300.258,36.359Z" transform="translate(-298.666 -32.001)" fill="#6d7178"/>
      </g>
    </g>
    <g id="Group_246" data-name="Group 246" transform="translate(12.574 32.001)">
      <g id="Group_245" data-name="Group 245" transform="translate(0 0)">
        <path id="Path_137" data-name="Path 137" d="M236.188,36.367a3.422,3.422,0,0,0,0-4.143.572.572,0,0,0-.893.715,2.3,2.3,0,0,1,0,2.716,3.426,3.426,0,0,0,0,4.143.572.572,0,1,0,.893-.715A2.306,2.306,0,0,1,236.188,36.367Z" transform="translate(-234.597 -32.009)" fill="#6d7178"/>
      </g>
    </g>
    <g id="Group_248" data-name="Group 248" transform="translate(9.148 32.002)">
      <g id="Group_247" data-name="Group 247" transform="translate(0 0)">
        <path id="Path_138" data-name="Path 138" d="M172.258,36.38a3.426,3.426,0,0,0,0-4.143.572.572,0,0,0-.893.714,2.306,2.306,0,0,1,0,2.716,3.422,3.422,0,0,0,0,4.143.572.572,0,1,0,.893-.713A2.3,2.3,0,0,1,172.258,36.38Z" transform="translate(-170.666 -32.022)" fill="#6d7178"/>
      </g>
    </g>
  </g>
</svg>
