<svg id="instagram_1_" data-name="instagram (1)" xmlns="http://www.w3.org/2000/svg" width="20.688" height="20.688" viewBox="0 0 20.688 20.688">
  <g id="Group_64" data-name="Group 64">
    <g id="Group_63" data-name="Group 63">
      <path id="Path_24" data-name="Path 24" d="M14.223,0H6.465A6.466,6.466,0,0,0,0,6.465v7.758a6.466,6.466,0,0,0,6.465,6.465h7.758a6.466,6.466,0,0,0,6.465-6.465V6.465A6.466,6.466,0,0,0,14.223,0Zm4.526,14.223a4.53,4.53,0,0,1-4.526,4.526H6.465A4.53,4.53,0,0,1,1.94,14.223V6.465A4.53,4.53,0,0,1,6.465,1.94h7.758a4.53,4.53,0,0,1,4.526,4.526Z" fill="#c0c2c8"/>
    </g>
  </g>
  <g id="Group_66" data-name="Group 66" transform="translate(5.172 5.172)">
    <g id="Group_65" data-name="Group 65">
      <path id="Path_25" data-name="Path 25" d="M133.172,128a5.172,5.172,0,1,0,5.172,5.172A5.172,5.172,0,0,0,133.172,128Zm0,8.4a3.233,3.233,0,1,1,3.233-3.233A3.237,3.237,0,0,1,133.172,136.4Z" transform="translate(-128 -128)" fill="#c0c2c8"/>
    </g>
  </g>
  <g id="Group_68" data-name="Group 68" transform="translate(15.215 4.095)">
    <g id="Group_67" data-name="Group 67">
      <circle id="Ellipse_5" data-name="Ellipse 5" cx="0.689" cy="0.689" r="0.689" fill="#c0c2c8"/>
    </g>
  </g>
</svg>
