<svg xmlns="http://www.w3.org/2000/svg" xmlns:xlink="http://www.w3.org/1999/xlink" width="86.009" height="88.974" viewBox="0 0 86.009 88.974">
  <defs>
    <style>
      .cls-1 {
        fill: url(#linear-gradient);
      }
    </style>
    <linearGradient id="linear-gradient" x1="0.5" x2="0.5" y2="1" gradientUnits="objectBoundingBox">
      <stop offset="0" stop-color="#3e7c43"/>
      <stop offset="1" stop-color="#7ec54f"/>
    </linearGradient>
  </defs>
  <g id="music_1_" data-name="music (1)" transform="translate(-23.99 -16)">
    <path id="Path_148" data-name="Path 148" class="cls-1" d="M24,76.8a4.454,4.454,0,0,0,4.449,4.449H73.731a5.112,5.112,0,0,0-.12.832,4.328,4.328,0,0,0,.5,2.247l4.924,9.468a1.5,1.5,0,0,0,.13.206l4.148,5.531-.034,3.948a1.483,1.483,0,0,0,1.483,1.5h20.705a1.483,1.483,0,0,0,1.483-1.464l.078-6.233a6.085,6.085,0,0,1,.312-1.851l1.91-5.731a14.75,14.75,0,0,0,.758-4.673V20.449A4.454,4.454,0,0,0,105.559,16H28.449A4.454,4.454,0,0,0,24,20.449Zm2.966,0V48.624h2.966V73.833a1.483,1.483,0,0,0,1.483,1.483h51.9v2.966H81.8a4.423,4.423,0,0,0-3.939-.906l-.431.108a5.068,5.068,0,0,0-1.723.8H28.449A1.485,1.485,0,0,1,26.966,76.8Zm77.11-11.863V48.624h2.966V68.7a5.9,5.9,0,0,0-2.966-.8Zm-2.966-4.194a4.427,4.427,0,0,0-1.483-.255H98.144a4.456,4.456,0,0,0-2.966-4.194V48.624h5.932Zm-8.9-4.449a4.456,4.456,0,0,0-2.966,4.194H87.764a4.427,4.427,0,0,0-1.483.255V48.624h5.932Zm-8.9,8.642V72.35H77.384V48.624h5.932Zm-8.9,7.414H68.487V48.624h5.932Zm-8.9,0H59.589V48.624h5.932Zm-8.9,0H50.692V48.624h5.932Zm-8.9,0H41.795V48.624h5.932Zm-8.9,0H32.9V48.624h5.932Zm68.213,12.672a11.783,11.783,0,0,1-.606,3.735l-1.91,5.731a9.04,9.04,0,0,0-.463,2.752l-.06,4.769H86.256l.025-2.953a1.483,1.483,0,0,0-.3-.9l-4.376-5.834-4.868-9.361a1.365,1.365,0,0,1-.168-.7,2.073,2.073,0,0,1,1.574-1.895l.431-.108a1.474,1.474,0,0,1,1.631.676l3.318,5.53a1.483,1.483,0,0,0,2.755-.762V64.935a1.485,1.485,0,0,1,1.483-1.483h1.483V75.316a1.483,1.483,0,0,0,2.966,0V60.487a1.483,1.483,0,1,1,2.966,0V75.316a1.483,1.483,0,1,0,2.966,0V63.452h1.483a1.485,1.485,0,0,1,1.483,1.483V79.764a1.483,1.483,0,1,0,2.966,0v-8.9a2.969,2.969,0,0,1,2.966,2.966ZM28.449,18.966h77.11a1.485,1.485,0,0,1,1.483,1.483V45.658H26.966V20.449A1.485,1.485,0,0,1,28.449,18.966Z" transform="translate(-0.008)"/>
    <path id="Path_149" data-name="Path 149" class="cls-1" d="M66.38,68.76A10.38,10.38,0,1,0,56,58.38,10.38,10.38,0,0,0,66.38,68.76Zm0-17.795a7.414,7.414,0,1,1-7.414,7.414A7.414,7.414,0,0,1,66.38,50.966Z" transform="translate(-26.077 -26.068)"/>
    <path id="Path_150" data-name="Path 150" class="cls-1" d="M92.449,88.9A4.449,4.449,0,1,0,88,84.449,4.449,4.449,0,0,0,92.449,88.9Zm0-5.932a1.483,1.483,0,1,1-1.483,1.483A1.483,1.483,0,0,1,92.449,82.966Z" transform="translate(-52.145 -52.137)"/>
    <path id="Path_151" data-name="Path 151" class="cls-1" d="M185.483,59.863h23.726a1.483,1.483,0,0,0,1.483-1.483v-8.9A1.483,1.483,0,0,0,209.209,48H185.483A1.483,1.483,0,0,0,184,49.483v8.9A1.483,1.483,0,0,0,185.483,59.863Zm1.483-8.9h20.76V56.9h-20.76Z" transform="translate(-130.351 -26.068)"/>
    <path id="Path_152" data-name="Path 152" class="cls-1" d="M345.483,56.9h5.932a1.483,1.483,0,0,0,1.483-1.483V49.483A1.483,1.483,0,0,0,351.414,48h-5.932A1.483,1.483,0,0,0,344,49.483v5.932A1.483,1.483,0,0,0,345.483,56.9Zm1.483-5.932h2.966v2.966h-2.966Z" transform="translate(-260.693 -26.068)"/>
    <path id="Path_153" data-name="Path 153" class="cls-1" d="M409.483,56.9h5.932a1.483,1.483,0,0,0,1.483-1.483V49.483A1.483,1.483,0,0,0,415.414,48h-5.932A1.483,1.483,0,0,0,408,49.483v5.932A1.483,1.483,0,0,0,409.483,56.9Zm1.483-5.932h2.966v2.966h-2.966Z" transform="translate(-312.83 -26.068)"/>
    <circle id="Ellipse_136" data-name="Ellipse 136" class="cls-1" cx="3" cy="3" r="3" transform="translate(54.99 36.485)"/>
    <circle id="Ellipse_137" data-name="Ellipse 137" class="cls-1" cx="3" cy="3" r="3" transform="translate(63.99 36.485)"/>
    <circle id="Ellipse_138" data-name="Ellipse 138" class="cls-1" cx="3" cy="3" r="3" transform="translate(72.99 36.485)"/>
    <path id="Path_154" data-name="Path 154" class="cls-1" d="M348.449,120.9A4.449,4.449,0,1,0,344,116.449,4.449,4.449,0,0,0,348.449,120.9Zm0-5.932a1.483,1.483,0,1,1-1.483,1.483A1.483,1.483,0,0,1,348.449,114.966Z" transform="translate(-260.693 -78.205)"/>
    <path id="Path_155" data-name="Path 155" class="cls-1" d="M412.449,120.9A4.449,4.449,0,1,0,408,116.449,4.449,4.449,0,0,0,412.449,120.9Zm0-5.932a1.483,1.483,0,1,1-1.483,1.483A1.483,1.483,0,0,1,412.449,114.966Z" transform="translate(-312.83 -78.205)"/>
    <path id="Path_156" data-name="Path 156" class="cls-1" d="M28.44,417.795a4.454,4.454,0,0,0,4.449-4.449v-10.38h4.449a1.483,1.483,0,0,0,0-2.966H31.406a1.483,1.483,0,0,0-1.483,1.483v7.669a4.449,4.449,0,1,0-1.483,8.642Zm0-5.932a1.483,1.483,0,1,1-1.483,1.483,1.483,1.483,0,0,1,1.483-1.483Z" transform="translate(0 -312.821)"/>
    <path id="Path_157" data-name="Path 157" class="cls-1" d="M152.312,395.863a4.449,4.449,0,1,0,4.449,4.449V385.483A1.483,1.483,0,0,0,155.278,384H143.414a1.483,1.483,0,0,0-1.483,1.483v4.7a4.449,4.449,0,1,0,2.966,4.194v-7.414h8.9v9.152A4.428,4.428,0,0,0,152.312,395.863Zm-11.863,0a1.483,1.483,0,1,1,1.483-1.483A1.483,1.483,0,0,1,140.449,395.863Zm11.863,5.932a1.483,1.483,0,1,1,1.483-1.483A1.483,1.483,0,0,1,152.312,401.795Z" transform="translate(-91.248 -299.787)"/>
  </g>
</svg>
