<svg xmlns="http://www.w3.org/2000/svg" width="23.5" height="47" viewBox="0 0 23.5 47">
  <g id="Outline" transform="translate(-136 -16)">
    <path id="Path_68" data-name="Path 68" d="M154.31,16H141.19A5.2,5.2,0,0,0,136,21.19V40.577a5.2,5.2,0,0,0,5.19,5.19h1.077v1.567h-.783a2.353,2.353,0,0,0-2.35,2.35V51.25a2.353,2.353,0,0,0,2.35,2.35h.783a2.354,2.354,0,0,0,1.567,2.215V63H145.4V55.815a2.354,2.354,0,0,0,1.567-2.215V50.467a.783.783,0,0,1,1.567,0V53.6a2.354,2.354,0,0,0,1.567,2.215V63h1.567V55.815a2.354,2.354,0,0,0,1.567-2.215h.783a3.133,3.133,0,1,0,0-6.267h-.783V45.767h1.077a5.2,5.2,0,0,0,5.19-5.19V21.19A5.2,5.2,0,0,0,154.31,16ZM141.483,52.033a.784.784,0,0,1-.783-.783V49.683a.784.784,0,0,1,.783-.783h.783v3.133ZM154.017,48.9a1.567,1.567,0,1,1,0,3.133h-.783V48.9Zm-2.35,4.7a.783.783,0,0,1-1.567,0V50.467a2.35,2.35,0,1,0-4.7,0V53.6a.783.783,0,0,1-1.567,0V45.767h7.833Zm6.267-13.023a3.628,3.628,0,0,1-3.133,3.589V40.283h-1.567V44.2h-1.567V40.283H150.1V44.2h-1.567V40.283h-1.567V44.2H145.4V40.283h-1.567V44.2h-1.567V40.283H140.7v3.883a3.628,3.628,0,0,1-3.133-3.589V21.19A3.628,3.628,0,0,1,140.7,17.6v3.883h1.567V17.567h1.567v3.917H145.4V17.567h1.567v3.917h1.567V17.567H150.1v3.917h1.567V17.567h1.567v3.917H154.8V17.6a3.628,3.628,0,0,1,3.133,3.589Z" transform="translate(0)" fill="#6d7178"/>
    <path id="Path_69" data-name="Path 69" d="M176,224h15.667v1.567H176Z" transform="translate(-36.083 -187.633)" fill="#6d7178"/>
    <path id="Path_70" data-name="Path 70" d="M176,192h15.667v1.567H176Z" transform="translate(-36.083 -158.767)" fill="#6d7178"/>
    <path id="Path_71" data-name="Path 71" d="M176,160h5.483v1.567H176Z" transform="translate(-36.083 -129.9)" fill="#6d7178"/>
    <path id="Path_72" data-name="Path 72" d="M280,160h5.483v1.567H280Z" transform="translate(-129.9 -129.9)" fill="#6d7178"/>
    <path id="Path_73" data-name="Path 73" d="M176,128h15.667v1.567H176Z" transform="translate(-36.083 -101.033)" fill="#6d7178"/>
    <path id="Path_74" data-name="Path 74" d="M176,96h15.667v1.567H176Z" transform="translate(-36.083 -72.167)" fill="#6d7178"/>
    <path id="Path_75" data-name="Path 75" d="M248,160h1.567v1.567H248Z" transform="translate(-101.033 -129.9)" fill="#6d7178"/>
    <path id="Path_76" data-name="Path 76" d="M248,440h1.567v1.567H248Z" transform="translate(-101.033 -382.483)" fill="#6d7178"/>
  </g>
</svg>
