<svg xmlns="http://www.w3.org/2000/svg" width="50.983" height="47" viewBox="0 0 50.983 47">
  <path id="Path_215" data-name="Path 215" d="M50.983,22.987A2.991,2.991,0,0,0,48,20H2.987A2.991,2.991,0,0,0,0,22.987V44.794s0,.01,0,.014,0,.019,0,.029v7.016a20.2,20.2,0,0,0,.927,6.053L2.054,61.5V66a1,1,0,1,0,1.992,0V61.348A1,1,0,0,0,4,61.05L2.827,57.31a18.213,18.213,0,0,1-.836-5.457V44.838a1,1,0,0,1,2.007,0v2.44a1,1,0,0,0,1.992,0V43.365a1,1,0,0,1,2.007,0v3.913a1,1,0,0,0,1.992,0V42.1A1,1,0,0,1,12,42.1v5.18a1,1,0,0,0,1.992,0V35.56a1,1,0,0,1,2.007,0V50.037a1,1,0,0,0,1.872.473l2.348-4.348a1.112,1.112,0,0,1,2.06.789l-1.522,6.309a9.568,9.568,0,0,1-1.584,3.419l-2.982,4.081a1,1,0,0,0-.192.587V66a1,1,0,1,0,1.992,0V61.673l2.79-3.818a11.548,11.548,0,0,0,1.912-4.127l.882-3.656h3.844l.882,3.656a11.55,11.55,0,0,0,1.912,4.127L33,61.673V66a1,1,0,1,0,1.992,0V61.348a1,1,0,0,0-.192-.587L31.816,56.68a9.569,9.569,0,0,1-1.584-3.419l-1.522-6.309a1.112,1.112,0,0,1,2.06-.789l2.348,4.348a1,1,0,0,0,1.872-.473V35.56a1,1,0,0,1,2.007,0V47.278a1,1,0,0,0,1.992,0V42.1a1,1,0,1,1,2.007,0v5.18a1,1,0,0,0,1.992,0V43.365a1,1,0,0,1,2.007,0v3.913a1,1,0,0,0,1.992,0v-2.44a1,1,0,0,1,2.007,0v7.016a18.214,18.214,0,0,1-.836,5.457l-1.173,3.74a1,1,0,0,0-.046.3V66a1,1,0,1,0,1.992,0V61.5l1.127-3.595a20.2,20.2,0,0,0,.927-6.053V44.838c0-.01,0-.019,0-.029s0-.01,0-.014ZM26.773,47.419l.16.662H24.05l.16-.662A3.09,3.09,0,0,0,23.169,44.3h4.645A3.09,3.09,0,0,0,26.773,47.419Zm22.218-5.4a2.991,2.991,0,0,0-2.275.11,2.994,2.994,0,0,0-4.081-1.433,3,3,0,0,0-3.648-1.417V35.56a3,3,0,0,0-5.99,0V46.1l-.476-.881a3.092,3.092,0,0,0-2.082-1.567.993.993,0,0,0-.932-1.344H22.6a.994.994,0,0,0-.942,1.315,3.086,3.086,0,0,0-3.2,1.6l-.476.881V35.56a3,3,0,0,0-5.99,0v3.716a3,3,0,0,0-3.648,1.417,2.994,2.994,0,0,0-4.081,1.433,2.992,2.992,0,0,0-2.275-.11V22.987a1,1,0,0,1,1-1H48a1,1,0,0,1,1,1Z" transform="translate(0 -20)"/>
</svg>
