<svg xmlns="http://www.w3.org/2000/svg" width="15.999" height="15.999" viewBox="0 0 15.999 15.999">
  <g id="interface" transform="translate(0.001 0)">
    <path id="Path_209" data-name="Path 209" d="M1.921,8.737A6.33,6.33,0,0,1,1.874,8,6.1,6.1,0,0,1,12.108,3.49l-.541.55a.479.479,0,0,0-.122.469.49.49,0,0,0,.356.319c.094.019,3.194,1.018,3,.978a.474.474,0,0,0,.553-.553c-.019-.094-.705-3.538-.666-3.341a.464.464,0,0,0-.787-.234l-.459.45A8,8,0,0,0,0,8v.019c0,.264.012.468.026.625A.469.469,0,0,0,.4,9.06l.963.192a.469.469,0,0,0,.557-.516Zm0,0" fill="#6d7178"/>
    <path id="Path_210" data-name="Path 210" d="M35.407,215.628l-.966-.2a.469.469,0,0,0-.559.516,6.381,6.381,0,0,1,.048.742,6.092,6.092,0,0,1-10.234,4.5l.541-.541a.479.479,0,0,0,.122-.469.49.49,0,0,0-.356-.319c-.094-.019-3.194-1.018-3-.978a.459.459,0,0,0-.422.131.467.467,0,0,0-.131.422l.666,3.309a.469.469,0,0,0,.328.356.45.45,0,0,0,.459-.122l.45-.45a7.987,7.987,0,0,0,13.449-5.84v-.028c0-.208-.008-.412-.025-.614a.469.469,0,0,0-.374-.419Zm0,0" transform="translate(-19.807 -208.69)" fill="#6d7178"/>
  </g>
</svg>
