<svg xmlns="http://www.w3.org/2000/svg" width="36.944" height="46.193" viewBox="0 0 36.944 46.193">
  <g id="rupee" transform="translate(-0.484 0)">
    <path id="Path_50" data-name="Path 50" d="M1.006,41.841h21.1a8.129,8.129,0,1,0,9.521-11.577V7.965a.549.549,0,0,0-.137-.394l-7.1-7.4a.543.543,0,0,0-.4-.175H1.006A.531.531,0,0,0,.484.568V41.278a.526.526,0,0,0,.522.562Zm35.306-3.787a7.005,7.005,0,1,1-7.005-7.005A7.005,7.005,0,0,1,36.312,38.054ZM24.528,1.978l5.241,5.405H24.528ZM1.62,1.136H23.392v6.83a.586.586,0,0,0,.6.554h6.5V30.006a7.657,7.657,0,0,0-1.206-.093,8.035,8.035,0,0,0-3.226.661.559.559,0,0,0-.472-.283H5.972a.568.568,0,1,0,0,1.136H24.553a8.928,8.928,0,0,0-2.36,2.651H5.972a.568.568,0,0,0,0,1.136h15.7a8.462,8.462,0,0,0-.5,2.825,8.245,8.245,0,0,0,.447,2.665H1.62Zm0,0" transform="translate(0 0)" fill="#202020"/>
    <path id="Path_51" data-name="Path 51" d="M53.025,281.136H72.641a.568.568,0,1,0,0-1.136H53.025a.568.568,0,1,0,0,1.136Zm0,0" transform="translate(-47.053 -253.495)" fill="#202020"/>
    <path id="Path_52" data-name="Path 52" d="M53.025,241.136H72.641a.568.568,0,0,0,0-1.136H53.025a.568.568,0,1,0,0,1.136Zm0,0" transform="translate(-47.053 -217.281)" fill="#202020"/>
    <path id="Path_53" data-name="Path 53" d="M53.025,201.136H72.641a.568.568,0,0,0,0-1.136H53.025a.568.568,0,1,0,0,1.136Zm0,0" transform="translate(-47.053 -181.068)" fill="#202020"/>
    <path id="Path_54" data-name="Path 54" d="M53.025,161.136H72.641a.568.568,0,0,0,0-1.136H53.025a.568.568,0,1,0,0,1.136Zm0,0" transform="translate(-47.053 -144.854)" fill="#202020"/>
    <path id="Path_55" data-name="Path 55" d="M53.025,121.136H63.174a.568.568,0,1,0,0-1.136H53.025a.568.568,0,1,0,0,1.136Zm0,0" transform="translate(-47.053 -108.641)" fill="#202020"/>
    <path id="Path_56" data-name="Path 56" d="M273.959,357a.568.568,0,1,0,0,1.136h1.385a1.491,1.491,0,0,1,1.4.947h-2.783a.568.568,0,0,0,0,1.136h2.783a1.491,1.491,0,0,1-1.4.947h-1.385a.551.551,0,0,0-.39.957l3.463,3.268a.569.569,0,0,0,.78-.829l-2.425-2.278a2.678,2.678,0,0,0,2.54-2.064h.873a.568.568,0,0,0,0-1.136h-.873a2.437,2.437,0,0,0-.413-.947H278.8a.568.568,0,1,0,0-1.136Zm0,0" transform="translate(-247.072 -323.206)" fill="#202020"/>
  </g>
</svg>
