<svg xmlns="http://www.w3.org/2000/svg" xmlns:xlink="http://www.w3.org/1999/xlink" width="32.308" height="28" viewBox="0 0 32.308 28">
  <defs>
    <linearGradient id="linear-gradient" x1="0.5" x2="0.5" y2="1" gradientUnits="objectBoundingBox">
      <stop offset="0" stop-color="#3e7c43"/>
      <stop offset="1" stop-color="#7ec54f"/>
    </linearGradient>
  </defs>
  <g id="scooter" transform="translate(-16 -48)">
    <path id="Path_181" data-name="Path 181" d="M66.154,368a2.154,2.154,0,1,0,2.154,2.154A2.154,2.154,0,0,0,66.154,368Zm0,3.231a1.077,1.077,0,1,1,1.077-1.077A1.077,1.077,0,0,1,66.154,371.231Z" transform="translate(-44.769 -298.462)" fill="url(#linear-gradient)"/>
    <path id="Path_182" data-name="Path 182" d="M45.077,64.432V62.985a1.618,1.618,0,0,0,1.077-1.523V60.385a1.617,1.617,0,0,0-1.615-1.615H34.846a1.617,1.617,0,0,0-1.615,1.615v1.077a1.618,1.618,0,0,0,.984,1.487l-.887,4.436H29.275l-3.54-8.093,1-2.677h2.185a1.615,1.615,0,1,0,0-3.231H25.692V52.018a2.14,2.14,0,0,0,1.077.289h.538a.538.538,0,0,0,.538-.538V48.538A.538.538,0,0,0,27.308,48h-.538a2.156,2.156,0,0,0-2.154,2.154v2.379a2.676,2.676,0,0,0-1.077-.225H20.308a.538.538,0,0,0-.538.538v4.308a.538.538,0,0,0,.538.538h1.615v1.582c-.085.042-.17.087-.252.135l-.017.009a4.863,4.863,0,0,0-2.423,4.2v.816A4.854,4.854,0,0,0,16,69v2.154a.538.538,0,0,0,.538.538h.538a4.308,4.308,0,0,0,8.615,0h.538a.538.538,0,0,0,.538-.538v-.538h8.615v.538a.538.538,0,0,0,.538.538h1.615a4.308,4.308,0,0,0,8.615,0h1.615a.538.538,0,0,0,.538-.538V69a4.854,4.854,0,0,0-3.231-4.568ZM34.308,60.385a.539.539,0,0,1,.538-.538h9.692a.539.539,0,0,1,.538.538v1.077a.539.539,0,0,1-.538.538H34.846a.539.539,0,0,1-.538-.538Zm.98,2.692H44v1.108a4.874,4.874,0,0,0-.538-.031H40.231a4.854,4.854,0,0,0-4.568,3.231H34.426Zm-6.365-8.615a.538.538,0,1,1,0,1.077H26.177a2.7,2.7,0,0,0,0-1.077Zm-2.154-5.385v2.154a1.077,1.077,0,1,1,0-2.154ZM25.154,55a1.617,1.617,0,0,1-1.615,1.615H23V53.385h.538A1.617,1.617,0,0,1,25.154,55Zm-4.308,1.615V53.385h1.077v3.231ZM23,57.692h.538a2.685,2.685,0,0,0,1.968-.857l-.725,1.934h-.7A4.855,4.855,0,0,0,23,58.89ZM21.385,74.923a3.231,3.231,0,1,1,3.231-3.231,3.231,3.231,0,0,1-3.231,3.231Zm4.308-4.308h-.136a4.308,4.308,0,0,0-8.343,0h-.136V69a3.773,3.773,0,0,1,3.769-3.769h1.077A3.773,3.773,0,0,1,25.692,69Zm-3.769-6.462H20.846a4.874,4.874,0,0,0-.538.031v-.569a3.783,3.783,0,0,1,1.87-3.257l.016-.009a3.762,3.762,0,0,1,1.883-.5H24.8l3.3,7.538H26.491a4.854,4.854,0,0,0-4.568-3.231Zm4.846,5.385V69a4.872,4.872,0,0,0-.031-.538h8.677a4.872,4.872,0,0,0-.031.538v.538Zm15.077,5.385a3.234,3.234,0,0,1-3.231-3.231h1.077a2.154,2.154,0,1,0,4.308,0h1.077a3.234,3.234,0,0,1-3.231,3.231Zm1.077-3.231a1.077,1.077,0,0,1-2.154,0Zm4.308-1.077H36.462V69a3.773,3.773,0,0,1,3.769-3.769h3.231A3.773,3.773,0,0,1,47.231,69Z" fill="url(#linear-gradient)"/>
    <path id="Path_183" data-name="Path 183" d="M364.846,320h-4.308a.538.538,0,1,0,0,1.077h4.308a.538.538,0,1,0,0-1.077Z" transform="translate(-320.846 -253.692)" fill="url(#linear-gradient)"/>
    <path id="Path_184" data-name="Path 184" d="M364.846,352h-4.308a.538.538,0,1,0,0,1.077h4.308a.538.538,0,1,0,0-1.077Z" transform="translate(-320.846 -283.538)" fill="url(#linear-gradient)"/>
  </g>
</svg>
