<svg xmlns="http://www.w3.org/2000/svg" width="49.713" height="36.329" viewBox="0 0 49.713 36.329">
  <g id="sound-waves" transform="translate(0 -0.492)">
    <path id="Path_77" data-name="Path 77" d="M.956,102.895a.956.956,0,0,0-.956.956v4.78a.956.956,0,1,0,1.912,0v-4.78A.956.956,0,0,0,.956,102.895Zm0,0" transform="translate(0 -88.062)" fill="#6d7178"/>
    <path id="Path_78" data-name="Path 78" d="M35.112,74.941a.957.957,0,0,0-.956.956V89.134a.956.956,0,0,0,1.912,0V75.9A.956.956,0,0,0,35.112,74.941Zm0,0" transform="translate(-29.373 -64.023)" fill="#6d7178"/>
    <path id="Path_79" data-name="Path 79" d="M69.222,27.8a.956.956,0,0,0-.956.956V55.525a.956.956,0,1,0,1.912,0V28.756a.956.956,0,0,0-.956-.956Zm0,0" transform="translate(-58.706 -23.484)" fill="#6d7178"/>
    <path id="Path_80" data-name="Path 80" d="M103.355,61.934a.956.956,0,0,0-.956.956V79.142a.956.956,0,0,0,1.912,0V62.89A.956.956,0,0,0,103.355,61.934Zm0,0" transform="translate(-88.059 -52.837)" fill="#6d7178"/>
    <path id="Path_81" data-name="Path 81" d="M206.424,45.406a.956.956,0,0,0-.956.956V67.871a.956.956,0,0,0,1.912,0V46.363A.956.956,0,0,0,206.424,45.406Zm0,0" transform="translate(-176.695 -38.624)" fill="#6d7178"/>
    <path id="Path_82" data-name="Path 82" d="M274.023,55.106a.956.956,0,0,0-.956.956v19.12a.956.956,0,1,0,1.912,0V56.062A.956.956,0,0,0,274.023,55.106Zm0,0" transform="translate(-234.826 -46.965)" fill="#6d7178"/>
    <path id="Path_83" data-name="Path 83" d="M308.155,89.238a.956.956,0,0,0-.956.956v9.56a.956.956,0,1,0,1.912,0v-9.56A.956.956,0,0,0,308.155,89.238Zm0,0" transform="translate(-264.178 -76.318)" fill="#6d7178"/>
    <path id="Path_84" data-name="Path 84" d="M239.89.492a.956.956,0,0,0-.956.956V35.865a.956.956,0,1,0,1.912,0V1.448a.956.956,0,0,0-.956-.956Zm0,0" transform="translate(-205.473 0)" fill="#6d7178"/>
    <path id="Path_85" data-name="Path 85" d="M137.49,109.719a.956.956,0,0,0-.956.956V114.5a.956.956,0,1,0,1.912,0v-3.824A.956.956,0,0,0,137.49,109.719Zm0,0" transform="translate(-117.414 -93.931)" fill="#6d7178"/>
    <path id="Path_86" data-name="Path 86" d="M342.288,107.434a.956.956,0,0,0-.956.956v4.137a.956.956,0,1,0,1.912,0V108.39A.956.956,0,0,0,342.288,107.434Zm0,0" transform="translate(-293.531 -91.966)" fill="#6d7178"/>
    <path id="Path_87" data-name="Path 87" d="M170.98,94.418a.956.956,0,0,0-.956.956v7.782a.956.956,0,1,0,1.912,0V95.374A.956.956,0,0,0,170.98,94.418Zm0,0" transform="translate(-146.214 -80.772)" fill="#6d7178"/>
  </g>
</svg>
