<svg xmlns="http://www.w3.org/2000/svg" width="41.49" height="40.208" viewBox="0 0 41.49 40.208">
  <g id="studying" transform="translate(0 -7.91)">
    <g id="Group_137" data-name="Group 137" transform="translate(0 7.91)">
      <g id="Group_136" data-name="Group 136" transform="translate(0 0)">
        <path id="Path_57" data-name="Path 57" d="M29.735,7.911H.726A.726.726,0,0,0,0,8.637v4.041a.726.726,0,1,0,1.451,0V9.362H29.009V46.667H1.451V15.1A.726.726,0,1,0,0,15.1v32.3a.726.726,0,0,0,.726.726H29.735a.726.726,0,0,0,.726-.726V8.637A.726.726,0,0,0,29.735,7.911Z" transform="translate(0 -7.911)" fill="#6d7178"/>
      </g>
    </g>
    <g id="Group_139" data-name="Group 139" transform="translate(33.798 7.91)">
      <g id="Group_138" data-name="Group 138">
        <path id="Path_58" data-name="Path 58" d="M424.05,36.427a.726.726,0,0,0-.726.726v4.4h-4.789V16.064h4.789V34.734a.726.726,0,1,0,1.451,0v-19.4a.724.724,0,0,0-.068-.306l-3.12-6.7a.726.726,0,0,0-1.316,0l-3.12,6.7a.727.727,0,0,0-.068.306V45.456a2.664,2.664,0,0,0,2.661,2.661h2.368a2.665,2.665,0,0,0,2.662-2.661v-8.3A.726.726,0,0,0,424.05,36.427Zm-3.12-26.072,1.982,4.258h-3.964Zm2.395,35.1a1.212,1.212,0,0,1-1.21,1.21h-2.368a1.212,1.212,0,0,1-1.21-1.21v-2.45h4.789Z" transform="translate(-417.084 -7.91)" fill="#6d7178"/>
      </g>
    </g>
    <g id="Group_141" data-name="Group 141" transform="translate(6.741 13.692)">
      <g id="Group_140" data-name="Group 140" transform="translate(0 0)">
        <path id="Path_59" data-name="Path 59" d="M99.437,79.263H83.91a.726.726,0,0,0,0,1.451H99.437a.726.726,0,1,0,0-1.451Z" transform="translate(-83.184 -79.263)" fill="#6d7178"/>
      </g>
    </g>
    <g id="Group_143" data-name="Group 143" transform="translate(21.705 21.154)">
      <g id="Group_142" data-name="Group 142">
        <path id="Path_60" data-name="Path 60" d="M271.525,171.352h-2.951a.726.726,0,1,0,0,1.451h2.951a.726.726,0,1,0,0-1.451Z" transform="translate(-267.849 -171.352)" fill="#6d7178"/>
      </g>
    </g>
    <g id="Group_145" data-name="Group 145" transform="translate(4.354 21.154)">
      <g id="Group_144" data-name="Group 144">
        <path id="Path_61" data-name="Path 61" d="M69.383,171.352H54.451a.726.726,0,1,0,0,1.451H69.383a.726.726,0,1,0,0-1.451Z" transform="translate(-53.725 -171.352)" fill="#6d7178"/>
      </g>
    </g>
    <g id="Group_147" data-name="Group 147" transform="translate(4.354 28.67)">
      <g id="Group_146" data-name="Group 146" transform="translate(0 0)">
        <path id="Path_62" data-name="Path 62" d="M74.753,264.1h-20.3a.726.726,0,1,0,0,1.451h20.3a.726.726,0,1,0,0-1.451Z" transform="translate(-53.725 -264.097)" fill="#6d7178"/>
      </g>
    </g>
    <g id="Group_149" data-name="Group 149" transform="translate(10.241 24.912)">
      <g id="Group_148" data-name="Group 148">
        <path id="Path_63" data-name="Path 63" d="M141.515,217.725H127.1a.726.726,0,1,0,0,1.451h14.415a.726.726,0,1,0,0-1.451Z" transform="translate(-126.374 -217.725)" fill="#6d7178"/>
      </g>
    </g>
    <g id="Group_151" data-name="Group 151" transform="translate(4.354 24.912)">
      <g id="Group_150" data-name="Group 150">
        <path id="Path_64" data-name="Path 64" d="M57.919,217.725H54.451a.726.726,0,1,0,0,1.451h3.468a.726.726,0,1,0,0-1.451Z" transform="translate(-53.725 -217.725)" fill="#6d7178"/>
      </g>
    </g>
    <g id="Group_153" data-name="Group 153" transform="translate(4.354 39.943)">
      <g id="Group_152" data-name="Group 152">
        <path id="Path_65" data-name="Path 65" d="M74.753,403.214h-20.3a.726.726,0,1,0,0,1.451h20.3a.726.726,0,1,0,0-1.451Z" transform="translate(-53.725 -403.214)" fill="#6d7178"/>
      </g>
    </g>
    <g id="Group_155" data-name="Group 155" transform="translate(19.818 36.186)">
      <g id="Group_154" data-name="Group 154">
        <path id="Path_66" data-name="Path 66" d="M250.13,356.843h-4.837a.726.726,0,0,0,0,1.451h4.837a.726.726,0,0,0,0-1.451Z" transform="translate(-244.567 -356.843)" fill="#6d7178"/>
      </g>
    </g>
    <g id="Group_157" data-name="Group 157" transform="translate(4.354 36.186)">
      <g id="Group_156" data-name="Group 156">
        <path id="Path_67" data-name="Path 67" d="M67.5,356.843H54.451a.726.726,0,0,0,0,1.451H67.5a.726.726,0,0,0,0-1.451Z" transform="translate(-53.725 -356.843)" fill="#6d7178"/>
      </g>
    </g>
  </g>
</svg>
