<svg xmlns="http://www.w3.org/2000/svg" xmlns:xlink="http://www.w3.org/1999/xlink" width="23.845" height="34" viewBox="0 0 23.845 34">
  <defs>
    <linearGradient id="linear-gradient" x1="0.5" x2="0.5" y2="1" gradientUnits="objectBoundingBox">
      <stop offset="0" stop-color="#3e7c43"/>
      <stop offset="1" stop-color="#7ec54f"/>
    </linearGradient>
  </defs>
  <g id="subway" transform="translate(-22.442 -4.738)">
    <path id="Path_185" data-name="Path 185" d="M43.17,6.14,38.9,5.222a21.445,21.445,0,0,0-9.064,0l-4.275.918A3.966,3.966,0,0,0,22.442,10V26.9a3.949,3.949,0,0,0,3.945,3.945h.785l-2.932,7.2a.5.5,0,0,0,.93.379l.749-1.839H42.81l.749,1.839a.5.5,0,1,0,.93-.379l-2.932-7.2h.785A3.949,3.949,0,0,0,46.287,26.9V10A3.966,3.966,0,0,0,43.17,6.14ZM26.328,35.582l1.017-2.5h14.04l1.017,2.5Zm14.648-3.5H27.753l.5-1.234H40.473ZM45.283,26.9a2.944,2.944,0,0,1-2.941,2.941H26.387A2.944,2.944,0,0,1,23.446,26.9V10A2.956,2.956,0,0,1,25.77,7.122L30.045,6.2a20.457,20.457,0,0,1,8.642,0l4.275.918A2.956,2.956,0,0,1,45.285,10Z" fill="url(#linear-gradient)"/>
    <path id="Path_186" data-name="Path 186" d="M49.62,22.44H31.942a.5.5,0,0,0-.5.5v7.473a.5.5,0,0,0,.5.5H49.62a.5.5,0,0,0,.5-.5V22.942a.5.5,0,0,0-.5-.5ZM32.444,29.913V23.444H49.118v6.469Z" transform="translate(-6.417 -12.624)" fill="url(#linear-gradient)"/>
    <path id="Path_187" data-name="Path 187" d="M77.923,63.494a2.8,2.8,0,1,0,2.8,2.8A2.8,2.8,0,0,0,77.923,63.494Zm0,4.59a1.793,1.793,0,1,1,1.793-1.793A1.793,1.793,0,0,1,77.923,68.084Z" transform="translate(-37.57 -41.9)" fill="url(#linear-gradient)"/>
    <path id="Path_188" data-name="Path 188" d="M36.171,63.494a2.8,2.8,0,1,0,2.8,2.8A2.8,2.8,0,0,0,36.171,63.494Zm0,4.59a1.793,1.793,0,1,1,1.793-1.793A1.793,1.793,0,0,1,36.171,68.084Z" transform="translate(-7.796 -41.9)" fill="url(#linear-gradient)"/>
    <path id="Path_189" data-name="Path 189" d="M52.752,14.754H58.49a.5.5,0,1,0,0-1H52.752a.5.5,0,1,0,0,1Z" transform="translate(-21.256 -6.427)" fill="url(#linear-gradient)"/>
  </g>
</svg>
