<svg xmlns="http://www.w3.org/2000/svg" width="21.4" height="25.118" viewBox="0 0 21.4 25.118">
  <g id="telephone_3_" data-name="telephone (3)" transform="translate(0 1)">
    <g id="Group_130" data-name="Group 130" transform="translate(0 -1)">
      <path id="Path_47" data-name="Path 47" d="M15.978,60.342a1.323,1.323,0,0,0-2.225,0c-.52.617-1.041,1.234-1.552,1.861-.14.172-.258.209-.428.094-.337-.22-.7-.4-1.019-.638a17.621,17.621,0,0,1-3.891-4.234,11.535,11.535,0,0,1-1.395-2.671.435.435,0,0,1,.079-.491c.52-.6,1.027-1.218,1.539-1.835a2,2,0,0,0,0-2.723c-.407-.491-.813-.972-1.22-1.464S5.027,47.233,4.6,46.737a1.33,1.33,0,0,0-2.225.005C1.853,47.359,1.35,47.991.817,48.6a3.307,3.307,0,0,0-.8,2.044,10.171,10.171,0,0,0,.56,3.727,23.874,23.874,0,0,0,3.362,6.7,21.832,21.832,0,0,0,6.89,6.445,8.786,8.786,0,0,0,3.817,1.328,2.571,2.571,0,0,0,2.4-1.092c.446-.6.949-1.139,1.421-1.709a2.014,2.014,0,0,0,.009-2.708Q17.233,61.829,15.978,60.342Z" transform="translate(-0.006 -43.726)" fill="#5e6065"/>
      <path id="Path_48" data-name="Path 48" d="M243.511,103.433l1.926-.329a8.651,8.651,0,0,0-7.312-7.1l-.271,1.939a6.686,6.686,0,0,1,5.658,5.493Z" transform="translate(-228.051 -90.982)" fill="#5e6065"/>
      <path id="Path_49" data-name="Path 49" d="M251.167,4.067A14.193,14.193,0,0,0,243.025,0l-.271,1.939a12.4,12.4,0,0,1,10.485,10.177l1.926-.329A14.333,14.333,0,0,0,251.167,4.067Z" transform="translate(-233.765)" fill="#5e6065"/>
    </g>
  </g>
</svg>
