<svg xmlns="http://www.w3.org/2000/svg" width="20.688" height="14.654" viewBox="0 0 20.688 14.654">
  <path id="youtube_1_" data-name="youtube (1)" d="M20.23,5.594l.026.169a2.623,2.623,0,0,0-1.783-1.821l-.018,0c-1.613-.438-8.1-.438-8.1-.438s-6.474-.009-8.1.438a2.624,2.624,0,0,0-1.8,1.807l0,.018a28.837,28.837,0,0,0,.027,10.3L.45,15.89a2.623,2.623,0,0,0,1.783,1.821l.018,0c1.611.439,8.1.439,8.1.439s6.473,0,8.1-.439a2.623,2.623,0,0,0,1.8-1.807l0-.018a26.951,26.951,0,0,0,.431-4.869c0-.063,0-.127,0-.191s0-.128,0-.2a27.8,27.8,0,0,0-.458-5.039ZM8.282,13.974V7.688l5.4,3.148Z" transform="translate(0 -3.5)" fill="#c0c2c8"/>
</svg>
