<svg id="mix" xmlns="http://www.w3.org/2000/svg" xmlns:xlink="http://www.w3.org/1999/xlink" width="61.3" height="53.436" viewBox="0 0 61.3 53.436">
  <defs>
    <style>
      .cls-1 {
        fill: url(#linear-gradient);
      }
    </style>
    <linearGradient id="linear-gradient" x1="0.5" x2="0.5" y2="1" gradientUnits="objectBoundingBox">
      <stop offset="0" stop-color="#3e7c43"/>
      <stop offset="1" stop-color="#7ec54f"/>
    </linearGradient>
  </defs>
  <path id="Path_194" data-name="Path 194" class="cls-1" d="M20.059,260.508H4.073a2.252,2.252,0,0,1-2.249-2.249V238.221a.912.912,0,1,0-1.823,0v20.039a4.077,4.077,0,0,0,4.073,4.073H20.059a.912.912,0,0,0,0-1.824Zm0,0" transform="translate(0 -208.896)"/>
  <path id="Path_195" data-name="Path 195" class="cls-1" d="M61.3,38.988V4.073A4.078,4.078,0,0,0,57.227,0H4.072A4.078,4.078,0,0,0,0,4.073v21.6a.912.912,0,0,0,1.823,0V4.073A2.252,2.252,0,0,1,4.072,1.824h41.4V51.613H23.706a.912.912,0,0,0,0,1.823H57.227A4.077,4.077,0,0,0,61.3,49.363V38.988ZM57.227,1.824a2.252,2.252,0,0,1,2.249,2.249V38.079H47.3V1.824ZM47.3,39.9H59.476v9.461a2.251,2.251,0,0,1-2.249,2.249H47.3Zm0,0" transform="translate(0 0)"/>
  <path id="Path_196" data-name="Path 196" class="cls-1" d="M37.8,80.887a.912.912,0,0,0,.912-.912V62.812h.13a2.739,2.739,0,0,0,2.735-2.735V53.035A2.739,2.739,0,0,0,38.845,50.3H36.763a2.738,2.738,0,0,0-2.735,2.735v7.041a2.738,2.738,0,0,0,2.735,2.735h.129V79.975a.912.912,0,0,0,.912.912Zm-1.953-20.81V53.036a.913.913,0,0,1,.912-.912h2.082a.913.913,0,0,1,.912.912v1.483H37.569a.912.912,0,0,0,0,1.823h2.188v.944H37.569a.912.912,0,0,0,0,1.823h2.188v.967a.913.913,0,0,1-.912.912H36.763a.913.913,0,0,1-.912-.912Zm0,0" transform="translate(-29.953 -44.278)"/>
  <path id="Path_197" data-name="Path 197" class="cls-1" d="M111.175,53.168a.912.912,0,0,0-.912.912V64.97h-.129A2.738,2.738,0,0,0,107.4,67.7v7.041a2.738,2.738,0,0,0,2.735,2.735h.129V82.5a.912.912,0,0,0,1.824,0V77.482h.129a2.739,2.739,0,0,0,2.735-2.735V67.7a2.739,2.739,0,0,0-2.735-2.735h-.129V54.08a.912.912,0,0,0-.912-.912ZM113.128,67.7v1.483H110.94a.912.912,0,0,0,0,1.823h2.188v.944H110.94a.912.912,0,0,0,0,1.823h2.188v.967a.913.913,0,0,1-.912.912h-2.082a.913.913,0,0,1-.912-.912V67.7a.913.913,0,0,1,.912-.912h2.082a.913.913,0,0,1,.912.912Zm0,0" transform="translate(-94.54 -46.802)"/>
  <path id="Path_198" data-name="Path 198" class="cls-1" d="M268.525,128.088h-.13a2.739,2.739,0,0,0-2.735,2.735v7.041A2.739,2.739,0,0,0,268.4,140.6h.13v5.018a.912.912,0,0,0,1.823,0V140.6h.129a2.739,2.739,0,0,0,2.735-2.735v-7.041a2.739,2.739,0,0,0-2.735-2.735h-.129v-2.3a.912.912,0,1,0-1.823,0Zm2.865,2.735v1.483H269.2a.912.912,0,1,0,0,1.823h2.187v.944H269.2a.912.912,0,1,0,0,1.824h2.187v.967a.913.913,0,0,1-.912.912H268.4a.913.913,0,0,1-.912-.912v-7.041a.913.913,0,0,1,.912-.912h2.082a.913.913,0,0,1,.912.912Zm0,0" transform="translate(-233.854 -109.92)"/>
  <path id="Path_199" data-name="Path 199" class="cls-1" d="M290.5,59.93a.912.912,0,0,0,.912-.912V54.08a.912.912,0,1,0-1.824,0v4.937A.912.912,0,0,0,290.5,59.93Zm0,0" transform="translate(-254.918 -46.803)"/>
  <path id="Path_200" data-name="Path 200" class="cls-1" d="M181.119,62.814V79.977a.912.912,0,0,0,1.824,0V62.814h.13a2.739,2.739,0,0,0,2.735-2.735V53.037a2.739,2.739,0,0,0-2.735-2.735H180.99a2.739,2.739,0,0,0-2.735,2.735v7.041a2.739,2.739,0,0,0,2.735,2.735Zm-1.042-2.735V53.037a.913.913,0,0,1,.912-.912h2.083a.913.913,0,0,1,.912.912V54.52H181.8a.912.912,0,1,0,0,1.823h2.187v.944H181.8a.912.912,0,1,0,0,1.823h2.187v.967a.913.913,0,0,1-.912.912H180.99A.913.913,0,0,1,180.078,60.078Zm0,0" transform="translate(-156.912 -44.279)"/>
  <path id="Path_201" data-name="Path 201" class="cls-1" d="M413.924,57.624H420.5a.912.912,0,1,0,0-1.823h-6.577a.912.912,0,1,0,0,1.823Zm0,0" transform="translate(-363.563 -49.12)"/>
  <path id="Path_202" data-name="Path 202" class="cls-1" d="M413.924,124.984H420.5a.912.912,0,1,0,0-1.824h-6.577a.912.912,0,1,0,0,1.824Zm0,0" transform="translate(-363.563 -108.415)"/>
  <path id="Path_203" data-name="Path 203" class="cls-1" d="M413.924,192.343H420.5a.912.912,0,1,0,0-1.824h-6.577a.912.912,0,1,0,0,1.824Zm0,0" transform="translate(-363.563 -167.709)"/>
  <path id="Path_204" data-name="Path 204" class="cls-1" d="M413.924,259.7H420.5a.912.912,0,1,0,0-1.824h-6.577a.912.912,0,1,0,0,1.824Zm0,0" transform="translate(-363.563 -227.004)"/>
  <path id="Path_205" data-name="Path 205" class="cls-1" d="M35.291,341.909a3.346,3.346,0,1,0-3.346-3.346A3.35,3.35,0,0,0,35.291,341.909Zm0-4.868a1.522,1.522,0,1,1-1.522,1.522A1.524,1.524,0,0,1,35.291,337.042Zm0,0" transform="translate(-28.121 -295.084)"/>
  <path id="Path_206" data-name="Path 206" class="cls-1" d="M116.982,335.219a3.346,3.346,0,1,0,3.346,3.346A3.349,3.349,0,0,0,116.982,335.219Zm0,4.868a1.522,1.522,0,1,1,1.522-1.522A1.524,1.524,0,0,1,116.982,340.087Zm0,0" transform="translate(-100.031 -295.084)"/>
  <path id="Path_207" data-name="Path 207" class="cls-1" d="M190.529,341.909a3.346,3.346,0,1,0-3.346-3.346A3.349,3.349,0,0,0,190.529,341.909Zm0-4.868a1.522,1.522,0,1,1-1.522,1.522A1.524,1.524,0,0,1,190.529,337.042Zm0,0" transform="translate(-164.773 -295.084)"/>
  <path id="Path_208" data-name="Path 208" class="cls-1" d="M275.779,335.219a3.346,3.346,0,1,0,3.346,3.346A3.35,3.35,0,0,0,275.779,335.219Zm0,4.868a1.522,1.522,0,1,1,1.522-1.522A1.524,1.524,0,0,1,275.779,340.087Zm0,0" transform="translate(-239.816 -295.084)"/>
</svg>
